<svg width="509" height="414" viewBox="0 0 509 414" fill="none" xmlns="http://www.w3.org/2000/svg">
<path d="M7.81538 30.776H14.9834V35H2.34338V12.536H7.81538V30.776ZM28.2174 35.224C26.1054 35.224 24.164 34.7333 22.3934 33.752C20.644 32.7707 19.2467 31.4053 18.2014 29.656C17.1774 27.8853 16.6654 25.9013 16.6654 23.704C16.6654 21.5067 17.1774 19.5333 18.2014 17.784C19.2467 16.0347 20.644 14.6693 22.3934 13.688C24.164 12.7067 26.1054 12.216 28.2174 12.216C30.3294 12.216 32.26 12.7067 34.0094 13.688C35.78 14.6693 37.1667 16.0347 38.1694 17.784C39.1934 19.5333 39.7054 21.5067 39.7054 23.704C39.7054 25.9013 39.1934 27.8853 38.1694 29.656C37.1454 31.4053 35.7587 32.7707 34.0094 33.752C32.26 34.7333 30.3294 35.224 28.2174 35.224ZM28.2174 30.232C30.0094 30.232 31.4387 29.6347 32.5054 28.44C33.5934 27.2453 34.1374 25.6667 34.1374 23.704C34.1374 21.72 33.5934 20.1413 32.5054 18.968C31.4387 17.7733 30.0094 17.176 28.2174 17.176C26.404 17.176 24.9534 17.7627 23.8654 18.936C22.7987 20.1093 22.2654 21.6987 22.2654 23.704C22.2654 25.688 22.7987 27.2773 23.8654 28.472C24.9534 29.6453 26.404 30.232 28.2174 30.232ZM57.6616 19.64C57.2563 18.8933 56.6696 18.328 55.9016 17.944C55.155 17.5387 54.2696 17.336 53.2456 17.336C51.475 17.336 50.0563 17.9227 48.9896 19.096C47.923 20.248 47.3896 21.7947 47.3896 23.736C47.3896 25.8053 47.9443 27.4267 49.0536 28.6C50.1843 29.752 51.731 30.328 53.6936 30.328C55.0376 30.328 56.1683 29.9867 57.0856 29.304C58.0243 28.6213 58.707 27.64 59.1336 26.36H52.1896V22.328H64.0936V27.416C63.6883 28.7813 62.995 30.0507 62.0136 31.224C61.0536 32.3973 59.827 33.3467 58.3336 34.072C56.8403 34.7973 55.155 35.16 53.2776 35.16C51.059 35.16 49.075 34.68 47.3256 33.72C45.5976 32.7387 44.243 31.384 43.2616 29.656C42.3016 27.928 41.8216 25.9547 41.8216 23.736C41.8216 21.5173 42.3016 19.544 43.2616 17.816C44.243 16.0667 45.5976 14.712 47.3256 13.752C49.0536 12.7707 51.027 12.28 53.2456 12.28C55.9336 12.28 58.195 12.9307 60.0296 14.232C61.8856 15.5333 63.1123 17.336 63.7096 19.64H57.6616ZM72.5966 12.536V35H67.1246V12.536H72.5966ZM96.6581 35H91.1861L82.0341 21.144V35H76.5621V12.536H82.0341L91.1861 26.456V12.536H96.6581V35Z" fill="#EB9B00"/>
<g clip-path="url(#clip0_4_2918)">
<path d="M502.333 8.54699L500.453 6.66699L493 14.1203L485.547 6.66699L483.667 8.54699L491.12 16.0003L483.667 23.4537L485.547 25.3337L493 17.8803L500.453 25.3337L502.333 23.4537L494.88 16.0003L502.333 8.54699Z" fill="url(#paint0_linear_4_2918)"/>
</g>
<path d="M29.728 88.96V91.232H33.392V93.344H29.728V95.808H33.872V98H26.992V86.768H33.872V88.96H29.728ZM42.5283 91.248V93.52H35.4883V91.248H42.5283ZM56.3215 88.976C57.4308 88.976 58.3108 89.312 58.9615 89.984C59.6228 90.656 59.9535 91.5893 59.9535 92.784V98H57.2335V93.152C57.2335 92.576 57.0788 92.1333 56.7695 91.824C56.4708 91.504 56.0548 91.344 55.5215 91.344C54.9882 91.344 54.5668 91.504 54.2575 91.824C53.9588 92.1333 53.8095 92.576 53.8095 93.152V98H51.0895V93.152C51.0895 92.576 50.9348 92.1333 50.6255 91.824C50.3268 91.504 49.9108 91.344 49.3775 91.344C48.8442 91.344 48.4228 91.504 48.1135 91.824C47.8148 92.1333 47.6655 92.576 47.6655 93.152V98H44.9295V89.072H47.6655V90.192C47.9428 89.8187 48.3055 89.5253 48.7535 89.312C49.2015 89.088 49.7082 88.976 50.2735 88.976C50.9455 88.976 51.5428 89.12 52.0655 89.408C52.5988 89.696 53.0148 90.1067 53.3135 90.64C53.6228 90.1493 54.0442 89.7493 54.5775 89.44C55.1108 89.1307 55.6922 88.976 56.3215 88.976ZM61.323 93.52C61.323 92.6027 61.4937 91.7973 61.835 91.104C62.187 90.4107 62.6617 89.8773 63.259 89.504C63.8563 89.1307 64.523 88.944 65.259 88.944C65.8883 88.944 66.4377 89.072 66.907 89.328C67.387 89.584 67.755 89.92 68.011 90.336V89.072H70.747V98H68.011V96.736C67.7443 97.152 67.371 97.488 66.891 97.744C66.4217 98 65.8723 98.128 65.243 98.128C64.5177 98.128 63.8563 97.9413 63.259 97.568C62.6617 97.184 62.187 96.6453 61.835 95.952C61.4937 95.248 61.323 94.4373 61.323 93.52ZM68.011 93.536C68.011 92.8533 67.819 92.3147 67.435 91.92C67.0617 91.5253 66.603 91.328 66.059 91.328C65.515 91.328 65.051 91.5253 64.667 91.92C64.2937 92.304 64.107 92.8373 64.107 93.52C64.107 94.2027 64.2937 94.7467 64.667 95.152C65.051 95.5467 65.515 95.744 66.059 95.744C66.603 95.744 67.0617 95.5467 67.435 95.152C67.819 94.7573 68.011 94.2187 68.011 93.536ZM74.1024 88.144C73.6224 88.144 73.2277 88.0053 72.9184 87.728C72.6197 87.44 72.4704 87.088 72.4704 86.672C72.4704 86.2453 72.6197 85.8933 72.9184 85.616C73.2277 85.328 73.6224 85.184 74.1024 85.184C74.5717 85.184 74.9557 85.328 75.2544 85.616C75.5637 85.8933 75.7184 86.2453 75.7184 86.672C75.7184 87.088 75.5637 87.44 75.2544 87.728C74.9557 88.0053 74.5717 88.144 74.1024 88.144ZM75.4624 89.072V98H72.7264V89.072H75.4624ZM80.1811 86.16V98H77.4451V86.16H80.1811Z" fill="#002F52"/>
<rect x="0.5" y="108.5" width="508" height="43" rx="21.5" stroke="#002F52"/>
<path d="M28.336 136.144C27.664 136.144 27.0613 136.032 26.528 135.808C25.9947 135.573 25.5733 135.253 25.264 134.848C24.9547 134.432 24.784 133.957 24.752 133.424H26.256C26.2987 133.861 26.5013 134.219 26.864 134.496C27.2373 134.773 27.7227 134.912 28.32 134.912C28.8747 134.912 29.312 134.789 29.632 134.544C29.952 134.299 30.112 133.989 30.112 133.616C30.112 133.232 29.9413 132.949 29.6 132.768C29.2587 132.576 28.7307 132.389 28.016 132.208C27.3653 132.037 26.832 131.867 26.416 131.696C26.0107 131.515 25.6587 131.253 25.36 130.912C25.072 130.56 24.928 130.101 24.928 129.536C24.928 129.088 25.0613 128.677 25.328 128.304C25.5947 127.931 25.9733 127.637 26.464 127.424C26.9547 127.2 27.5147 127.088 28.144 127.088C29.1147 127.088 29.8987 127.333 30.496 127.824C31.0933 128.315 31.4133 128.987 31.456 129.84H30C29.968 129.381 29.7813 129.013 29.44 128.736C29.1093 128.459 28.6613 128.32 28.096 128.32C27.5733 128.32 27.1573 128.432 26.848 128.656C26.5387 128.88 26.384 129.173 26.384 129.536C26.384 129.824 26.4747 130.064 26.656 130.256C26.848 130.437 27.0827 130.587 27.36 130.704C27.648 130.811 28.0427 130.933 28.544 131.072C29.1733 131.243 29.6853 131.413 30.08 131.584C30.4747 131.744 30.8107 131.989 31.088 132.32C31.376 132.651 31.5253 133.083 31.536 133.616C31.536 134.096 31.4027 134.528 31.136 134.912C30.8693 135.296 30.4907 135.6 30 135.824C29.52 136.037 28.9653 136.144 28.336 136.144ZM41.5914 131.28C41.5914 131.557 41.5754 131.851 41.5434 132.16H34.5354C34.5887 133.024 34.882 133.701 35.4154 134.192C35.9594 134.672 36.6154 134.912 37.3834 134.912C38.0127 134.912 38.5354 134.768 38.9514 134.48C39.378 134.181 39.6767 133.787 39.8474 133.296H41.4154C41.1807 134.139 40.7114 134.827 40.0074 135.36C39.3034 135.883 38.4287 136.144 37.3834 136.144C36.5514 136.144 35.8047 135.957 35.1434 135.584C34.4927 135.211 33.9807 134.683 33.6074 134C33.234 133.307 33.0474 132.507 33.0474 131.6C33.0474 130.693 33.2287 129.899 33.5914 129.216C33.954 128.533 34.4607 128.011 35.1114 127.648C35.7727 127.275 36.53 127.088 37.3834 127.088C38.2154 127.088 38.9514 127.269 39.5914 127.632C40.2314 127.995 40.722 128.496 41.0634 129.136C41.4154 129.765 41.5914 130.48 41.5914 131.28ZM40.0874 130.976C40.0874 130.421 39.9647 129.947 39.7194 129.552C39.474 129.147 39.138 128.843 38.7114 128.64C38.2954 128.427 37.8314 128.32 37.3194 128.32C36.5834 128.32 35.954 128.555 35.4314 129.024C34.9194 129.493 34.626 130.144 34.5514 130.976H40.0874ZM51.2893 127.232V136H49.8333V134.704C49.5559 135.152 49.1666 135.504 48.6653 135.76C48.1746 136.005 47.6306 136.128 47.0333 136.128C46.3506 136.128 45.7373 135.989 45.1933 135.712C44.6493 135.424 44.2173 134.997 43.8973 134.432C43.5879 133.867 43.4333 133.179 43.4333 132.368V127.232H44.8733V132.176C44.8733 133.04 45.0919 133.707 45.5293 134.176C45.9666 134.635 46.5639 134.864 47.3213 134.864C48.0999 134.864 48.7133 134.624 49.1613 134.144C49.6093 133.664 49.8333 132.965 49.8333 132.048V127.232H51.2893ZM61.7476 131.28C61.7476 131.557 61.7316 131.851 61.6996 132.16H54.6916C54.745 133.024 55.0383 133.701 55.5716 134.192C56.1156 134.672 56.7716 134.912 57.5396 134.912C58.169 134.912 58.6916 134.768 59.1076 134.48C59.5343 134.181 59.833 133.787 60.0036 133.296H61.5716C61.337 134.139 60.8676 134.827 60.1636 135.36C59.4596 135.883 58.585 136.144 57.5396 136.144C56.7076 136.144 55.961 135.957 55.2996 135.584C54.649 135.211 54.137 134.683 53.7636 134C53.3903 133.307 53.2036 132.507 53.2036 131.6C53.2036 130.693 53.385 129.899 53.7476 129.216C54.1103 128.533 54.617 128.011 55.2676 127.648C55.929 127.275 56.6863 127.088 57.5396 127.088C58.3716 127.088 59.1076 127.269 59.7476 127.632C60.3876 127.995 60.8783 128.496 61.2196 129.136C61.5716 129.765 61.7476 130.48 61.7476 131.28ZM60.2436 130.976C60.2436 130.421 60.121 129.947 59.8756 129.552C59.6303 129.147 59.2943 128.843 58.8676 128.64C58.4516 128.427 57.9876 128.32 57.4756 128.32C56.7396 128.32 56.1103 128.555 55.5876 129.024C55.0756 129.493 54.7823 130.144 54.7076 130.976H60.2436ZM74.2135 127.072C74.8962 127.072 75.5042 127.216 76.0375 127.504C76.5708 127.781 76.9922 128.203 77.3015 128.768C77.6108 129.333 77.7655 130.021 77.7655 130.832V136H76.3255V131.04C76.3255 130.165 76.1068 129.499 75.6695 129.04C75.2428 128.571 74.6615 128.336 73.9255 128.336C73.1682 128.336 72.5655 128.581 72.1175 129.072C71.6695 129.552 71.4455 130.251 71.4455 131.168V136H70.0055V131.04C70.0055 130.165 69.7868 129.499 69.3495 129.04C68.9228 128.571 68.3415 128.336 67.6055 128.336C66.8482 128.336 66.2455 128.581 65.7975 129.072C65.3495 129.552 65.1255 130.251 65.1255 131.168V136H63.6695V127.232H65.1255V128.496C65.4135 128.037 65.7975 127.685 66.2775 127.44C66.7682 127.195 67.3068 127.072 67.8935 127.072C68.6295 127.072 69.2802 127.237 69.8455 127.568C70.4108 127.899 70.8322 128.384 71.1095 129.024C71.3548 128.405 71.7602 127.925 72.3255 127.584C72.8908 127.243 73.5202 127.072 74.2135 127.072ZM79.6099 131.584C79.6099 130.688 79.7912 129.904 80.1539 129.232C80.5165 128.549 81.0125 128.021 81.6419 127.648C82.2819 127.275 82.9912 127.088 83.7699 127.088C84.5379 127.088 85.2045 127.253 85.7699 127.584C86.3352 127.915 86.7565 128.331 87.0339 128.832V127.232H88.5059V136H87.0339V134.368C86.7459 134.88 86.3139 135.307 85.7379 135.648C85.1725 135.979 84.5112 136.144 83.7539 136.144C82.9752 136.144 82.2712 135.952 81.6419 135.568C81.0125 135.184 80.5165 134.645 80.1539 133.952C79.7912 133.259 79.6099 132.469 79.6099 131.584ZM87.0339 131.6C87.0339 130.939 86.9005 130.363 86.6339 129.872C86.3672 129.381 86.0045 129.008 85.5459 128.752C85.0979 128.485 84.6019 128.352 84.0579 128.352C83.5139 128.352 83.0179 128.48 82.5699 128.736C82.1219 128.992 81.7645 129.365 81.4979 129.856C81.2312 130.347 81.0979 130.923 81.0979 131.584C81.0979 132.256 81.2312 132.843 81.4979 133.344C81.7645 133.835 82.1219 134.213 82.5699 134.48C83.0179 134.736 83.5139 134.864 84.0579 134.864C84.6019 134.864 85.0979 134.736 85.5459 134.48C86.0045 134.213 86.3672 133.835 86.6339 133.344C86.9005 132.843 87.0339 132.261 87.0339 131.6ZM91.7184 125.808C91.441 125.808 91.2064 125.712 91.0144 125.52C90.8224 125.328 90.7264 125.093 90.7264 124.816C90.7264 124.539 90.8224 124.304 91.0144 124.112C91.2064 123.92 91.441 123.824 91.7184 123.824C91.985 123.824 92.209 123.92 92.3904 124.112C92.5824 124.304 92.6784 124.539 92.6784 124.816C92.6784 125.093 92.5824 125.328 92.3904 125.52C92.209 125.712 91.985 125.808 91.7184 125.808ZM92.4224 127.232V136H90.9664V127.232H92.4224ZM96.3599 124.16V136H94.9039V124.16H96.3599ZM106.841 125.744C108.025 125.744 109.055 125.968 109.929 126.416C110.804 126.864 111.476 127.493 111.945 128.304C112.415 129.104 112.649 130.032 112.649 131.088C112.649 131.931 112.511 132.741 112.233 133.52C111.956 134.288 111.551 134.912 111.017 135.392C110.495 135.872 109.881 136.112 109.177 136.112C108.644 136.112 108.233 135.979 107.945 135.712C107.657 135.445 107.492 135.083 107.449 134.624C107.119 135.083 106.697 135.445 106.185 135.712C105.684 135.979 105.151 136.112 104.585 136.112C103.775 136.112 103.135 135.867 102.665 135.376C102.207 134.875 101.977 134.203 101.977 133.36C101.977 132.56 102.143 131.813 102.473 131.12C102.815 130.427 103.284 129.872 103.881 129.456C104.479 129.029 105.156 128.816 105.913 128.816C106.927 128.816 107.609 129.2 107.961 129.968L108.137 128.976H109.401L108.601 133.6C108.569 133.803 108.553 133.989 108.553 134.16C108.553 134.8 108.836 135.12 109.401 135.12C109.828 135.12 110.196 134.917 110.505 134.512C110.825 134.107 111.065 133.6 111.225 132.992C111.385 132.373 111.465 131.765 111.465 131.168C111.465 129.771 111.044 128.688 110.201 127.92C109.369 127.152 108.191 126.768 106.665 126.768C105.396 126.768 104.249 127.077 103.225 127.696C102.212 128.304 101.417 129.141 100.841 130.208C100.265 131.275 99.9774 132.453 99.9774 133.744C99.9667 135.152 100.388 136.235 101.241 136.992C102.095 137.76 103.279 138.144 104.793 138.144C105.796 138.144 106.681 137.963 107.449 137.6L107.641 138.592C106.692 138.987 105.647 139.184 104.505 139.184C103.364 139.184 102.356 138.965 101.481 138.528C100.617 138.101 99.9454 137.483 99.4654 136.672C98.996 135.872 98.7614 134.939 98.7614 133.872C98.7614 132.368 99.108 130.997 99.8014 129.76C100.495 128.512 101.455 127.531 102.681 126.816C103.919 126.101 105.305 125.744 106.841 125.744ZM105.017 134.976C105.497 134.976 105.94 134.837 106.345 134.56C106.751 134.272 107.071 133.888 107.305 133.408C107.54 132.917 107.657 132.384 107.657 131.808C107.657 131.253 107.503 130.805 107.193 130.464C106.895 130.112 106.468 129.936 105.913 129.936C105.401 129.936 104.948 130.091 104.553 130.4C104.169 130.699 103.871 131.099 103.657 131.6C103.444 132.091 103.337 132.603 103.337 133.136C103.337 133.701 103.481 134.149 103.769 134.48C104.057 134.811 104.473 134.976 105.017 134.976ZM125.589 127.072C126.271 127.072 126.879 127.216 127.413 127.504C127.946 127.781 128.367 128.203 128.677 128.768C128.986 129.333 129.141 130.021 129.141 130.832V136H127.701V131.04C127.701 130.165 127.482 129.499 127.045 129.04C126.618 128.571 126.037 128.336 125.301 128.336C124.543 128.336 123.941 128.581 123.493 129.072C123.045 129.552 122.821 130.251 122.821 131.168V136H121.381V131.04C121.381 130.165 121.162 129.499 120.725 129.04C120.298 128.571 119.717 128.336 118.981 128.336C118.223 128.336 117.621 128.581 117.173 129.072C116.725 129.552 116.501 130.251 116.501 131.168V136H115.045V127.232H116.501V128.496C116.789 128.037 117.173 127.685 117.653 127.44C118.143 127.195 118.682 127.072 119.269 127.072C120.005 127.072 120.655 127.237 121.221 127.568C121.786 127.899 122.207 128.384 122.485 129.024C122.73 128.405 123.135 127.925 123.701 127.584C124.266 127.243 124.895 127.072 125.589 127.072ZM130.985 131.584C130.985 130.688 131.166 129.904 131.529 129.232C131.892 128.549 132.388 128.021 133.017 127.648C133.657 127.275 134.366 127.088 135.145 127.088C135.913 127.088 136.58 127.253 137.145 127.584C137.71 127.915 138.132 128.331 138.409 128.832V127.232H139.881V136H138.409V134.368C138.121 134.88 137.689 135.307 137.113 135.648C136.548 135.979 135.886 136.144 135.129 136.144C134.35 136.144 133.646 135.952 133.017 135.568C132.388 135.184 131.892 134.645 131.529 133.952C131.166 133.259 130.985 132.469 130.985 131.584ZM138.409 131.6C138.409 130.939 138.276 130.363 138.009 129.872C137.742 129.381 137.38 129.008 136.921 128.752C136.473 128.485 135.977 128.352 135.433 128.352C134.889 128.352 134.393 128.48 133.945 128.736C133.497 128.992 133.14 129.365 132.873 129.856C132.606 130.347 132.473 130.923 132.473 131.584C132.473 132.256 132.606 132.843 132.873 133.344C133.14 133.835 133.497 134.213 133.945 134.48C134.393 134.736 134.889 134.864 135.433 134.864C135.977 134.864 136.473 134.736 136.921 134.48C137.38 134.213 137.742 133.835 138.009 133.344C138.276 132.843 138.409 132.261 138.409 131.6ZM146.613 127.072C147.68 127.072 148.544 127.397 149.205 128.048C149.867 128.688 150.197 129.616 150.197 130.832V136H148.757V131.04C148.757 130.165 148.539 129.499 148.101 129.04C147.664 128.571 147.067 128.336 146.309 128.336C145.541 128.336 144.928 128.576 144.469 129.056C144.021 129.536 143.797 130.235 143.797 131.152V136H142.341V127.232H143.797V128.48C144.085 128.032 144.475 127.685 144.965 127.44C145.467 127.195 146.016 127.072 146.613 127.072ZM160.576 131.28C160.576 131.557 160.56 131.851 160.528 132.16H153.52C153.573 133.024 153.866 133.701 154.4 134.192C154.944 134.672 155.6 134.912 156.368 134.912C156.997 134.912 157.52 134.768 157.936 134.48C158.362 134.181 158.661 133.787 158.832 133.296H160.4C160.165 134.139 159.696 134.827 158.992 135.36C158.288 135.883 157.413 136.144 156.368 136.144C155.536 136.144 154.789 135.957 154.128 135.584C153.477 135.211 152.965 134.683 152.592 134C152.218 133.307 152.032 132.507 152.032 131.6C152.032 130.693 152.213 129.899 152.576 129.216C152.938 128.533 153.445 128.011 154.096 127.648C154.757 127.275 155.514 127.088 156.368 127.088C157.2 127.088 157.936 127.269 158.576 127.632C159.216 127.995 159.706 128.496 160.048 129.136C160.4 129.765 160.576 130.48 160.576 131.28ZM159.072 130.976C159.072 130.421 158.949 129.947 158.704 129.552C158.458 129.147 158.122 128.843 157.696 128.64C157.28 128.427 156.816 128.32 156.304 128.32C155.568 128.32 154.938 128.555 154.416 129.024C153.904 129.493 153.61 130.144 153.536 130.976H159.072ZM163.25 125.808C162.972 125.808 162.738 125.712 162.546 125.52C162.354 125.328 162.258 125.093 162.258 124.816C162.258 124.539 162.354 124.304 162.546 124.112C162.738 123.92 162.972 123.824 163.25 123.824C163.516 123.824 163.74 123.92 163.922 124.112C164.114 124.304 164.21 124.539 164.21 124.816C164.21 125.093 164.114 125.328 163.922 125.52C163.74 125.712 163.516 125.808 163.25 125.808ZM163.954 127.232V136H162.498V127.232H163.954ZM167.891 128.656C168.147 128.155 168.51 127.765 168.979 127.488C169.459 127.211 170.04 127.072 170.723 127.072V128.576H170.339C168.707 128.576 167.891 129.461 167.891 131.232V136H166.435V127.232H167.891V128.656ZM176.228 136.144C175.407 136.144 174.66 135.957 173.988 135.584C173.327 135.211 172.804 134.683 172.42 134C172.047 133.307 171.86 132.507 171.86 131.6C171.86 130.704 172.052 129.915 172.436 129.232C172.831 128.539 173.364 128.011 174.036 127.648C174.708 127.275 175.46 127.088 176.292 127.088C177.124 127.088 177.876 127.275 178.548 127.648C179.22 128.011 179.748 128.533 180.132 129.216C180.527 129.899 180.724 130.693 180.724 131.6C180.724 132.507 180.521 133.307 180.116 134C179.721 134.683 179.183 135.211 178.5 135.584C177.817 135.957 177.06 136.144 176.228 136.144ZM176.228 134.864C176.751 134.864 177.241 134.741 177.7 134.496C178.159 134.251 178.527 133.883 178.804 133.392C179.092 132.901 179.236 132.304 179.236 131.6C179.236 130.896 179.097 130.299 178.82 129.808C178.543 129.317 178.18 128.955 177.732 128.72C177.284 128.475 176.799 128.352 176.276 128.352C175.743 128.352 175.252 128.475 174.804 128.72C174.367 128.955 174.015 129.317 173.748 129.808C173.481 130.299 173.348 130.896 173.348 131.6C173.348 132.315 173.476 132.917 173.732 133.408C173.999 133.899 174.351 134.267 174.788 134.512C175.225 134.747 175.705 134.864 176.228 134.864ZM183.102 136.096C182.825 136.096 182.59 136 182.398 135.808C182.206 135.616 182.11 135.381 182.11 135.104C182.11 134.827 182.206 134.592 182.398 134.4C182.59 134.208 182.825 134.112 183.102 134.112C183.369 134.112 183.593 134.208 183.774 134.4C183.966 134.592 184.062 134.827 184.062 135.104C184.062 135.381 183.966 135.616 183.774 135.808C183.593 136 183.369 136.096 183.102 136.096ZM185.454 131.6C185.454 130.693 185.635 129.904 185.998 129.232C186.36 128.549 186.862 128.021 187.502 127.648C188.152 127.275 188.894 127.088 189.726 127.088C190.803 127.088 191.688 127.349 192.382 127.872C193.086 128.395 193.55 129.12 193.774 130.048H192.206C192.056 129.515 191.763 129.093 191.326 128.784C190.899 128.475 190.366 128.32 189.726 128.32C188.894 128.32 188.222 128.608 187.71 129.184C187.198 129.749 186.942 130.555 186.942 131.6C186.942 132.656 187.198 133.472 187.71 134.048C188.222 134.624 188.894 134.912 189.726 134.912C190.366 134.912 190.899 134.763 191.326 134.464C191.752 134.165 192.046 133.739 192.206 133.184H193.774C193.539 134.08 193.07 134.8 192.366 135.344C191.662 135.877 190.782 136.144 189.726 136.144C188.894 136.144 188.152 135.957 187.502 135.584C186.862 135.211 186.36 134.683 185.998 134C185.635 133.317 185.454 132.517 185.454 131.6ZM199.54 136.144C198.719 136.144 197.972 135.957 197.3 135.584C196.639 135.211 196.116 134.683 195.732 134C195.359 133.307 195.172 132.507 195.172 131.6C195.172 130.704 195.364 129.915 195.748 129.232C196.143 128.539 196.676 128.011 197.348 127.648C198.02 127.275 198.772 127.088 199.604 127.088C200.436 127.088 201.188 127.275 201.86 127.648C202.532 128.011 203.06 128.533 203.444 129.216C203.839 129.899 204.036 130.693 204.036 131.6C204.036 132.507 203.834 133.307 203.428 134C203.034 134.683 202.495 135.211 201.812 135.584C201.13 135.957 200.372 136.144 199.54 136.144ZM199.54 134.864C200.063 134.864 200.554 134.741 201.012 134.496C201.471 134.251 201.839 133.883 202.116 133.392C202.404 132.901 202.548 132.304 202.548 131.6C202.548 130.896 202.41 130.299 202.132 129.808C201.855 129.317 201.492 128.955 201.044 128.72C200.596 128.475 200.111 128.352 199.588 128.352C199.055 128.352 198.564 128.475 198.116 128.72C197.679 128.955 197.327 129.317 197.06 129.808C196.794 130.299 196.66 130.896 196.66 131.6C196.66 132.315 196.788 132.917 197.044 133.408C197.311 133.899 197.663 134.267 198.1 134.512C198.538 134.747 199.018 134.864 199.54 134.864ZM216.495 127.072C217.177 127.072 217.785 127.216 218.319 127.504C218.852 127.781 219.273 128.203 219.583 128.768C219.892 129.333 220.047 130.021 220.047 130.832V136H218.607V131.04C218.607 130.165 218.388 129.499 217.951 129.04C217.524 128.571 216.943 128.336 216.207 128.336C215.449 128.336 214.847 128.581 214.399 129.072C213.951 129.552 213.727 130.251 213.727 131.168V136H212.287V131.04C212.287 130.165 212.068 129.499 211.631 129.04C211.204 128.571 210.623 128.336 209.887 128.336C209.129 128.336 208.527 128.581 208.079 129.072C207.631 129.552 207.407 130.251 207.407 131.168V136H205.951V127.232H207.407V128.496C207.695 128.037 208.079 127.685 208.559 127.44C209.049 127.195 209.588 127.072 210.175 127.072C210.911 127.072 211.561 127.237 212.127 127.568C212.692 127.899 213.113 128.384 213.391 129.024C213.636 128.405 214.041 127.925 214.607 127.584C215.172 127.243 215.801 127.072 216.495 127.072ZM222.899 136.096C222.622 136.096 222.387 136 222.195 135.808C222.003 135.616 221.907 135.381 221.907 135.104C221.907 134.827 222.003 134.592 222.195 134.4C222.387 134.208 222.622 134.112 222.899 134.112C223.166 134.112 223.39 134.208 223.571 134.4C223.763 134.592 223.859 134.827 223.859 135.104C223.859 135.381 223.763 135.616 223.571 135.808C223.39 136 223.166 136.096 222.899 136.096ZM227.251 128.864C227.549 128.341 227.987 127.915 228.562 127.584C229.139 127.253 229.795 127.088 230.531 127.088C231.32 127.088 232.029 127.275 232.659 127.648C233.288 128.021 233.784 128.549 234.147 129.232C234.509 129.904 234.691 130.688 234.691 131.584C234.691 132.469 234.509 133.259 234.147 133.952C233.784 134.645 233.282 135.184 232.642 135.568C232.013 135.952 231.309 136.144 230.531 136.144C229.773 136.144 229.107 135.979 228.531 135.648C227.965 135.317 227.539 134.896 227.251 134.384V136H225.795V124.16H227.251V128.864ZM233.203 131.584C233.203 130.923 233.069 130.347 232.803 129.856C232.536 129.365 232.173 128.992 231.715 128.736C231.267 128.48 230.771 128.352 230.227 128.352C229.693 128.352 229.197 128.485 228.739 128.752C228.291 129.008 227.928 129.387 227.651 129.888C227.384 130.379 227.251 130.949 227.251 131.6C227.251 132.261 227.384 132.843 227.651 133.344C227.928 133.835 228.291 134.213 228.739 134.48C229.197 134.736 229.693 134.864 230.227 134.864C230.771 134.864 231.267 134.736 231.715 134.48C232.173 134.213 232.536 133.835 232.803 133.344C233.069 132.843 233.203 132.256 233.203 131.584ZM238.063 128.656C238.319 128.155 238.682 127.765 239.151 127.488C239.631 127.211 240.212 127.072 240.895 127.072V128.576H240.511C238.879 128.576 238.063 129.461 238.063 131.232V136H236.607V127.232H238.063V128.656Z" fill="#A4A4A4"/>
<path d="M31.056 185.112C30.2347 185.112 29.4987 184.979 28.848 184.712C28.1973 184.445 27.6747 184.051 27.28 183.528C26.896 183.005 26.6933 182.376 26.672 181.64H29.584C29.6267 182.056 29.7707 182.376 30.016 182.6C30.2613 182.813 30.5813 182.92 30.976 182.92C31.3813 182.92 31.7013 182.829 31.936 182.648C32.1707 182.456 32.288 182.195 32.288 181.864C32.288 181.587 32.192 181.357 32 181.176C31.8187 180.995 31.5893 180.845 31.312 180.728C31.0453 180.611 30.6613 180.477 30.16 180.328C29.4347 180.104 28.8427 179.88 28.384 179.656C27.9253 179.432 27.5307 179.101 27.2 178.664C26.8693 178.227 26.704 177.656 26.704 176.952C26.704 175.907 27.0827 175.091 27.84 174.504C28.5973 173.907 29.584 173.608 30.8 173.608C32.0373 173.608 33.0347 173.907 33.792 174.504C34.5493 175.091 34.9547 175.912 35.008 176.968H32.048C32.0267 176.605 31.8933 176.323 31.648 176.12C31.4027 175.907 31.088 175.8 30.704 175.8C30.3733 175.8 30.1067 175.891 29.904 176.072C29.7013 176.243 29.6 176.493 29.6 176.824C29.6 177.187 29.7707 177.469 30.112 177.672C30.4533 177.875 30.9867 178.093 31.712 178.328C32.4373 178.573 33.024 178.808 33.472 179.032C33.9307 179.256 34.3253 179.581 34.656 180.008C34.9867 180.435 35.152 180.984 35.152 181.656C35.152 182.296 34.9867 182.877 34.656 183.4C34.336 183.923 33.8667 184.339 33.248 184.648C32.6293 184.957 31.8987 185.112 31.056 185.112ZM45.2517 180.392C45.2517 180.648 45.2358 180.915 45.2038 181.192H39.0118C39.0544 181.747 39.2304 182.173 39.5398 182.472C39.8598 182.76 40.2491 182.904 40.7078 182.904C41.3904 182.904 41.8651 182.616 42.1318 182.04H45.0438C44.8944 182.627 44.6224 183.155 44.2278 183.624C43.8438 184.093 43.3584 184.461 42.7718 184.728C42.1851 184.995 41.5291 185.128 40.8038 185.128C39.9291 185.128 39.1504 184.941 38.4678 184.568C37.7851 184.195 37.2518 183.661 36.8678 182.968C36.4838 182.275 36.2918 181.464 36.2918 180.536C36.2918 179.608 36.4784 178.797 36.8518 178.104C37.2358 177.411 37.7691 176.877 38.4518 176.504C39.1344 176.131 39.9184 175.944 40.8038 175.944C41.6678 175.944 42.4358 176.125 43.1078 176.488C43.7798 176.851 44.3024 177.368 44.6758 178.04C45.0598 178.712 45.2517 179.496 45.2517 180.392ZM42.4518 179.672C42.4518 179.203 42.2918 178.829 41.9718 178.552C41.6518 178.275 41.2518 178.136 40.7718 178.136C40.3131 178.136 39.9238 178.269 39.6038 178.536C39.2944 178.803 39.1024 179.181 39.0278 179.672H42.4518ZM52.1351 175.976C53.1805 175.976 54.0125 176.317 54.6311 177C55.2605 177.672 55.5751 178.6 55.5751 179.784V185H52.8551V180.152C52.8551 179.555 52.7005 179.091 52.3911 178.76C52.0818 178.429 51.6658 178.264 51.1431 178.264C50.6205 178.264 50.2045 178.429 49.8951 178.76C49.5858 179.091 49.4311 179.555 49.4311 180.152V185H46.6951V176.072H49.4311V177.256C49.7085 176.861 50.0818 176.552 50.5511 176.328C51.0205 176.093 51.5485 175.976 52.1351 175.976ZM62.9644 175.976C63.9884 175.976 64.8097 176.317 65.4284 177C66.047 177.672 66.3564 178.6 66.3564 179.784V185H63.6364V180.152C63.6364 179.555 63.4817 179.091 63.1724 178.76C62.863 178.429 62.447 178.264 61.9244 178.264C61.4017 178.264 60.9857 178.429 60.6764 178.76C60.367 179.091 60.2124 179.555 60.2124 180.152V185H57.4764V173.16H60.2124V177.272C60.4897 176.877 60.8684 176.563 61.3484 176.328C61.8284 176.093 62.367 175.976 62.9644 175.976ZM67.7136 180.52C67.7136 179.603 67.8843 178.797 68.2256 178.104C68.5776 177.411 69.0523 176.877 69.6496 176.504C70.247 176.131 70.9136 175.944 71.6496 175.944C72.279 175.944 72.8283 176.072 73.2976 176.328C73.7776 176.584 74.1456 176.92 74.4016 177.336V176.072H77.1376V185H74.4016V183.736C74.135 184.152 73.7616 184.488 73.2816 184.744C72.8123 185 72.263 185.128 71.6336 185.128C70.9083 185.128 70.247 184.941 69.6496 184.568C69.0523 184.184 68.5776 183.645 68.2256 182.952C67.8843 182.248 67.7136 181.437 67.7136 180.52ZM74.4016 180.536C74.4016 179.853 74.2096 179.315 73.8256 178.92C73.4523 178.525 72.9936 178.328 72.4496 178.328C71.9056 178.328 71.4416 178.525 71.0576 178.92C70.6843 179.304 70.4976 179.837 70.4976 180.52C70.4976 181.203 70.6843 181.747 71.0576 182.152C71.4416 182.547 71.9056 182.744 72.4496 182.744C72.9936 182.744 73.4523 182.547 73.8256 182.152C74.2096 181.757 74.4016 181.219 74.4016 180.536Z" fill="#002F52"/>
<rect x="0.5" y="195.5" width="508" height="43" rx="21.5" stroke="#002F52"/>
<path d="M30.192 212.28L30.768 213.32L28.544 214.248L30.784 215.16L30.176 216.232L28.24 214.824L28.496 217.24H27.296L27.536 214.824L25.6 216.248L24.976 215.16L27.2 214.232L24.976 213.336L25.568 212.264L27.552 213.688L27.296 211.256H28.512L28.24 213.688L30.192 212.28ZM37.9733 212.28L38.5493 213.32L36.3253 214.248L38.5653 215.16L37.9573 216.232L36.0213 214.824L36.2773 217.24H35.0773L35.3173 214.824L33.3813 216.248L32.7573 215.16L34.9813 214.232L32.7573 213.336L33.3493 212.264L35.3333 213.688L35.0773 211.256H36.2933L36.0213 213.688L37.9733 212.28ZM45.7545 212.28L46.3305 213.32L44.1065 214.248L46.3465 215.16L45.7385 216.232L43.8025 214.824L44.0585 217.24H42.8585L43.0985 214.824L41.1625 216.248L40.5385 215.16L42.7625 214.232L40.5385 213.336L41.1305 212.264L43.1145 213.688L42.8585 211.256H44.0745L43.8025 213.688L45.7545 212.28ZM53.5358 212.28L54.1118 213.32L51.8878 214.248L54.1278 215.16L53.5198 216.232L51.5838 214.824L51.8398 217.24H50.6398L50.8798 214.824L48.9438 216.248L48.3198 215.16L50.5438 214.232L48.3198 213.336L48.9118 212.264L50.8958 213.688L50.6398 211.256H51.8558L51.5838 213.688L53.5358 212.28ZM61.317 212.28L61.893 213.32L59.669 214.248L61.909 215.16L61.301 216.232L59.365 214.824L59.621 217.24H58.421L58.661 214.824L56.725 216.248L56.101 215.16L58.325 214.232L56.101 213.336L56.693 212.264L58.677 213.688L58.421 211.256H59.637L59.365 213.688L61.317 212.28ZM69.0983 212.28L69.6743 213.32L67.4503 214.248L69.6903 215.16L69.0823 216.232L67.1463 214.824L67.4023 217.24H66.2023L66.4423 214.824L64.5063 216.248L63.8823 215.16L66.1063 214.232L63.8823 213.336L64.4743 212.264L66.4583 213.688L66.2023 211.256H67.4183L67.1463 213.688L69.0983 212.28ZM76.8795 212.28L77.4555 213.32L75.2315 214.248L77.4715 215.16L76.8635 216.232L74.9275 214.824L75.1835 217.24H73.9835L74.2235 214.824L72.2875 216.248L71.6635 215.16L73.8875 214.232L71.6635 213.336L72.2555 212.264L74.2395 213.688L73.9835 211.256H75.1995L74.9275 213.688L76.8795 212.28ZM84.6608 212.28L85.2368 213.32L83.0128 214.248L85.2528 215.16L84.6448 216.232L82.7088 214.824L82.9648 217.24H81.7648L82.0048 214.824L80.0688 216.248L79.4448 215.16L81.6688 214.232L79.4448 213.336L80.0368 212.264L82.0208 213.688L81.7648 211.256H82.9808L82.7088 213.688L84.6608 212.28ZM92.442 212.28L93.018 213.32L90.794 214.248L93.034 215.16L92.426 216.232L90.49 214.824L90.746 217.24H89.546L89.786 214.824L87.85 216.248L87.226 215.16L89.45 214.232L87.226 213.336L87.818 212.264L89.802 213.688L89.546 211.256H90.762L90.49 213.688L92.442 212.28ZM100.223 212.28L100.799 213.32L98.5753 214.248L100.815 215.16L100.207 216.232L98.2713 214.824L98.5273 217.24H97.3273L97.5673 214.824L95.6313 216.248L95.0073 215.16L97.2313 214.232L95.0073 213.336L95.5993 212.264L97.5833 213.688L97.3273 211.256H98.5433L98.2713 213.688L100.223 212.28ZM108.005 212.28L108.581 213.32L106.357 214.248L108.597 215.16L107.989 216.232L106.053 214.824L106.309 217.24H105.109L105.349 214.824L103.413 216.248L102.789 215.16L105.013 214.232L102.789 213.336L103.381 212.264L105.365 213.688L105.109 211.256H106.325L106.053 213.688L108.005 212.28ZM115.786 212.28L116.362 213.32L114.138 214.248L116.378 215.16L115.77 216.232L113.834 214.824L114.09 217.24H112.89L113.13 214.824L111.194 216.248L110.57 215.16L112.794 214.232L110.57 213.336L111.162 212.264L113.146 213.688L112.89 211.256H114.106L113.834 213.688L115.786 212.28Z" fill="#A4A4A4"/>
<g clip-path="url(#clip1_4_2918)">
<path d="M473 209.5C468 209.5 463.73 212.61 462 217C463.73 221.39 468 224.5 473 224.5C478 224.5 482.27 221.39 484 217C482.27 212.61 478 209.5 473 209.5ZM473 222C470.24 222 468 219.76 468 217C468 214.24 470.24 212 473 212C475.76 212 478 214.24 478 217C478 219.76 475.76 222 473 222ZM473 214C471.34 214 470 215.34 470 217C470 218.66 471.34 220 473 220C474.66 220 476 218.66 476 217C476 215.34 474.66 214 473 214Z" fill="#002F52"/>
</g>
<path d="M24.188 262.032V265.76H28.252V266.96H24.188V270.8H28.732V272H22.732V260.832H28.732V262.032H24.188ZM34.0391 272.144C33.3671 272.144 32.7645 272.032 32.2311 271.808C31.6978 271.573 31.2765 271.253 30.9671 270.848C30.6578 270.432 30.4871 269.957 30.4551 269.424H31.9591C32.0018 269.861 32.2045 270.219 32.5671 270.496C32.9405 270.773 33.4258 270.912 34.0231 270.912C34.5778 270.912 35.0151 270.789 35.3351 270.544C35.6551 270.299 35.8151 269.989 35.8151 269.616C35.8151 269.232 35.6445 268.949 35.3031 268.768C34.9618 268.576 34.4338 268.389 33.7191 268.208C33.0685 268.037 32.5351 267.867 32.1191 267.696C31.7138 267.515 31.3618 267.253 31.0631 266.912C30.7751 266.56 30.6311 266.101 30.6311 265.536C30.6311 265.088 30.7645 264.677 31.0311 264.304C31.2978 263.931 31.6765 263.637 32.1671 263.424C32.6578 263.2 33.2178 263.088 33.8471 263.088C34.8178 263.088 35.6018 263.333 36.1991 263.824C36.7965 264.315 37.1165 264.987 37.1591 265.84H35.7031C35.6711 265.381 35.4845 265.013 35.1431 264.736C34.8125 264.459 34.3645 264.32 33.7991 264.32C33.2765 264.32 32.8605 264.432 32.5511 264.656C32.2418 264.88 32.0871 265.173 32.0871 265.536C32.0871 265.824 32.1778 266.064 32.3591 266.256C32.5511 266.437 32.7858 266.587 33.0631 266.704C33.3511 266.811 33.7458 266.933 34.2471 267.072C34.8765 267.243 35.3885 267.413 35.7831 267.584C36.1778 267.744 36.5138 267.989 36.7911 268.32C37.0791 268.651 37.2285 269.083 37.2391 269.616C37.2391 270.096 37.1058 270.528 36.8391 270.912C36.5725 271.296 36.1938 271.6 35.7031 271.824C35.2231 272.037 34.6685 272.144 34.0391 272.144ZM38.7505 267.584C38.7505 266.688 38.9318 265.904 39.2945 265.232C39.6572 264.549 40.1532 264.021 40.7825 263.648C41.4225 263.275 42.1372 263.088 42.9265 263.088C43.6838 263.088 44.3452 263.259 44.9105 263.6C45.4865 263.931 45.9078 264.341 46.1745 264.832V263.232H47.6465V276.16H46.1745V270.384C45.8972 270.875 45.4705 271.291 44.8945 271.632C44.3185 271.973 43.6465 272.144 42.8785 272.144C42.1105 272.144 41.4118 271.952 40.7825 271.568C40.1532 271.184 39.6572 270.645 39.2945 269.952C38.9318 269.259 38.7505 268.469 38.7505 267.584ZM46.1745 267.6C46.1745 266.939 46.0412 266.363 45.7745 265.872C45.5078 265.381 45.1452 265.008 44.6865 264.752C44.2385 264.485 43.7425 264.352 43.1985 264.352C42.6545 264.352 42.1585 264.48 41.7105 264.736C41.2625 264.992 40.9052 265.365 40.6385 265.856C40.3718 266.347 40.2385 266.923 40.2385 267.584C40.2385 268.256 40.3718 268.843 40.6385 269.344C40.9052 269.835 41.2625 270.213 41.7105 270.48C42.1585 270.736 42.6545 270.864 43.1985 270.864C43.7425 270.864 44.2385 270.736 44.6865 270.48C45.1452 270.213 45.5078 269.835 45.7745 269.344C46.0412 268.843 46.1745 268.261 46.1745 267.6ZM57.883 263.232V272H56.427V270.704C56.1497 271.152 55.7603 271.504 55.259 271.76C54.7683 272.005 54.2243 272.128 53.627 272.128C52.9443 272.128 52.331 271.989 51.787 271.712C51.243 271.424 50.811 270.997 50.491 270.432C50.1817 269.867 50.027 269.179 50.027 268.368V263.232H51.467V268.176C51.467 269.04 51.6857 269.707 52.123 270.176C52.5603 270.635 53.1577 270.864 53.915 270.864C54.6937 270.864 55.307 270.624 55.755 270.144C56.203 269.664 56.427 268.965 56.427 268.048V263.232H57.883ZM68.3414 267.28C68.3414 267.557 68.3254 267.851 68.2934 268.16H61.2854C61.3387 269.024 61.632 269.701 62.1654 270.192C62.7094 270.672 63.3654 270.912 64.1334 270.912C64.7627 270.912 65.2854 270.768 65.7014 270.48C66.128 270.181 66.4267 269.787 66.5974 269.296H68.1654C67.9307 270.139 67.4614 270.827 66.7574 271.36C66.0534 271.883 65.1787 272.144 64.1334 272.144C63.3014 272.144 62.5547 271.957 61.8934 271.584C61.2427 271.211 60.7307 270.683 60.3574 270C59.984 269.307 59.7974 268.507 59.7974 267.6C59.7974 266.693 59.9787 265.899 60.3414 265.216C60.704 264.533 61.2107 264.011 61.8614 263.648C62.5227 263.275 63.28 263.088 64.1334 263.088C64.9654 263.088 65.7014 263.269 66.3414 263.632C66.9814 263.995 67.472 264.496 67.8134 265.136C68.1654 265.765 68.3414 266.48 68.3414 267.28ZM66.8374 266.976C66.8374 266.421 66.7147 265.947 66.4694 265.552C66.224 265.147 65.888 264.843 65.4614 264.64C65.0454 264.427 64.5814 264.32 64.0694 264.32C63.3334 264.32 62.704 264.555 62.1814 265.024C61.6694 265.493 61.376 266.144 61.3014 266.976H66.8374ZM69.7193 267.6C69.7193 266.693 69.9006 265.904 70.2633 265.232C70.6259 264.549 71.1273 264.021 71.7673 263.648C72.4179 263.275 73.1593 263.088 73.9913 263.088C75.0686 263.088 75.9539 263.349 76.6473 263.872C77.3513 264.395 77.8153 265.12 78.0393 266.048H76.4713C76.3219 265.515 76.0286 265.093 75.5913 264.784C75.1646 264.475 74.6313 264.32 73.9913 264.32C73.1593 264.32 72.4873 264.608 71.9753 265.184C71.4633 265.749 71.2073 266.555 71.2073 267.6C71.2073 268.656 71.4633 269.472 71.9753 270.048C72.4873 270.624 73.1593 270.912 73.9913 270.912C74.6313 270.912 75.1646 270.763 75.5913 270.464C76.0179 270.165 76.3113 269.739 76.4713 269.184H78.0393C77.8046 270.08 77.3353 270.8 76.6313 271.344C75.9273 271.877 75.0473 272.144 73.9913 272.144C73.1593 272.144 72.4179 271.957 71.7673 271.584C71.1273 271.211 70.6259 270.683 70.2633 270C69.9006 269.317 69.7193 268.517 69.7193 267.6ZM80.734 261.808C80.4567 261.808 80.222 261.712 80.03 261.52C79.838 261.328 79.742 261.093 79.742 260.816C79.742 260.539 79.838 260.304 80.03 260.112C80.222 259.92 80.4567 259.824 80.734 259.824C81.0007 259.824 81.2247 259.92 81.406 260.112C81.598 260.304 81.694 260.539 81.694 260.816C81.694 261.093 81.598 261.328 81.406 261.52C81.2247 261.712 81.0007 261.808 80.734 261.808ZM81.438 263.232V272H79.982V263.232H81.438ZM98.7291 263.072C99.4118 263.072 100.02 263.216 100.553 263.504C101.086 263.781 101.508 264.203 101.817 264.768C102.126 265.333 102.281 266.021 102.281 266.832V272H100.841V267.04C100.841 266.165 100.622 265.499 100.185 265.04C99.7585 264.571 99.1771 264.336 98.4411 264.336C97.6838 264.336 97.0811 264.581 96.6331 265.072C96.1851 265.552 95.9611 266.251 95.9611 267.168V272H94.5211V267.04C94.5211 266.165 94.3025 265.499 93.8651 265.04C93.4385 264.571 92.8571 264.336 92.1211 264.336C91.3638 264.336 90.7611 264.581 90.3131 265.072C89.8651 265.552 89.6411 266.251 89.6411 267.168V272H88.1851V263.232H89.6411V264.496C89.9291 264.037 90.3131 263.685 90.7931 263.44C91.2838 263.195 91.8225 263.072 92.4091 263.072C93.1451 263.072 93.7958 263.237 94.3611 263.568C94.9265 263.899 95.3478 264.384 95.6251 265.024C95.8705 264.405 96.2758 263.925 96.8411 263.584C97.4065 263.243 98.0358 263.072 98.7291 263.072ZM105.422 261.808C105.144 261.808 104.91 261.712 104.718 261.52C104.526 261.328 104.43 261.093 104.43 260.816C104.43 260.539 104.526 260.304 104.718 260.112C104.91 259.92 105.144 259.824 105.422 259.824C105.688 259.824 105.912 259.92 106.094 260.112C106.286 260.304 106.382 260.539 106.382 260.816C106.382 261.093 106.286 261.328 106.094 261.52C105.912 261.712 105.688 261.808 105.422 261.808ZM106.126 263.232V272H104.67V263.232H106.126ZM112.879 263.072C113.946 263.072 114.81 263.397 115.471 264.048C116.132 264.688 116.463 265.616 116.463 266.832V272H115.023V267.04C115.023 266.165 114.804 265.499 114.367 265.04C113.93 264.571 113.332 264.336 112.575 264.336C111.807 264.336 111.194 264.576 110.735 265.056C110.287 265.536 110.063 266.235 110.063 267.152V272H108.607V263.232H110.063V264.48C110.351 264.032 110.74 263.685 111.231 263.44C111.732 263.195 112.282 263.072 112.879 263.072ZM123.193 263.072C123.855 263.072 124.452 263.216 124.985 263.504C125.519 263.781 125.935 264.203 126.233 264.768C126.543 265.333 126.697 266.021 126.697 266.832V272H125.257V267.04C125.257 266.165 125.039 265.499 124.601 265.04C124.164 264.571 123.567 264.336 122.809 264.336C122.041 264.336 121.428 264.576 120.969 265.056C120.521 265.536 120.297 266.235 120.297 267.152V272H118.841V260.16H120.297V264.48C120.585 264.032 120.98 263.685 121.481 263.44C121.993 263.195 122.564 263.072 123.193 263.072ZM128.532 267.584C128.532 266.688 128.713 265.904 129.076 265.232C129.438 264.549 129.934 264.021 130.564 263.648C131.204 263.275 131.913 263.088 132.692 263.088C133.46 263.088 134.126 263.253 134.692 263.584C135.257 263.915 135.678 264.331 135.956 264.832V263.232H137.428V272H135.956V270.368C135.668 270.88 135.236 271.307 134.66 271.648C134.094 271.979 133.433 272.144 132.676 272.144C131.897 272.144 131.193 271.952 130.564 271.568C129.934 271.184 129.438 270.645 129.076 269.952C128.713 269.259 128.532 268.469 128.532 267.584ZM135.956 267.6C135.956 266.939 135.822 266.363 135.556 265.872C135.289 265.381 134.926 265.008 134.468 264.752C134.02 264.485 133.524 264.352 132.98 264.352C132.436 264.352 131.94 264.48 131.492 264.736C131.044 264.992 130.686 265.365 130.42 265.856C130.153 266.347 130.02 266.923 130.02 267.584C130.02 268.256 130.153 268.843 130.42 269.344C130.686 269.835 131.044 270.213 131.492 270.48C131.94 270.736 132.436 270.864 132.98 270.864C133.524 270.864 134.02 270.736 134.468 270.48C134.926 270.213 135.289 269.835 135.556 269.344C135.822 268.843 135.956 268.261 135.956 267.6ZM147.258 272.144C146.586 272.144 145.983 272.032 145.45 271.808C144.917 271.573 144.495 271.253 144.186 270.848C143.877 270.432 143.706 269.957 143.674 269.424H145.178C145.221 269.861 145.423 270.219 145.786 270.496C146.159 270.773 146.645 270.912 147.242 270.912C147.797 270.912 148.234 270.789 148.554 270.544C148.874 270.299 149.034 269.989 149.034 269.616C149.034 269.232 148.863 268.949 148.522 268.768C148.181 268.576 147.653 268.389 146.938 268.208C146.287 268.037 145.754 267.867 145.338 267.696C144.933 267.515 144.581 267.253 144.282 266.912C143.994 266.56 143.85 266.101 143.85 265.536C143.85 265.088 143.983 264.677 144.25 264.304C144.517 263.931 144.895 263.637 145.386 263.424C145.877 263.2 146.437 263.088 147.066 263.088C148.037 263.088 148.821 263.333 149.418 263.824C150.015 264.315 150.335 264.987 150.378 265.84H148.922C148.89 265.381 148.703 265.013 148.362 264.736C148.031 264.459 147.583 264.32 147.018 264.32C146.495 264.32 146.079 264.432 145.77 264.656C145.461 264.88 145.306 265.173 145.306 265.536C145.306 265.824 145.397 266.064 145.578 266.256C145.77 266.437 146.005 266.587 146.282 266.704C146.57 266.811 146.965 266.933 147.466 267.072C148.095 267.243 148.607 267.413 149.002 267.584C149.397 267.744 149.733 267.989 150.01 268.32C150.298 268.651 150.447 269.083 150.458 269.616C150.458 270.096 150.325 270.528 150.058 270.912C149.791 271.296 149.413 271.6 148.922 271.824C148.442 272.037 147.887 272.144 147.258 272.144ZM160.513 267.28C160.513 267.557 160.497 267.851 160.465 268.16H153.457C153.511 269.024 153.804 269.701 154.337 270.192C154.881 270.672 155.537 270.912 156.305 270.912C156.935 270.912 157.457 270.768 157.873 270.48C158.3 270.181 158.599 269.787 158.769 269.296H160.337C160.103 270.139 159.633 270.827 158.929 271.36C158.225 271.883 157.351 272.144 156.305 272.144C155.473 272.144 154.727 271.957 154.065 271.584C153.415 271.211 152.903 270.683 152.529 270C152.156 269.307 151.969 268.507 151.969 267.6C151.969 266.693 152.151 265.899 152.513 265.216C152.876 264.533 153.383 264.011 154.033 263.648C154.695 263.275 155.452 263.088 156.305 263.088C157.137 263.088 157.873 263.269 158.513 263.632C159.153 263.995 159.644 264.496 159.985 265.136C160.337 265.765 160.513 266.48 160.513 267.28ZM159.009 266.976C159.009 266.421 158.887 265.947 158.641 265.552C158.396 265.147 158.06 264.843 157.633 264.64C157.217 264.427 156.753 264.32 156.241 264.32C155.505 264.32 154.876 264.555 154.353 265.024C153.841 265.493 153.548 266.144 153.473 266.976H159.009ZM166.707 263.072C167.774 263.072 168.638 263.397 169.299 264.048C169.96 264.688 170.291 265.616 170.291 266.832V272H168.851V267.04C168.851 266.165 168.632 265.499 168.195 265.04C167.758 264.571 167.16 264.336 166.403 264.336C165.635 264.336 165.022 264.576 164.563 265.056C164.115 265.536 163.891 266.235 163.891 267.152V272H162.435V263.232H163.891V264.48C164.179 264.032 164.568 263.685 165.059 263.44C165.56 263.195 166.11 263.072 166.707 263.072ZM177.022 263.072C177.683 263.072 178.28 263.216 178.814 263.504C179.347 263.781 179.763 264.203 180.062 264.768C180.371 265.333 180.526 266.021 180.526 266.832V272H179.086V267.04C179.086 266.165 178.867 265.499 178.43 265.04C177.992 264.571 177.395 264.336 176.638 264.336C175.87 264.336 175.256 264.576 174.798 265.056C174.35 265.536 174.126 266.235 174.126 267.152V272H172.67V260.16H174.126V264.48C174.414 264.032 174.808 263.685 175.31 263.44C175.822 263.195 176.392 263.072 177.022 263.072ZM182.36 267.584C182.36 266.688 182.541 265.904 182.904 265.232C183.267 264.549 183.763 264.021 184.392 263.648C185.032 263.275 185.741 263.088 186.52 263.088C187.288 263.088 187.955 263.253 188.52 263.584C189.085 263.915 189.507 264.331 189.784 264.832V263.232H191.256V272H189.784V270.368C189.496 270.88 189.064 271.307 188.488 271.648C187.923 271.979 187.261 272.144 186.504 272.144C185.725 272.144 185.021 271.952 184.392 271.568C183.763 271.184 183.267 270.645 182.904 269.952C182.541 269.259 182.36 268.469 182.36 267.584ZM189.784 267.6C189.784 266.939 189.651 266.363 189.384 265.872C189.117 265.381 188.755 265.008 188.296 264.752C187.848 264.485 187.352 264.352 186.808 264.352C186.264 264.352 185.768 264.48 185.32 264.736C184.872 264.992 184.515 265.365 184.248 265.856C183.981 266.347 183.848 266.923 183.848 267.584C183.848 268.256 183.981 268.843 184.248 269.344C184.515 269.835 184.872 270.213 185.32 270.48C185.768 270.736 186.264 270.864 186.808 270.864C187.352 270.864 187.848 270.736 188.296 270.48C188.755 270.213 189.117 269.835 189.384 269.344C189.651 268.843 189.784 268.261 189.784 267.6Z" fill="#002F52"/>
<path d="M21.5 273.6H192.488V274.4H21.5V273.6Z" fill="#002F52"/>
<rect width="128" height="40" transform="translate(359.5 254)" fill="#EB9B00"/>
<path d="M387.351 268.768V270.96H382.775V273.328H386.199V275.456H382.775V280H380.039V268.768H387.351ZM388.245 275.52C388.245 274.603 388.416 273.797 388.757 273.104C389.109 272.411 389.584 271.877 390.181 271.504C390.778 271.131 391.445 270.944 392.181 270.944C392.81 270.944 393.36 271.072 393.829 271.328C394.309 271.584 394.677 271.92 394.933 272.336V271.072H397.669V280H394.933V278.736C394.666 279.152 394.293 279.488 393.813 279.744C393.344 280 392.794 280.128 392.165 280.128C391.44 280.128 390.778 279.941 390.181 279.568C389.584 279.184 389.109 278.645 388.757 277.952C388.416 277.248 388.245 276.437 388.245 275.52ZM394.933 275.536C394.933 274.853 394.741 274.315 394.357 273.92C393.984 273.525 393.525 273.328 392.981 273.328C392.437 273.328 391.973 273.525 391.589 273.92C391.216 274.304 391.029 274.837 391.029 275.52C391.029 276.203 391.216 276.747 391.589 277.152C391.973 277.547 392.437 277.744 392.981 277.744C393.525 277.744 393.984 277.547 394.357 277.152C394.741 276.757 394.933 276.219 394.933 275.536ZM402.208 277.744H406.08V280H399.152V277.824L402.864 273.328H399.184V271.072H406V273.248L402.208 277.744ZM416.002 275.392C416.002 275.648 415.986 275.915 415.954 276.192H409.762C409.804 276.747 409.98 277.173 410.29 277.472C410.61 277.76 410.999 277.904 411.458 277.904C412.14 277.904 412.615 277.616 412.882 277.04H415.794C415.644 277.627 415.372 278.155 414.978 278.624C414.594 279.093 414.108 279.461 413.522 279.728C412.935 279.995 412.279 280.128 411.554 280.128C410.679 280.128 409.9 279.941 409.218 279.568C408.535 279.195 408.002 278.661 407.618 277.968C407.234 277.275 407.042 276.464 407.042 275.536C407.042 274.608 407.228 273.797 407.602 273.104C407.986 272.411 408.519 271.877 409.202 271.504C409.884 271.131 410.668 270.944 411.554 270.944C412.418 270.944 413.186 271.125 413.858 271.488C414.53 271.851 415.052 272.368 415.426 273.04C415.81 273.712 416.002 274.496 416.002 275.392ZM413.202 274.672C413.202 274.203 413.042 273.829 412.722 273.552C412.402 273.275 412.002 273.136 411.522 273.136C411.063 273.136 410.674 273.269 410.354 273.536C410.044 273.803 409.852 274.181 409.778 274.672H413.202ZM420.181 272.56C420.501 272.069 420.901 271.685 421.381 271.408C421.861 271.12 422.394 270.976 422.981 270.976V273.872H422.229C421.546 273.872 421.034 274.021 420.693 274.32C420.352 274.608 420.181 275.12 420.181 275.856V280H417.445V271.072H420.181V272.56ZM430.416 268.16V280H427.68V268.16H430.416ZM436.462 280.128C435.588 280.128 434.798 279.941 434.094 279.568C433.401 279.195 432.852 278.661 432.446 277.968C432.052 277.275 431.854 276.464 431.854 275.536C431.854 274.619 432.057 273.813 432.462 273.12C432.868 272.416 433.422 271.877 434.126 271.504C434.83 271.131 435.62 270.944 436.494 270.944C437.369 270.944 438.158 271.131 438.862 271.504C439.566 271.877 440.121 272.416 440.526 273.12C440.932 273.813 441.134 274.619 441.134 275.536C441.134 276.453 440.926 277.264 440.51 277.968C440.105 278.661 439.545 279.195 438.83 279.568C438.126 279.941 437.337 280.128 436.462 280.128ZM436.462 277.76C436.985 277.76 437.428 277.568 437.79 277.184C438.164 276.8 438.35 276.251 438.35 275.536C438.35 274.821 438.169 274.272 437.806 273.888C437.454 273.504 437.017 273.312 436.494 273.312C435.961 273.312 435.518 273.504 435.166 273.888C434.814 274.261 434.638 274.811 434.638 275.536C434.638 276.251 434.809 276.8 435.15 277.184C435.502 277.568 435.94 277.76 436.462 277.76ZM445.978 270.944C446.607 270.944 447.156 271.072 447.626 271.328C448.106 271.584 448.474 271.92 448.73 272.336V271.072H451.466V279.984C451.466 280.805 451.3 281.547 450.97 282.208C450.65 282.88 450.154 283.413 449.482 283.808C448.82 284.203 447.994 284.4 447.002 284.4C445.679 284.4 444.607 284.085 443.786 283.456C442.964 282.837 442.495 281.995 442.378 280.928H445.082C445.167 281.269 445.37 281.536 445.69 281.728C446.01 281.931 446.404 282.032 446.874 282.032C447.439 282.032 447.887 281.867 448.218 281.536C448.559 281.216 448.73 280.699 448.73 279.984V278.72C448.463 279.136 448.095 279.477 447.626 279.744C447.156 280 446.607 280.128 445.978 280.128C445.242 280.128 444.575 279.941 443.978 279.568C443.38 279.184 442.906 278.645 442.554 277.952C442.212 277.248 442.042 276.437 442.042 275.52C442.042 274.603 442.212 273.797 442.554 273.104C442.906 272.411 443.38 271.877 443.978 271.504C444.575 271.131 445.242 270.944 445.978 270.944ZM448.73 275.536C448.73 274.853 448.538 274.315 448.154 273.92C447.78 273.525 447.322 273.328 446.778 273.328C446.234 273.328 445.77 273.525 445.386 273.92C445.012 274.304 444.826 274.837 444.826 275.52C444.826 276.203 445.012 276.747 445.386 277.152C445.77 277.547 446.234 277.744 446.778 277.744C447.322 277.744 447.78 277.547 448.154 277.152C448.538 276.757 448.73 276.219 448.73 275.536ZM454.821 270.144C454.341 270.144 453.946 270.005 453.637 269.728C453.338 269.44 453.189 269.088 453.189 268.672C453.189 268.245 453.338 267.893 453.637 267.616C453.946 267.328 454.341 267.184 454.821 267.184C455.29 267.184 455.674 267.328 455.973 267.616C456.282 267.893 456.437 268.245 456.437 268.672C456.437 269.088 456.282 269.44 455.973 269.728C455.674 270.005 455.29 270.144 454.821 270.144ZM456.181 271.072V280H453.445V271.072H456.181ZM463.604 270.976C464.649 270.976 465.481 271.317 466.1 272C466.729 272.672 467.044 273.6 467.044 274.784V280H464.324V275.152C464.324 274.555 464.169 274.091 463.86 273.76C463.551 273.429 463.135 273.264 462.612 273.264C462.089 273.264 461.673 273.429 461.364 273.76C461.055 274.091 460.9 274.555 460.9 275.152V280H458.164V271.072H460.9V272.256C461.177 271.861 461.551 271.552 462.02 271.328C462.489 271.093 463.017 270.976 463.604 270.976Z" fill="white"/>
<line x1="-4.37114e-08" y1="341.5" x2="509" y2="341.5" stroke="url(#paint1_linear_4_2918)"/>
<path d="M35.48 398.52H30.24L29.4 401H25.82L30.9 386.96H34.86L39.94 401H36.32L35.48 398.52ZM34.6 395.88L32.86 390.74L31.14 395.88H34.6ZM43.2061 388.68C42.6061 388.68 42.1128 388.507 41.7261 388.16C41.3528 387.8 41.1661 387.36 41.1661 386.84C41.1661 386.307 41.3528 385.867 41.7261 385.52C42.1128 385.16 42.6061 384.98 43.2061 384.98C43.7928 384.98 44.2728 385.16 44.6461 385.52C45.0328 385.867 45.2261 386.307 45.2261 386.84C45.2261 387.36 45.0328 387.8 44.6461 388.16C44.2728 388.507 43.7928 388.68 43.2061 388.68ZM44.9061 389.84V401H41.4861V389.84H44.9061ZM54.1845 389.72C55.4912 389.72 56.5312 390.147 57.3045 391C58.0912 391.84 58.4845 393 58.4845 394.48V401H55.0845V394.94C55.0845 394.193 54.8912 393.613 54.5045 393.2C54.1179 392.787 53.5979 392.58 52.9445 392.58C52.2912 392.58 51.7712 392.787 51.3845 393.2C50.9979 393.613 50.8045 394.193 50.8045 394.94V401H47.3845V389.84H50.8045V391.32C51.1512 390.827 51.6179 390.44 52.2045 390.16C52.7912 389.867 53.4512 389.72 54.1845 389.72ZM60.1811 395.4C60.1811 394.253 60.3944 393.247 60.8211 392.38C61.2611 391.513 61.8544 390.847 62.6011 390.38C63.3478 389.913 64.1811 389.68 65.1011 389.68C65.8344 389.68 66.5011 389.833 67.1011 390.14C67.7144 390.447 68.1944 390.86 68.5411 391.38V386.2H71.9611V401H68.5411V399.4C68.2211 399.933 67.7611 400.36 67.1611 400.68C66.5744 401 65.8878 401.16 65.1011 401.16C64.1811 401.16 63.3478 400.927 62.6011 400.46C61.8544 399.98 61.2611 399.307 60.8211 398.44C60.3944 397.56 60.1811 396.547 60.1811 395.4ZM68.5411 395.42C68.5411 394.567 68.3011 393.893 67.8211 393.4C67.3544 392.907 66.7811 392.66 66.1011 392.66C65.4211 392.66 64.8411 392.907 64.3611 393.4C63.8944 393.88 63.6611 394.547 63.6611 395.4C63.6611 396.253 63.8944 396.933 64.3611 397.44C64.8411 397.933 65.4211 398.18 66.1011 398.18C66.7811 398.18 67.3544 397.933 67.8211 397.44C68.3011 396.947 68.5411 396.273 68.5411 395.42ZM73.7553 395.4C73.7553 394.253 73.9686 393.247 74.3953 392.38C74.8353 391.513 75.4286 390.847 76.1753 390.38C76.922 389.913 77.7553 389.68 78.6753 389.68C79.462 389.68 80.1486 389.84 80.7353 390.16C81.3353 390.48 81.7953 390.9 82.1153 391.42V389.84H85.5353V401H82.1153V399.42C81.782 399.94 81.3153 400.36 80.7153 400.68C80.1286 401 79.442 401.16 78.6553 401.16C77.7486 401.16 76.922 400.927 76.1753 400.46C75.4286 399.98 74.8353 399.307 74.3953 398.44C73.9686 397.56 73.7553 396.547 73.7553 395.4ZM82.1153 395.42C82.1153 394.567 81.8753 393.893 81.3953 393.4C80.9286 392.907 80.3553 392.66 79.6753 392.66C78.9953 392.66 78.4153 392.907 77.9353 393.4C77.4686 393.88 77.2353 394.547 77.2353 395.4C77.2353 396.253 77.4686 396.933 77.9353 397.44C78.4153 397.933 78.9953 398.18 79.6753 398.18C80.3553 398.18 80.9286 397.933 81.3953 397.44C81.8753 396.947 82.1153 396.273 82.1153 395.42ZM99.0478 389.72C100.354 389.72 101.394 390.147 102.168 391C102.954 391.84 103.348 393 103.348 394.48V401H99.9478V394.94C99.9478 394.193 99.7545 393.613 99.3678 393.2C98.9811 392.787 98.4611 392.58 97.8078 392.58C97.1545 392.58 96.6345 392.787 96.2478 393.2C95.8611 393.613 95.6678 394.193 95.6678 394.94V401H92.2478V389.84H95.6678V391.32C96.0145 390.827 96.4811 390.44 97.0678 390.16C97.6545 389.867 98.3145 389.72 99.0478 389.72ZM105.044 395.4C105.044 394.253 105.258 393.247 105.684 392.38C106.124 391.513 106.718 390.847 107.464 390.38C108.211 389.913 109.044 389.68 109.964 389.68C110.751 389.68 111.438 389.84 112.024 390.16C112.624 390.48 113.084 390.9 113.404 391.42V389.84H116.824V401H113.404V399.42C113.071 399.94 112.604 400.36 112.004 400.68C111.418 401 110.731 401.16 109.944 401.16C109.038 401.16 108.211 400.927 107.464 400.46C106.718 399.98 106.124 399.307 105.684 398.44C105.258 397.56 105.044 396.547 105.044 395.4ZM113.404 395.42C113.404 394.567 113.164 393.893 112.684 393.4C112.218 392.907 111.644 392.66 110.964 392.66C110.284 392.66 109.704 392.907 109.224 393.4C108.758 393.88 108.524 394.547 108.524 395.4C108.524 396.253 108.758 396.933 109.224 397.44C109.704 397.933 110.284 398.18 110.964 398.18C111.644 398.18 112.218 397.933 112.684 397.44C113.164 396.947 113.404 396.273 113.404 395.42ZM107.344 388.9C107.664 386.927 108.584 385.94 110.104 385.94C110.398 385.94 110.651 385.987 110.864 386.08C111.091 386.16 111.364 386.287 111.684 386.46C111.924 386.593 112.118 386.693 112.264 386.76C112.411 386.813 112.564 386.84 112.724 386.84C113.218 386.84 113.504 386.54 113.584 385.94H115.344C115.024 387.913 114.104 388.9 112.584 388.9C112.291 388.9 112.031 388.86 111.804 388.78C111.591 388.687 111.324 388.553 111.004 388.38C110.764 388.247 110.571 388.153 110.424 388.1C110.278 388.033 110.124 388 109.964 388C109.471 388 109.178 388.3 109.084 388.9H107.344ZM124.379 401.16C123.285 401.16 122.299 400.927 121.419 400.46C120.552 399.993 119.865 399.327 119.359 398.46C118.865 397.593 118.619 396.58 118.619 395.42C118.619 394.273 118.872 393.267 119.379 392.4C119.885 391.52 120.579 390.847 121.459 390.38C122.339 389.913 123.325 389.68 124.419 389.68C125.512 389.68 126.499 389.913 127.379 390.38C128.259 390.847 128.952 391.52 129.459 392.4C129.965 393.267 130.219 394.273 130.219 395.42C130.219 396.567 129.959 397.58 129.439 398.46C128.932 399.327 128.232 399.993 127.339 400.46C126.459 400.927 125.472 401.16 124.379 401.16ZM124.379 398.2C125.032 398.2 125.585 397.96 126.039 397.48C126.505 397 126.739 396.313 126.739 395.42C126.739 394.527 126.512 393.84 126.059 393.36C125.619 392.88 125.072 392.64 124.419 392.64C123.752 392.64 123.199 392.88 122.759 393.36C122.319 393.827 122.099 394.513 122.099 395.42C122.099 396.313 122.312 397 122.739 397.48C123.179 397.96 123.725 398.2 124.379 398.2ZM142.491 398.1V401H140.751C139.511 401 138.545 400.7 137.851 400.1C137.158 399.487 136.811 398.493 136.811 397.12V392.68H135.451V389.84H136.811V387.12H140.231V389.84H142.471V392.68H140.231V397.16C140.231 397.493 140.311 397.733 140.471 397.88C140.631 398.027 140.898 398.1 141.271 398.1H142.491ZM154.916 395.24C154.916 395.56 154.896 395.893 154.856 396.24H147.116C147.17 396.933 147.39 397.467 147.776 397.84C148.176 398.2 148.663 398.38 149.236 398.38C150.09 398.38 150.683 398.02 151.016 397.3H154.656C154.47 398.033 154.13 398.693 153.636 399.28C153.156 399.867 152.55 400.327 151.816 400.66C151.083 400.993 150.263 401.16 149.356 401.16C148.263 401.16 147.29 400.927 146.436 400.46C145.583 399.993 144.916 399.327 144.436 398.46C143.956 397.593 143.716 396.58 143.716 395.42C143.716 394.26 143.95 393.247 144.416 392.38C144.896 391.513 145.563 390.847 146.416 390.38C147.27 389.913 148.25 389.68 149.356 389.68C150.436 389.68 151.396 389.907 152.236 390.36C153.076 390.813 153.73 391.46 154.196 392.3C154.676 393.14 154.916 394.12 154.916 395.24ZM151.416 394.34C151.416 393.753 151.216 393.287 150.816 392.94C150.416 392.593 149.916 392.42 149.316 392.42C148.743 392.42 148.256 392.587 147.856 392.92C147.47 393.253 147.23 393.727 147.136 394.34H151.416ZM170.96 389.72C172.347 389.72 173.447 390.14 174.26 390.98C175.087 391.82 175.5 392.987 175.5 394.48V401H172.1V394.94C172.1 394.22 171.907 393.667 171.52 393.28C171.147 392.88 170.627 392.68 169.96 392.68C169.294 392.68 168.767 392.88 168.38 393.28C168.007 393.667 167.82 394.22 167.82 394.94V401H164.42V394.94C164.42 394.22 164.227 393.667 163.84 393.28C163.467 392.88 162.947 392.68 162.28 392.68C161.614 392.68 161.087 392.88 160.7 393.28C160.327 393.667 160.14 394.22 160.14 394.94V401H156.72V389.84H160.14V391.24C160.487 390.773 160.94 390.407 161.5 390.14C162.06 389.86 162.694 389.72 163.4 389.72C164.24 389.72 164.987 389.9 165.64 390.26C166.307 390.62 166.827 391.133 167.2 391.8C167.587 391.187 168.114 390.687 168.78 390.3C169.447 389.913 170.174 389.72 170.96 389.72ZM193.151 389.84V401H189.731V399.48C189.384 399.973 188.911 400.373 188.311 400.68C187.724 400.973 187.071 401.12 186.351 401.12C185.497 401.12 184.744 400.933 184.091 400.56C183.437 400.173 182.931 399.62 182.571 398.9C182.211 398.18 182.031 397.333 182.031 396.36V389.84H185.431V395.9C185.431 396.647 185.624 397.227 186.011 397.64C186.397 398.053 186.917 398.26 187.571 398.26C188.237 398.26 188.764 398.053 189.151 397.64C189.537 397.227 189.731 396.647 189.731 395.9V389.84H193.151ZM209.847 389.72C211.234 389.72 212.334 390.14 213.147 390.98C213.974 391.82 214.387 392.987 214.387 394.48V401H210.987V394.94C210.987 394.22 210.794 393.667 210.407 393.28C210.034 392.88 209.514 392.68 208.847 392.68C208.181 392.68 207.654 392.88 207.267 393.28C206.894 393.667 206.707 394.22 206.707 394.94V401H203.307V394.94C203.307 394.22 203.114 393.667 202.727 393.28C202.354 392.88 201.834 392.68 201.167 392.68C200.501 392.68 199.974 392.88 199.587 393.28C199.214 393.667 199.027 394.22 199.027 394.94V401H195.607V389.84H199.027V391.24C199.374 390.773 199.827 390.407 200.387 390.14C200.947 389.86 201.581 389.72 202.287 389.72C203.127 389.72 203.874 389.9 204.527 390.26C205.194 390.62 205.714 391.133 206.087 391.8C206.474 391.187 207.001 390.687 207.667 390.3C208.334 389.913 209.061 389.72 209.847 389.72ZM216.099 395.4C216.099 394.253 216.312 393.247 216.739 392.38C217.179 391.513 217.772 390.847 218.519 390.38C219.266 389.913 220.099 389.68 221.019 389.68C221.806 389.68 222.492 389.84 223.079 390.16C223.679 390.48 224.139 390.9 224.459 391.42V389.84H227.879V401H224.459V399.42C224.126 399.94 223.659 400.36 223.059 400.68C222.472 401 221.786 401.16 220.999 401.16C220.092 401.16 219.266 400.927 218.519 400.46C217.772 399.98 217.179 399.307 216.739 398.44C216.312 397.56 216.099 396.547 216.099 395.4ZM224.459 395.42C224.459 394.567 224.219 393.893 223.739 393.4C223.272 392.907 222.699 392.66 222.019 392.66C221.339 392.66 220.759 392.907 220.279 393.4C219.812 393.88 219.579 394.547 219.579 395.4C219.579 396.253 219.812 396.933 220.279 397.44C220.759 397.933 221.339 398.18 222.019 398.18C222.699 398.18 223.272 397.933 223.739 397.44C224.219 396.947 224.459 396.273 224.459 395.42ZM233.912 395.42C233.912 394.26 234.145 393.247 234.612 392.38C235.092 391.513 235.752 390.847 236.592 390.38C237.445 389.913 238.418 389.68 239.512 389.68C240.912 389.68 242.078 390.047 243.012 390.78C243.958 391.513 244.578 392.547 244.872 393.88H241.232C240.925 393.027 240.332 392.6 239.452 392.6C238.825 392.6 238.325 392.847 237.952 393.34C237.578 393.82 237.392 394.513 237.392 395.42C237.392 396.327 237.578 397.027 237.952 397.52C238.325 398 238.825 398.24 239.452 398.24C240.332 398.24 240.925 397.813 241.232 396.96H244.872C244.578 398.267 243.958 399.293 243.012 400.04C242.065 400.787 240.898 401.16 239.512 401.16C238.418 401.16 237.445 400.927 236.592 400.46C235.752 399.993 235.092 399.327 234.612 398.46C234.145 397.593 233.912 396.58 233.912 395.42ZM251.781 401.16C250.688 401.16 249.701 400.927 248.821 400.46C247.954 399.993 247.268 399.327 246.761 398.46C246.268 397.593 246.021 396.58 246.021 395.42C246.021 394.273 246.274 393.267 246.781 392.4C247.288 391.52 247.981 390.847 248.861 390.38C249.741 389.913 250.728 389.68 251.821 389.68C252.914 389.68 253.901 389.913 254.781 390.38C255.661 390.847 256.354 391.52 256.861 392.4C257.368 393.267 257.621 394.273 257.621 395.42C257.621 396.567 257.361 397.58 256.841 398.46C256.334 399.327 255.634 399.993 254.741 400.46C253.861 400.927 252.874 401.16 251.781 401.16ZM251.781 398.2C252.434 398.2 252.988 397.96 253.441 397.48C253.908 397 254.141 396.313 254.141 395.42C254.141 394.527 253.914 393.84 253.461 393.36C253.021 392.88 252.474 392.64 251.821 392.64C251.154 392.64 250.601 392.88 250.161 393.36C249.721 393.827 249.501 394.513 249.501 395.42C249.501 396.313 249.714 397 250.141 397.48C250.581 397.96 251.128 398.2 251.781 398.2ZM266.235 389.72C267.542 389.72 268.582 390.147 269.355 391C270.142 391.84 270.535 393 270.535 394.48V401H267.135V394.94C267.135 394.193 266.942 393.613 266.555 393.2C266.169 392.787 265.649 392.58 264.995 392.58C264.342 392.58 263.822 392.787 263.435 393.2C263.049 393.613 262.855 394.193 262.855 394.94V401H259.435V389.84H262.855V391.32C263.202 390.827 263.669 390.44 264.255 390.16C264.842 389.867 265.502 389.72 266.235 389.72ZM279.132 398.1V401H277.392C276.152 401 275.185 400.7 274.492 400.1C273.799 399.487 273.452 398.493 273.452 397.12V392.68H272.092V389.84H273.452V387.12H276.872V389.84H279.112V392.68H276.872V397.16C276.872 397.493 276.952 397.733 277.112 397.88C277.272 398.027 277.539 398.1 277.912 398.1H279.132ZM280.357 395.4C280.357 394.253 280.57 393.247 280.997 392.38C281.437 391.513 282.03 390.847 282.777 390.38C283.524 389.913 284.357 389.68 285.277 389.68C286.064 389.68 286.75 389.84 287.337 390.16C287.937 390.48 288.397 390.9 288.717 391.42V389.84H292.137V401H288.717V399.42C288.384 399.94 287.917 400.36 287.317 400.68C286.73 401 286.044 401.16 285.257 401.16C284.35 401.16 283.524 400.927 282.777 400.46C282.03 399.98 281.437 399.307 280.997 398.44C280.57 397.56 280.357 396.547 280.357 395.4ZM288.717 395.42C288.717 394.567 288.477 393.893 287.997 393.4C287.53 392.907 286.957 392.66 286.277 392.66C285.597 392.66 285.017 392.907 284.537 393.4C284.07 393.88 283.837 394.547 283.837 395.4C283.837 396.253 284.07 396.933 284.537 397.44C285.017 397.933 285.597 398.18 286.277 398.18C286.957 398.18 287.53 397.933 287.997 397.44C288.477 396.947 288.717 396.273 288.717 395.42ZM298.711 386.18C300.138 386.18 301.278 386.553 302.131 387.3C302.998 388.047 303.431 389.1 303.431 390.46C303.431 391.713 303.018 392.693 302.191 393.4C301.378 394.093 300.298 394.447 298.951 394.46L298.851 395.96H295.851L295.751 392.24H296.951C297.978 392.24 298.758 392.113 299.291 391.86C299.838 391.607 300.111 391.147 300.111 390.48C300.111 390.013 299.984 389.647 299.731 389.38C299.478 389.113 299.124 388.98 298.671 388.98C298.191 388.98 297.818 389.12 297.551 389.4C297.284 389.667 297.151 390.033 297.151 390.5H293.931C293.904 389.687 294.071 388.953 294.431 388.3C294.804 387.647 295.351 387.133 296.071 386.76C296.804 386.373 297.684 386.18 298.711 386.18ZM297.391 401.16C296.791 401.16 296.298 400.987 295.911 400.64C295.538 400.28 295.351 399.84 295.351 399.32C295.351 398.787 295.538 398.34 295.911 397.98C296.298 397.62 296.791 397.44 297.391 397.44C297.978 397.44 298.458 397.62 298.831 397.98C299.218 398.34 299.411 398.787 299.411 399.32C299.411 399.84 299.218 400.28 298.831 400.64C298.458 400.987 297.978 401.16 297.391 401.16Z" fill="url(#paint2_linear_4_2918)"/>
<rect width="128" height="40" transform="translate(355.5 374)" fill="#EB9B00"/>
<path d="M373.598 394.368C373.598 393.259 373.838 392.272 374.318 391.408C374.798 390.533 375.465 389.856 376.318 389.376C377.182 388.885 378.158 388.64 379.246 388.64C380.58 388.64 381.721 388.992 382.67 389.696C383.62 390.4 384.254 391.36 384.574 392.576H381.566C381.342 392.107 381.022 391.749 380.606 391.504C380.201 391.259 379.737 391.136 379.214 391.136C378.372 391.136 377.689 391.429 377.166 392.016C376.644 392.603 376.382 393.387 376.382 394.368C376.382 395.349 376.644 396.133 377.166 396.72C377.689 397.307 378.372 397.6 379.214 397.6C379.737 397.6 380.201 397.477 380.606 397.232C381.022 396.987 381.342 396.629 381.566 396.16H384.574C384.254 397.376 383.62 398.336 382.67 399.04C381.721 399.733 380.58 400.08 379.246 400.08C378.158 400.08 377.182 399.84 376.318 399.36C375.465 398.869 374.798 398.192 374.318 397.328C373.838 396.464 373.598 395.477 373.598 394.368ZM388.986 392.56C389.306 392.069 389.706 391.685 390.186 391.408C390.666 391.12 391.199 390.976 391.786 390.976V393.872H391.034C390.351 393.872 389.839 394.021 389.498 394.32C389.156 394.608 388.986 395.12 388.986 395.856V400H386.25V391.072H388.986V392.56ZM394.47 390.144C393.99 390.144 393.595 390.005 393.286 389.728C392.987 389.44 392.838 389.088 392.838 388.672C392.838 388.245 392.987 387.893 393.286 387.616C393.595 387.328 393.99 387.184 394.47 387.184C394.939 387.184 395.323 387.328 395.622 387.616C395.931 387.893 396.086 388.245 396.086 388.672C396.086 389.088 395.931 389.44 395.622 389.728C395.323 390.005 394.939 390.144 394.47 390.144ZM395.83 391.072V400H393.094V391.072H395.83ZM397.268 395.52C397.268 394.603 397.439 393.797 397.78 393.104C398.132 392.411 398.607 391.877 399.204 391.504C399.802 391.131 400.468 390.944 401.204 390.944C401.834 390.944 402.383 391.072 402.852 391.328C403.332 391.584 403.7 391.92 403.956 392.336V391.072H406.692V400H403.956V398.736C403.69 399.152 403.316 399.488 402.836 399.744C402.367 400 401.818 400.128 401.188 400.128C400.463 400.128 399.802 399.941 399.204 399.568C398.607 399.184 398.132 398.645 397.78 397.952C397.439 397.248 397.268 396.437 397.268 395.52ZM403.956 395.536C403.956 394.853 403.764 394.315 403.38 393.92C403.007 393.525 402.548 393.328 402.004 393.328C401.46 393.328 400.996 393.525 400.612 393.92C400.239 394.304 400.052 394.837 400.052 395.52C400.052 396.203 400.239 396.747 400.612 397.152C400.996 397.547 401.46 397.744 402.004 397.744C402.548 397.744 403.007 397.547 403.38 397.152C403.764 396.757 403.956 396.219 403.956 395.536ZM411.408 392.56C411.728 392.069 412.128 391.685 412.608 391.408C413.088 391.12 413.621 390.976 414.208 390.976V393.872H413.456C412.773 393.872 412.261 394.021 411.92 394.32C411.578 394.608 411.408 395.12 411.408 395.856V400H408.672V391.072H411.408V392.56ZM418.362 395.536C418.362 394.608 418.549 393.797 418.922 393.104C419.306 392.411 419.834 391.877 420.506 391.504C421.189 391.131 421.967 390.944 422.842 390.944C423.962 390.944 424.895 391.237 425.642 391.824C426.399 392.411 426.895 393.237 427.13 394.304H424.218C423.973 393.621 423.498 393.28 422.794 393.28C422.293 393.28 421.893 393.477 421.594 393.872C421.295 394.256 421.146 394.811 421.146 395.536C421.146 396.261 421.295 396.821 421.594 397.216C421.893 397.6 422.293 397.792 422.794 397.792C423.498 397.792 423.973 397.451 424.218 396.768H427.13C426.895 397.813 426.399 398.635 425.642 399.232C424.885 399.829 423.951 400.128 422.842 400.128C421.967 400.128 421.189 399.941 420.506 399.568C419.834 399.195 419.306 398.661 418.922 397.968C418.549 397.275 418.362 396.464 418.362 395.536ZM432.658 400.128C431.783 400.128 430.994 399.941 430.29 399.568C429.596 399.195 429.047 398.661 428.642 397.968C428.247 397.275 428.05 396.464 428.05 395.536C428.05 394.619 428.252 393.813 428.658 393.12C429.063 392.416 429.618 391.877 430.322 391.504C431.026 391.131 431.815 390.944 432.69 390.944C433.564 390.944 434.354 391.131 435.058 391.504C435.762 391.877 436.316 392.416 436.722 393.12C437.127 393.813 437.33 394.619 437.33 395.536C437.33 396.453 437.122 397.264 436.706 397.968C436.3 398.661 435.74 399.195 435.026 399.568C434.322 399.941 433.532 400.128 432.658 400.128ZM432.658 397.76C433.18 397.76 433.623 397.568 433.986 397.184C434.359 396.8 434.546 396.251 434.546 395.536C434.546 394.821 434.364 394.272 434.002 393.888C433.65 393.504 433.212 393.312 432.69 393.312C432.156 393.312 431.714 393.504 431.362 393.888C431.01 394.261 430.834 394.811 430.834 395.536C430.834 396.251 431.004 396.8 431.346 397.184C431.698 397.568 432.135 397.76 432.658 397.76ZM444.221 390.976C445.266 390.976 446.098 391.317 446.717 392C447.346 392.672 447.661 393.6 447.661 394.784V400H444.941V395.152C444.941 394.555 444.786 394.091 444.477 393.76C444.168 393.429 443.752 393.264 443.229 393.264C442.706 393.264 442.29 393.429 441.981 393.76C441.672 394.091 441.517 394.555 441.517 395.152V400H438.781V391.072H441.517V392.256C441.794 391.861 442.168 391.552 442.637 391.328C443.106 391.093 443.634 390.976 444.221 390.976ZM454.538 397.68V400H453.146C452.154 400 451.381 399.76 450.826 399.28C450.272 398.789 449.994 397.995 449.994 396.896V393.344H448.906V391.072H449.994V388.896H452.73V391.072H454.522V393.344H452.73V396.928C452.73 397.195 452.794 397.387 452.922 397.504C453.05 397.621 453.264 397.68 453.562 397.68H454.538ZM455.518 395.52C455.518 394.603 455.689 393.797 456.03 393.104C456.382 392.411 456.857 391.877 457.454 391.504C458.052 391.131 458.718 390.944 459.454 390.944C460.084 390.944 460.633 391.072 461.102 391.328C461.582 391.584 461.95 391.92 462.206 392.336V391.072H464.942V400H462.206V398.736C461.94 399.152 461.566 399.488 461.086 399.744C460.617 400 460.068 400.128 459.438 400.128C458.713 400.128 458.052 399.941 457.454 399.568C456.857 399.184 456.382 398.645 456.03 397.952C455.689 397.248 455.518 396.437 455.518 395.52ZM462.206 395.536C462.206 394.853 462.014 394.315 461.63 393.92C461.257 393.525 460.798 393.328 460.254 393.328C459.71 393.328 459.246 393.525 458.862 393.92C458.489 394.304 458.302 394.837 458.302 395.52C458.302 396.203 458.489 396.747 458.862 397.152C459.246 397.547 459.71 397.744 460.254 397.744C460.798 397.744 461.257 397.547 461.63 397.152C462.014 396.757 462.206 396.219 462.206 395.536Z" fill="white"/>
<defs>
<linearGradient id="paint0_linear_4_2918" x1="491.466" y1="4.42699" x2="518.447" y2="7.99959" gradientUnits="userSpaceOnUse">
<stop stop-color="#002F52"/>
<stop offset="1" stop-color="#326589"/>
</linearGradient>
<linearGradient id="paint1_linear_4_2918" x1="212.672" y1="341.88" x2="212.837" y2="352.985" gradientUnits="userSpaceOnUse">
<stop stop-color="#002F52"/>
<stop offset="1" stop-color="#326589"/>
</linearGradient>
<linearGradient id="paint2_linear_4_2918" x1="142.073" y1="375.4" x2="305.139" y2="576.204" gradientUnits="userSpaceOnUse">
<stop stop-color="#002F52"/>
<stop offset="1" stop-color="#326589"/>
</linearGradient>
<clipPath id="clip0_4_2918">
<rect width="32" height="32" fill="white" transform="translate(477)"/>
</clipPath>
<clipPath id="clip1_4_2918">
<rect width="24" height="24" fill="white" transform="translate(461 205)"/>
</clipPath>
</defs>
</svg>
