<svg width="32" height="33" viewBox="0 0 32 33" fill="none" xmlns="http://www.w3.org/2000/svg">
<g clip-path="url(#clip0_4_3024)">
<path d="M21.9998 4.43359C19.6798 4.43359 17.4532 5.51359 15.9998 7.22026C14.5465 5.51359 12.3198 4.43359 9.99984 4.43359C5.89317 4.43359 2.6665 7.66026 2.6665 11.7669C2.6665 16.8069 7.19984 20.9136 14.0665 27.1536L15.9998 28.9003L17.9332 27.1403C24.7998 20.9136 29.3332 16.8069 29.3332 11.7669C29.3332 7.66026 26.1065 4.43359 21.9998 4.43359ZM16.1332 25.1669L15.9998 25.3003L15.8665 25.1669C9.51984 19.4203 5.33317 15.6203 5.33317 11.7669C5.33317 9.10026 7.33317 7.10026 9.99984 7.10026C12.0532 7.10026 14.0532 8.42026 14.7598 10.2469H17.2532C17.9465 8.42026 19.9465 7.10026 21.9998 7.10026C24.6665 7.10026 26.6665 9.10026 26.6665 11.7669C26.6665 15.6203 22.4798 19.4203 16.1332 25.1669Z" fill="url(#paint0_linear_4_3024)"/>
</g>
<defs>
<linearGradient id="paint0_linear_4_3024" x1="13.8085" y1="1.49758" x2="52.2285" y2="7.04227" gradientUnits="userSpaceOnUse">
<stop stop-color="#002F52"/>
<stop offset="1" stop-color="#326589"/>
</linearGradient>
<clipPath id="clip0_4_3024">
<rect width="32" height="32" fill="white" transform="translate(0 0.433594)"/>
</clipPath>
</defs>
</svg>
