<svg width="509" height="212" viewBox="0 0 509 212" fill="none" xmlns="http://www.w3.org/2000/svg">
<rect x="0.5" y="0.5" width="508" height="211" rx="7.5" stroke="#C4C4C4"/>
<path fill-rule="evenodd" clip-rule="evenodd" d="M111.08 60.3597C113.188 58.471 113.164 55.0434 111.717 54.0589C110.271 53.0744 107 53.8597 105.934 56.6765C104.87 59.4933 104.783 61.2102 104.2 62.7429C105.42 62.6468 108.972 62.2484 111.08 60.3597ZM97.29 71.2091C99.3586 64.4888 101.329 57.6698 102.816 50.6357C103.976 50.6357 105.3 50.6657 106.459 50.6657L106.022 53.3212C108.966 51.2782 110.905 50.7486 112.836 50.9178C119.818 51.5277 116.065 61.338 112.375 63.6956C110.21 65.0802 107.277 65.6972 103.225 65.0811C102.747 67.1241 102.27 69.167 101.793 71.2091C100.292 71.2091 98.7908 71.2091 97.29 71.2091Z" fill="#221F20"/>
<path fill-rule="evenodd" clip-rule="evenodd" d="M123.556 55.6848C121.723 57.5726 121.744 61.0011 123.002 61.9856C124.26 62.97 127.106 62.1848 128.032 59.368C128.959 56.552 129.034 54.8343 129.541 53.3016C128.48 53.3977 125.389 53.7969 123.556 55.6848ZM131.424 65.4484C130.11 65.4484 128.962 65.4775 127.649 65.4775L127.894 62.4342C125.194 65.1629 120.818 66.9661 118.81 64.3952C116.06 60.3771 118.665 55.1516 121.764 53.0055C125.204 50.6223 129.772 50.7457 134.323 50.6426C132.694 55.4856 131.6 60.4511 131.424 65.4484Z" fill="#221F20"/>
<path fill-rule="evenodd" clip-rule="evenodd" d="M139.841 55.6848C138.007 57.5726 138.028 61.0011 139.286 61.9856C140.545 62.97 143.391 62.1848 144.317 59.368C145.244 56.552 145.319 54.8343 145.826 53.3016C144.765 53.3977 141.675 53.7969 139.841 55.6848ZM132.92 71.3226L133.581 67.5672C136.515 68.5834 139.062 69.0725 140.976 68.0457C142.464 67.2472 143.571 65.5312 144.178 62.4342C141.479 65.1628 137.102 66.9661 135.096 64.3952C132.345 60.3771 134.95 55.1516 138.049 53.0055C141.489 50.6223 146.057 50.7457 150.609 50.6426C149.199 54.8316 149.173 61.4048 147.301 66.0821C146.314 68.5516 144.653 70.1372 142.666 71.045C139.761 72.3705 136.155 72.2489 132.92 71.3226Z" fill="#221F20"/>
<path fill-rule="evenodd" clip-rule="evenodd" d="M184.933 55.6853C183.101 57.5732 183.121 61.0016 184.378 61.9861C185.637 62.9706 188.482 62.1853 189.41 59.3685C190.336 56.5526 190.411 54.8348 190.919 53.3021C189.857 53.3982 186.767 53.7975 184.933 55.6853ZM151.307 61.7587C150.868 62.7714 150.376 63.8431 149.939 64.8558C155.278 66.0985 159.366 65.3485 160.978 63.5117C162.553 61.4344 162.289 59.0829 159.557 57.3749C158.975 56.9421 157.329 56.0696 157.371 55.0375C157.449 52.6887 160.788 53.2475 162.838 53.927L163.491 50.7119C162.059 50.3567 160.24 50.2509 158.779 50.4043C157.001 50.5902 155.086 51.4125 153.602 52.991C152.449 54.2716 152.212 55.9964 152.634 57.0461C153.14 58.3056 154.785 58.8344 155.623 59.3606C157.026 60.0595 157.862 60.5874 157.624 61.6494C157.424 62.5422 156.407 63.272 154.588 62.9247C153.458 62.7088 152.138 62.2787 151.307 61.7587ZM168.875 56.8496C169.535 55.2887 170.651 53.7102 172.92 53.4009C174.705 53.2158 174.896 55.2288 173.847 56.0035C171.941 56.8813 171.729 55.6774 168.875 56.8496ZM176.279 62.0504C176.171 63.0243 175.842 63.9982 175.734 64.973C171.49 65.5961 166.935 66.6467 164.585 63.1028C162.152 58.0861 165.661 53.4908 168.738 51.7651C174.14 49.1739 177.891 50.4933 178.684 53.051C180.286 57.5362 175.333 60.4957 168.191 59.5959C167.447 63.4959 171.173 63.4377 176.279 62.0504ZM198.685 50.5955C199.996 50.6352 201.308 50.674 202.62 50.7127C201.926 53.8292 200.797 56.8293 200.106 59.9467C199.081 63.7382 203.308 63.3443 205.133 60.9981C206.757 57.9442 207.484 54.2787 208.522 50.5955C209.833 50.5955 211.144 50.5955 212.456 50.5955C210.971 55.4659 209.677 60.3362 209.068 65.2066C207.902 65.1281 206.517 65.0506 205.352 64.973C205.389 64.193 205.424 63.4139 205.461 62.6348C201.519 66.5074 195.031 67.5298 195.843 60.9981C196.309 57.5309 197.625 54.0636 198.685 50.5955ZM211.472 64.973C213.23 60.1987 214.413 54.1059 215.297 50.7127H218.468L218.357 53.7516C219.742 51.7069 222.256 50.577 224.807 50.7127L223.604 54.5704C220.434 54.1253 218.199 56.8381 216.963 61.3216C216.649 62.4638 216.397 63.7215 216.214 65.07L211.472 64.973ZM227.649 52.5248C223.641 55.3971 222.033 60.2384 224.06 63.3363C226.087 66.4343 230.98 66.6176 234.987 63.7453C238.996 60.8738 240.603 56.0317 238.578 52.9337C236.551 49.8358 231.658 49.6525 227.649 52.5248ZM228.802 56.9307C227.508 59.4046 227.671 62.0293 229.166 62.7917C230.661 63.5531 232.921 62.165 234.217 59.6902C235.511 57.2162 235.349 54.5924 233.854 53.8292C232.359 53.0677 230.097 54.4558 228.802 56.9307ZM178.013 71.3231L178.673 67.5677C181.607 68.5839 184.154 69.073 186.068 68.0463C187.556 67.2478 188.663 65.5318 189.269 62.4347C186.57 65.1634 182.194 66.9666 180.188 64.3957C177.437 60.3776 180.042 55.1521 183.141 53.006C186.581 50.6228 191.149 50.7462 195.701 50.6431C194.291 54.8322 194.265 61.4053 192.393 66.0826C191.405 68.5522 189.746 70.1377 187.759 71.0455C184.853 72.3711 181.247 72.2494 178.013 71.3231Z" fill="#A5CE39"/>
<path fill-rule="evenodd" clip-rule="evenodd" d="M60.6331 45.4392C59.2667 47.1569 58.2366 49.1109 57.4825 51.2481C56.6913 53.4709 56.2686 55.7554 56.2686 58.1914C56.2686 60.9518 56.8191 63.5086 57.766 65.9244C58.7088 68.3226 59.9977 70.384 61.6946 72.1952C63.3454 73.9606 65.2796 75.3725 67.5155 76.4001C69.7505 77.4437 72.1809 78.0183 74.7011 78.0183C77.2649 78.0183 79.6557 77.4683 81.9311 76.4001C84.1085 75.3839 86.0732 73.9941 87.752 72.1952C89.4151 70.414 90.6974 68.3102 91.6196 65.9244C92.5872 63.4839 93.136 60.9518 93.136 58.1914C93.136 55.7554 92.7091 53.4709 91.9204 51.2481C91.149 49.1109 90.1271 47.1992 88.7698 45.4392C87.4116 43.717 85.84 42.2919 84.0591 41.1902C81.262 39.4636 78.3767 38.4307 75.0324 38.4307C74.87 38.4307 74.7118 38.4307 74.5527 38.4307C71.2521 38.4307 68.2283 39.4416 65.3851 41.1902C63.5852 42.2839 61.9971 43.7241 60.6331 45.4392Z" fill="#221F20"/>
<path fill-rule="evenodd" clip-rule="evenodd" d="M226.743 72.1946C227.211 72.1946 227.583 72.355 227.86 72.7111C228.141 73.0495 228.291 73.4875 228.291 74.0648C228.291 74.6007 228.141 75.0616 227.86 75.3816C227.583 75.7138 227.211 75.8742 226.743 75.8742C226.283 75.8742 225.927 75.7209 225.65 75.3816C225.351 75.0616 225.219 74.6007 225.219 74.0648C225.219 73.4875 225.351 73.0495 225.65 72.7111C225.927 72.355 226.283 72.1946 226.743 72.1946ZM226.743 68.9336C226.06 68.9336 225.428 69.0499 224.828 69.309C224.235 69.569 223.713 69.9234 223.269 70.4046C222.821 70.884 222.47 71.4199 222.245 72.0351C222.002 72.6564 221.895 73.3333 221.895 74.0648C221.895 74.7602 222.002 75.4371 222.245 76.0584C222.47 76.6489 222.821 77.2104 223.269 77.6898C223.736 78.1446 224.253 78.5201 224.852 78.7783C225.428 79.018 226.077 79.159 226.743 79.159C227.435 79.159 228.05 79.018 228.666 78.7783C229.241 78.5201 229.776 78.1446 230.225 77.6898C230.69 77.2104 231.024 76.6489 231.267 76.0329C231.508 75.4186 231.623 74.7611 231.623 74.0648C231.623 73.3333 231.508 72.6564 231.267 72.0351C231.042 71.4199 230.708 70.884 230.241 70.4046C229.8 69.9234 229.257 69.569 228.666 69.309C228.068 69.0499 227.435 68.9336 226.743 68.9336Z" fill="#221F20"/>
<path fill-rule="evenodd" clip-rule="evenodd" d="M220.387 76.1568C220.462 75.6941 220.494 75.123 220.494 74.4223V69.1475H217.222V74.4647C217.222 75.0613 217.164 75.48 217.016 75.7391C216.866 75.9788 216.647 76.0952 216.307 76.0952C215.973 76.0952 215.751 75.9788 215.606 75.7391C215.473 75.5161 215.398 75.0807 215.398 74.4647V69.1475H212.143V74.4223C212.124 75.16 212.181 75.7206 212.256 76.1568C212.325 76.6125 212.476 76.9686 212.643 77.2709C213.018 77.8843 213.517 78.3417 214.15 78.6616C214.767 79.0001 215.491 79.1587 216.307 79.1587C217.13 79.1587 217.838 79.0001 218.465 78.6616C219.098 78.3417 219.604 77.8843 219.954 77.2709C220.138 76.9686 220.289 76.5931 220.387 76.1568Z" fill="#221F20"/>
<path fill-rule="evenodd" clip-rule="evenodd" d="M236.272 69.1475H232.997V78.9005H239.453V75.7391H236.272V69.1475Z" fill="#221F20"/>
<path fill-rule="evenodd" clip-rule="evenodd" d="M87.0177 45.6021C84.7341 42.6346 81.7796 40.7238 78.1328 39.9861C74.5528 39.2652 71.1615 39.8424 67.9507 41.7047C66.3007 42.6963 64.9063 43.9337 63.7822 45.3923C62.6259 46.8844 61.7417 48.6004 61.1722 50.5253C60.587 52.4986 60.4371 54.5698 60.6332 56.589C61.1128 55.2908 61.8471 54.1001 62.7199 52.9631C63.9775 51.3582 65.5384 50.156 67.279 49.2738C69.0163 48.4391 70.9225 47.9738 72.902 47.9262C74.8948 47.9262 76.8315 48.3422 78.6281 49.1786C80.5219 49.9974 82.1718 51.248 83.5786 52.9164C84.1053 53.4778 84.542 54.1503 84.9739 54.8245C85.6027 54.8245 86.2348 54.8712 86.7746 55.0343C88.1847 55.4503 89.2965 56.2197 90.1659 57.3752L90.2079 56.6357C90.3612 54.6148 90.1659 52.7066 89.6418 50.8294C89.1003 48.968 88.2276 47.2035 87.0177 45.6021Z" fill="#F3A935"/>
<path fill-rule="evenodd" clip-rule="evenodd" d="M60.2405 64.2722C60.4803 65.8287 60.9171 67.319 61.6481 68.6825C62.3272 70.0318 63.2552 71.2649 64.4106 72.3568L64.9957 72.8707C66.9918 74.3311 69.1189 75.3728 71.447 75.8867C72.9478 76.1898 74.4609 76.0938 75.9163 75.7263C77.4599 75.3728 78.9178 74.6995 80.2817 73.7044C79.0208 73.3995 77.8967 72.6759 77.0239 71.5865L76.6811 71.1705C74.8507 71.3785 73.0071 71.3151 71.1611 70.9141C68.8189 70.3377 66.7957 69.2933 64.9059 67.8505C63.1052 66.3901 61.6077 64.5278 60.4803 62.3491L60.1952 61.7207C60.1507 62.5553 60.1507 63.4358 60.2405 64.2722Z" fill="#F3A935"/>
<path fill-rule="evenodd" clip-rule="evenodd" d="M77.504 51.1993C75.8112 50.4131 73.9627 50.0605 72.0763 50.0605C70.231 50.1073 68.4896 50.525 66.8859 51.3579C65.2797 52.13 63.8877 53.2687 62.7199 54.7291C61.8917 55.8202 61.2159 57.0074 60.7832 58.2571C61.1129 59.8127 61.6485 61.2555 62.4331 62.7167C63.5424 64.7368 64.9962 66.4519 66.7961 67.8004C68.5366 69.1471 70.5327 70.0311 72.6589 70.5414C73.9627 70.8005 75.3307 70.9133 76.6815 70.8463C76.1565 69.9191 75.8112 68.94 75.6612 67.8004C75.4799 66.6476 75.5277 65.5071 75.7197 64.2715C75.9596 62.7635 76.4862 61.3674 77.2172 60.0683C78.0026 58.7692 79.0212 57.5829 80.2187 56.6354C81.0008 56.0282 81.8257 55.5628 82.6515 55.1918L82.2147 54.663C80.8508 53.1726 79.3047 51.9687 77.504 51.1993Z" fill="#D94937"/>
<path fill-rule="evenodd" clip-rule="evenodd" d="M90.4633 60.0685L90.0315 59.2832C89.3994 61.6241 88.2275 63.6961 86.73 65.5725C86.3847 67.1263 85.7996 68.5224 85.0364 69.8224C84.2551 71.1048 83.2332 72.2602 82.0654 73.2394C82.8912 73.2861 83.7162 73.1442 84.5419 72.8208C85.3191 72.5167 86.0394 72.0522 86.7745 71.4238C87.7519 70.4473 88.6667 69.2927 89.4455 68.1064L89.579 67.8984C89.9243 67.1263 90.2713 66.3428 90.5078 65.6184C90.7501 64.8331 90.9001 64.0637 90.9463 63.3445C90.9908 62.5548 90.9908 61.8805 90.8556 61.2081C90.7501 60.793 90.6001 60.4228 90.4633 60.0685Z" fill="#EE8A30"/>
<path fill-rule="evenodd" clip-rule="evenodd" d="M58.5438 50.9399C57.915 52.8058 57.5722 54.7747 57.4823 56.9111C57.4378 59.6503 57.915 62.2988 58.8924 64.7877C59.3688 65.9714 59.958 67.1268 60.6742 68.2197C61.3689 69.2456 62.1313 70.2415 62.9999 71.1053C61.1126 68.8754 59.9976 66.2931 59.6589 63.3908C59.5666 62.3975 59.5666 61.4668 59.6119 60.4876C58.9831 58.6077 58.6378 56.7498 58.6378 54.8249C58.6378 53.0138 58.9353 51.2484 59.4619 49.4328C59.9111 48.1848 60.4805 46.9959 61.1126 45.9092C59.9976 47.4639 59.1792 49.1305 58.5438 50.9399Z" fill="#E36B34"/>
<path fill-rule="evenodd" clip-rule="evenodd" d="M91.6654 52.0337C91.2294 50.5257 90.6599 49.0653 89.924 47.7186C89.2053 46.4195 88.3178 45.2305 87.2563 44.1438C86.2945 43.0501 85.1704 42.1194 83.9111 41.335C84.9734 42.1194 85.9476 43.0501 86.8195 44.0936C88.1842 45.7461 89.2053 47.5106 89.8342 49.4839C90.463 51.5031 90.7498 53.591 90.5998 55.7556C90.5561 56.4299 90.463 57.0539 90.3608 57.7281C90.5998 58.145 90.8553 58.657 91.0514 59.1867C91.5286 60.6956 91.6192 62.2988 91.3794 63.9037C92.1145 61.6765 92.4879 59.3295 92.4434 56.9111C92.3527 55.2427 92.1145 53.591 91.6654 52.0337Z" fill="#E36B34"/>
<path fill-rule="evenodd" clip-rule="evenodd" d="M85.9482 56.958C86.4295 58.0482 86.7303 59.2372 86.8639 60.4235C87.018 61.6248 87.06 62.7643 86.9702 63.9039L86.7748 65.0435C88.2278 63.2323 89.206 61.2088 89.7763 58.8653C89.4459 58.5145 89.1005 58.1452 88.7074 57.842C87.9286 57.263 87.018 56.958 85.9482 56.958Z" fill="#E36B34"/>
<path fill-rule="evenodd" clip-rule="evenodd" d="M83.041 70.6405C83.6261 69.7565 84.1049 68.7817 84.4502 67.8008C82.4987 69.2929 80.3716 70.3373 78.0459 70.8467C78.3764 71.424 78.8239 71.892 79.3043 72.2604C79.7865 72.613 80.3246 72.8703 80.9534 73.0792C81.7355 72.3565 82.4542 71.521 83.041 70.6405Z" fill="#D94937"/>
<path fill-rule="evenodd" clip-rule="evenodd" d="M73.2881 76.1896L75.3773 76.3015C77.1763 76.2548 78.8674 75.8864 80.5215 75.3073C82.0651 74.7459 83.5782 73.9606 84.8869 72.9814C84.0586 73.3992 83.1892 73.7042 82.262 73.7509C81.9752 73.8143 81.6291 73.8143 81.3003 73.8143C78.9177 75.4686 76.2426 76.2548 73.2881 76.1896Z" fill="#D94937"/>
<path fill-rule="evenodd" clip-rule="evenodd" d="M84.8399 61.1595C84.5424 59.8128 84.1056 58.5639 83.4768 57.375C82.365 57.7275 81.3901 58.3542 80.4745 59.1862C79.5004 60.0684 78.6762 61.1595 78.0466 62.3969C77.5043 63.6449 77.1771 64.833 77.0717 66.0827C76.9373 67.2699 77.0717 68.3628 77.3708 69.4046C77.5043 69.7562 77.6106 70.077 77.8076 70.3837C79.0216 70.241 80.13 69.8699 81.2418 69.3561C82.4087 68.8749 83.4768 68.2191 84.4954 67.3854L84.5853 67.3184C84.7822 66.5481 84.9314 65.7637 85.0369 64.9908C85.1234 63.6961 85.0797 62.4578 84.8399 61.1595Z" fill="#FBE638"/>
<g clip-path="url(#clip0_4_2526)">
<path d="M448.875 64.875L455.75 58L448.875 51.125L446.936 53.0637L450.484 56.625H437.875V59.375H450.484L446.936 62.9363L448.875 64.875Z" fill="#002F52"/>
<path d="M451.625 67.625H432.375V48.375H451.625V51.125H454.375V48.375C454.375 46.8625 453.151 45.625 451.625 45.625H432.375C430.862 45.625 429.625 46.8625 429.625 48.375V67.625C429.625 69.1375 430.862 70.375 432.375 70.375H451.625C453.151 70.375 454.375 69.1375 454.375 67.625V64.875H451.625V67.625Z" fill="#002F52"/>
</g>
<path d="M79.6785 122.242C80.7425 122.242 81.6618 122.443 82.4365 122.844C83.2205 123.236 83.8178 123.801 84.2285 124.538C84.6485 125.275 84.8585 126.143 84.8585 127.142C84.8585 128.141 84.6485 129.009 84.2285 129.746C83.8178 130.474 83.2205 131.034 82.4365 131.426C81.6618 131.809 80.7425 132 79.6785 132H76.6405V122.242H79.6785ZM79.6785 130.95C80.9385 130.95 81.8998 130.619 82.5625 129.956C83.2252 129.284 83.5565 128.346 83.5565 127.142C83.5565 125.929 83.2205 124.981 82.5485 124.3C81.8858 123.619 80.9292 123.278 79.6785 123.278H77.9145V130.95H79.6785ZM93.5389 127.87C93.5389 128.113 93.5249 128.369 93.4969 128.64H87.3649C87.4116 129.396 87.6683 129.989 88.1349 130.418C88.6109 130.838 89.1849 131.048 89.8569 131.048C90.4076 131.048 90.8649 130.922 91.2289 130.67C91.6023 130.409 91.8636 130.063 92.0129 129.634H93.3849C93.1796 130.371 92.7689 130.973 92.1529 131.44C91.5369 131.897 90.7716 132.126 89.8569 132.126C89.1289 132.126 88.4756 131.963 87.8969 131.636C87.3276 131.309 86.8796 130.847 86.5529 130.25C86.2263 129.643 86.0629 128.943 86.0629 128.15C86.0629 127.357 86.2216 126.661 86.5389 126.064C86.8563 125.467 87.2996 125.009 87.8689 124.692C88.4476 124.365 89.1103 124.202 89.8569 124.202C90.5849 124.202 91.2289 124.361 91.7889 124.678C92.3489 124.995 92.7783 125.434 93.0769 125.994C93.3849 126.545 93.5389 127.17 93.5389 127.87ZM92.2229 127.604C92.2229 127.119 92.1156 126.703 91.9009 126.358C91.6863 126.003 91.3923 125.737 91.0189 125.56C90.6549 125.373 90.2489 125.28 89.8009 125.28C89.1569 125.28 88.6063 125.485 88.1489 125.896C87.7009 126.307 87.4443 126.876 87.3789 127.604H92.2229ZM96.4946 125.742C96.7466 125.303 97.1199 124.939 97.6146 124.65C98.1186 124.351 98.7019 124.202 99.3646 124.202C100.046 124.202 100.662 124.365 101.213 124.692C101.773 125.019 102.211 125.481 102.529 126.078C102.846 126.666 103.005 127.352 103.005 128.136C103.005 128.911 102.846 129.601 102.529 130.208C102.211 130.815 101.773 131.286 101.213 131.622C100.662 131.958 100.046 132.126 99.3646 132.126C98.7112 132.126 98.1326 131.981 97.6286 131.692C97.1339 131.393 96.7559 131.025 96.4946 130.586V135.64H95.2206V124.328H96.4946V125.742ZM101.703 128.136C101.703 127.557 101.586 127.053 101.353 126.624C101.119 126.195 100.802 125.868 100.401 125.644C100.009 125.42 99.5746 125.308 99.0986 125.308C98.6319 125.308 98.1979 125.425 97.7966 125.658C97.4046 125.882 97.0872 126.213 96.8446 126.652C96.6112 127.081 96.4946 127.581 96.4946 128.15C96.4946 128.729 96.6112 129.237 96.8446 129.676C97.0872 130.105 97.4046 130.437 97.7966 130.67C98.1979 130.894 98.6319 131.006 99.0986 131.006C99.5746 131.006 100.009 130.894 100.401 130.67C100.802 130.437 101.119 130.105 101.353 129.676C101.586 129.237 101.703 128.724 101.703 128.136ZM108.028 132.126C107.309 132.126 106.656 131.963 106.068 131.636C105.489 131.309 105.032 130.847 104.696 130.25C104.369 129.643 104.206 128.943 104.206 128.15C104.206 127.366 104.374 126.675 104.71 126.078C105.055 125.471 105.522 125.009 106.11 124.692C106.698 124.365 107.356 124.202 108.084 124.202C108.812 124.202 109.47 124.365 110.058 124.692C110.646 125.009 111.108 125.467 111.444 126.064C111.789 126.661 111.962 127.357 111.962 128.15C111.962 128.943 111.784 129.643 111.43 130.25C111.084 130.847 110.613 131.309 110.016 131.636C109.418 131.963 108.756 132.126 108.028 132.126ZM108.028 131.006C108.485 131.006 108.914 130.899 109.316 130.684C109.717 130.469 110.039 130.147 110.282 129.718C110.534 129.289 110.66 128.766 110.66 128.15C110.66 127.534 110.538 127.011 110.296 126.582C110.053 126.153 109.736 125.835 109.344 125.63C108.952 125.415 108.527 125.308 108.07 125.308C107.603 125.308 107.174 125.415 106.782 125.63C106.399 125.835 106.091 126.153 105.858 126.582C105.624 127.011 105.508 127.534 105.508 128.15C105.508 128.775 105.62 129.303 105.844 129.732C106.077 130.161 106.385 130.483 106.768 130.698C107.15 130.903 107.57 131.006 108.028 131.006ZM114.295 123.082C114.052 123.082 113.847 122.998 113.679 122.83C113.511 122.662 113.427 122.457 113.427 122.214C113.427 121.971 113.511 121.766 113.679 121.598C113.847 121.43 114.052 121.346 114.295 121.346C114.528 121.346 114.724 121.43 114.883 121.598C115.051 121.766 115.135 121.971 115.135 122.214C115.135 122.457 115.051 122.662 114.883 122.83C114.724 122.998 114.528 123.082 114.295 123.082ZM114.911 124.328V132H113.637V124.328H114.911ZM119.798 132.126C119.21 132.126 118.683 132.028 118.216 131.832C117.749 131.627 117.381 131.347 117.11 130.992C116.839 130.628 116.69 130.213 116.662 129.746H117.978C118.015 130.129 118.193 130.441 118.51 130.684C118.837 130.927 119.261 131.048 119.784 131.048C120.269 131.048 120.652 130.941 120.932 130.726C121.212 130.511 121.352 130.241 121.352 129.914C121.352 129.578 121.203 129.331 120.904 129.172C120.605 129.004 120.143 128.841 119.518 128.682C118.949 128.533 118.482 128.383 118.118 128.234C117.763 128.075 117.455 127.847 117.194 127.548C116.942 127.24 116.816 126.839 116.816 126.344C116.816 125.952 116.933 125.593 117.166 125.266C117.399 124.939 117.731 124.683 118.16 124.496C118.589 124.3 119.079 124.202 119.63 124.202C120.479 124.202 121.165 124.417 121.688 124.846C122.211 125.275 122.491 125.863 122.528 126.61H121.254C121.226 126.209 121.063 125.887 120.764 125.644C120.475 125.401 120.083 125.28 119.588 125.28C119.131 125.28 118.767 125.378 118.496 125.574C118.225 125.77 118.09 126.027 118.09 126.344C118.09 126.596 118.169 126.806 118.328 126.974C118.496 127.133 118.701 127.263 118.944 127.366C119.196 127.459 119.541 127.567 119.98 127.688C120.531 127.837 120.979 127.987 121.324 128.136C121.669 128.276 121.963 128.491 122.206 128.78C122.458 129.069 122.589 129.447 122.598 129.914C122.598 130.334 122.481 130.712 122.248 131.048C122.015 131.384 121.683 131.65 121.254 131.846C120.834 132.033 120.349 132.126 119.798 132.126ZM127.653 128.136C127.653 127.352 127.811 126.666 128.129 126.078C128.446 125.481 128.88 125.019 129.431 124.692C129.991 124.365 130.616 124.202 131.307 124.202C131.904 124.202 132.459 124.342 132.973 124.622C133.486 124.893 133.878 125.252 134.149 125.7V121.64H135.437V132H134.149V130.558C133.897 131.015 133.523 131.393 133.029 131.692C132.534 131.981 131.955 132.126 131.293 132.126C130.611 132.126 129.991 131.958 129.431 131.622C128.88 131.286 128.446 130.815 128.129 130.208C127.811 129.601 127.653 128.911 127.653 128.136ZM134.149 128.15C134.149 127.571 134.032 127.067 133.799 126.638C133.565 126.209 133.248 125.882 132.847 125.658C132.455 125.425 132.021 125.308 131.545 125.308C131.069 125.308 130.635 125.42 130.243 125.644C129.851 125.868 129.538 126.195 129.305 126.624C129.071 127.053 128.955 127.557 128.955 128.136C128.955 128.724 129.071 129.237 129.305 129.676C129.538 130.105 129.851 130.437 130.243 130.67C130.635 130.894 131.069 131.006 131.545 131.006C132.021 131.006 132.455 130.894 132.847 130.67C133.248 130.437 133.565 130.105 133.799 129.676C134.032 129.237 134.149 128.729 134.149 128.15ZM144.59 127.87C144.59 128.113 144.576 128.369 144.548 128.64H138.416C138.462 129.396 138.719 129.989 139.186 130.418C139.662 130.838 140.236 131.048 140.908 131.048C141.458 131.048 141.916 130.922 142.28 130.67C142.653 130.409 142.914 130.063 143.064 129.634H144.436C144.23 130.371 143.82 130.973 143.204 131.44C142.588 131.897 141.822 132.126 140.908 132.126C140.18 132.126 139.526 131.963 138.948 131.636C138.378 131.309 137.93 130.847 137.604 130.25C137.277 129.643 137.114 128.943 137.114 128.15C137.114 127.357 137.272 126.661 137.59 126.064C137.907 125.467 138.35 125.009 138.92 124.692C139.498 124.365 140.161 124.202 140.908 124.202C141.636 124.202 142.28 124.361 142.84 124.678C143.4 124.995 143.829 125.434 144.128 125.994C144.436 126.545 144.59 127.17 144.59 127.87ZM143.274 127.604C143.274 127.119 143.166 126.703 142.952 126.358C142.737 126.003 142.443 125.737 142.07 125.56C141.706 125.373 141.3 125.28 140.852 125.28C140.208 125.28 139.657 125.485 139.2 125.896C138.752 126.307 138.495 126.876 138.43 127.604H143.274ZM149.528 128.15C149.528 127.357 149.686 126.666 150.004 126.078C150.321 125.481 150.76 125.019 151.32 124.692C151.889 124.365 152.538 124.202 153.266 124.202C154.208 124.202 154.983 124.431 155.59 124.888C156.206 125.345 156.612 125.98 156.808 126.792H155.436C155.305 126.325 155.048 125.957 154.666 125.686C154.292 125.415 153.826 125.28 153.266 125.28C152.538 125.28 151.95 125.532 151.502 126.036C151.054 126.531 150.83 127.235 150.83 128.15C150.83 129.074 151.054 129.788 151.502 130.292C151.95 130.796 152.538 131.048 153.266 131.048C153.826 131.048 154.292 130.917 154.666 130.656C155.039 130.395 155.296 130.021 155.436 129.536H156.808C156.602 130.32 156.192 130.95 155.576 131.426C154.96 131.893 154.19 132.126 153.266 132.126C152.538 132.126 151.889 131.963 151.32 131.636C150.76 131.309 150.321 130.847 150.004 130.25C149.686 129.653 149.528 128.953 149.528 128.15ZM159.782 121.64V132H158.508V121.64H159.782ZM162.611 123.082C162.368 123.082 162.163 122.998 161.995 122.83C161.827 122.662 161.743 122.457 161.743 122.214C161.743 121.971 161.827 121.766 161.995 121.598C162.163 121.43 162.368 121.346 162.611 121.346C162.844 121.346 163.04 121.43 163.199 121.598C163.367 121.766 163.451 121.971 163.451 122.214C163.451 122.457 163.367 122.662 163.199 122.83C163.04 122.998 162.844 123.082 162.611 123.082ZM163.227 124.328V132H161.953V124.328H163.227ZM164.922 128.15C164.922 127.357 165.081 126.666 165.398 126.078C165.716 125.481 166.154 125.019 166.714 124.692C167.284 124.365 167.932 124.202 168.66 124.202C169.603 124.202 170.378 124.431 170.984 124.888C171.6 125.345 172.006 125.98 172.202 126.792H170.83C170.7 126.325 170.443 125.957 170.06 125.686C169.687 125.415 169.22 125.28 168.66 125.28C167.932 125.28 167.344 125.532 166.896 126.036C166.448 126.531 166.224 127.235 166.224 128.15C166.224 129.074 166.448 129.788 166.896 130.292C167.344 130.796 167.932 131.048 168.66 131.048C169.22 131.048 169.687 130.917 170.06 130.656C170.434 130.395 170.69 130.021 170.83 129.536H172.202C171.997 130.32 171.586 130.95 170.97 131.426C170.354 131.893 169.584 132.126 168.66 132.126C167.932 132.126 167.284 131.963 166.714 131.636C166.154 131.309 165.716 130.847 165.398 130.25C165.081 129.653 164.922 128.953 164.922 128.15ZM173.426 128.136C173.426 127.352 173.585 126.666 173.902 126.078C174.22 125.481 174.654 125.019 175.204 124.692C175.764 124.365 176.385 124.202 177.066 124.202C177.738 124.202 178.322 124.347 178.816 124.636C179.311 124.925 179.68 125.289 179.922 125.728V124.328H181.21V132H179.922V130.572C179.67 131.02 179.292 131.393 178.788 131.692C178.294 131.981 177.715 132.126 177.052 132.126C176.371 132.126 175.755 131.958 175.204 131.622C174.654 131.286 174.22 130.815 173.902 130.208C173.585 129.601 173.426 128.911 173.426 128.136ZM179.922 128.15C179.922 127.571 179.806 127.067 179.572 126.638C179.339 126.209 179.022 125.882 178.62 125.658C178.228 125.425 177.794 125.308 177.318 125.308C176.842 125.308 176.408 125.42 176.016 125.644C175.624 125.868 175.312 126.195 175.078 126.624C174.845 127.053 174.728 127.557 174.728 128.136C174.728 128.724 174.845 129.237 175.078 129.676C175.312 130.105 175.624 130.437 176.016 130.67C176.408 130.894 176.842 131.006 177.318 131.006C177.794 131.006 178.228 130.894 178.62 130.67C179.022 130.437 179.339 130.105 179.572 129.676C179.806 129.237 179.922 128.729 179.922 128.15ZM184.637 125.574C184.861 125.135 185.178 124.795 185.589 124.552C186.009 124.309 186.518 124.188 187.115 124.188V125.504H186.779C185.351 125.504 184.637 126.279 184.637 127.828V132H183.363V124.328H184.637V125.574ZM199.318 127.87C199.318 128.113 199.304 128.369 199.276 128.64H193.144C193.191 129.396 193.448 129.989 193.914 130.418C194.39 130.838 194.964 131.048 195.636 131.048C196.187 131.048 196.644 130.922 197.008 130.67C197.382 130.409 197.643 130.063 197.792 129.634H199.164C198.959 130.371 198.548 130.973 197.932 131.44C197.316 131.897 196.551 132.126 195.636 132.126C194.908 132.126 194.255 131.963 193.676 131.636C193.107 131.309 192.659 130.847 192.332 130.25C192.006 129.643 191.842 128.943 191.842 128.15C191.842 127.357 192.001 126.661 192.318 126.064C192.636 125.467 193.079 125.009 193.648 124.692C194.227 124.365 194.89 124.202 195.636 124.202C196.364 124.202 197.008 124.361 197.568 124.678C198.128 124.995 198.558 125.434 198.856 125.994C199.164 126.545 199.318 127.17 199.318 127.87ZM198.002 127.604C198.002 127.119 197.895 126.703 197.68 126.358C197.466 126.003 197.172 125.737 196.798 125.56C196.434 125.373 196.028 125.28 195.58 125.28C194.936 125.28 194.386 125.485 193.928 125.896C193.48 126.307 193.224 126.876 193.158 127.604H198.002ZM210.226 124.188C210.823 124.188 211.355 124.314 211.822 124.566C212.289 124.809 212.657 125.177 212.928 125.672C213.199 126.167 213.334 126.769 213.334 127.478V132H212.074V127.66C212.074 126.895 211.883 126.311 211.5 125.91C211.127 125.499 210.618 125.294 209.974 125.294C209.311 125.294 208.784 125.509 208.392 125.938C208 126.358 207.804 126.969 207.804 127.772V132H206.544V127.66C206.544 126.895 206.353 126.311 205.97 125.91C205.597 125.499 205.088 125.294 204.444 125.294C203.781 125.294 203.254 125.509 202.862 125.938C202.47 126.358 202.274 126.969 202.274 127.772V132H201V124.328H202.274V125.434C202.526 125.033 202.862 124.725 203.282 124.51C203.711 124.295 204.183 124.188 204.696 124.188C205.34 124.188 205.909 124.333 206.404 124.622C206.899 124.911 207.267 125.336 207.51 125.896C207.725 125.355 208.079 124.935 208.574 124.636C209.069 124.337 209.619 124.188 210.226 124.188ZM219.842 125.42H218.414L219.758 122.242H220.668L219.842 125.42ZM222.11 125.42H220.682L222.026 122.242H222.936L222.11 125.42ZM229.99 122.242V123.278H225.748V126.568H229.192V127.604H225.748V132H224.474V122.242H229.99ZM232.187 123.082C231.945 123.082 231.739 122.998 231.571 122.83C231.403 122.662 231.319 122.457 231.319 122.214C231.319 121.971 231.403 121.766 231.571 121.598C231.739 121.43 231.945 121.346 232.187 121.346C232.421 121.346 232.617 121.43 232.775 121.598C232.943 121.766 233.027 121.971 233.027 122.214C233.027 122.457 232.943 122.662 232.775 122.83C232.617 122.998 232.421 123.082 232.187 123.082ZM232.803 124.328V132H231.529V124.328H232.803ZM238.712 124.188C239.646 124.188 240.402 124.473 240.98 125.042C241.559 125.602 241.848 126.414 241.848 127.478V132H240.588V127.66C240.588 126.895 240.397 126.311 240.014 125.91C239.632 125.499 239.109 125.294 238.446 125.294C237.774 125.294 237.238 125.504 236.836 125.924C236.444 126.344 236.248 126.955 236.248 127.758V132H234.974V124.328H236.248V125.42C236.5 125.028 236.841 124.725 237.27 124.51C237.709 124.295 238.19 124.188 238.712 124.188ZM243.454 128.136C243.454 127.352 243.612 126.666 243.93 126.078C244.247 125.481 244.681 125.019 245.232 124.692C245.792 124.365 246.412 124.202 247.094 124.202C247.766 124.202 248.349 124.347 248.844 124.636C249.338 124.925 249.707 125.289 249.95 125.728V124.328H251.238V132H249.95V130.572C249.698 131.02 249.32 131.393 248.816 131.692C248.321 131.981 247.742 132.126 247.08 132.126C246.398 132.126 245.782 131.958 245.232 131.622C244.681 131.286 244.247 130.815 243.93 130.208C243.612 129.601 243.454 128.911 243.454 128.136ZM249.95 128.15C249.95 127.571 249.833 127.067 249.6 126.638C249.366 126.209 249.049 125.882 248.648 125.658C248.256 125.425 247.822 125.308 247.346 125.308C246.87 125.308 246.436 125.42 246.044 125.644C245.652 125.868 245.339 126.195 245.106 126.624C244.872 127.053 244.756 127.557 244.756 128.136C244.756 128.724 244.872 129.237 245.106 129.676C245.339 130.105 245.652 130.437 246.044 130.67C246.436 130.894 246.87 131.006 247.346 131.006C247.822 131.006 248.256 130.894 248.648 130.67C249.049 130.437 249.366 130.105 249.6 129.676C249.833 129.237 249.95 128.729 249.95 128.15ZM254.665 121.64V132H253.391V121.64H254.665ZM257.494 123.082C257.251 123.082 257.046 122.998 256.878 122.83C256.71 122.662 256.626 122.457 256.626 122.214C256.626 121.971 256.71 121.766 256.878 121.598C257.046 121.43 257.251 121.346 257.494 121.346C257.727 121.346 257.923 121.43 258.082 121.598C258.25 121.766 258.334 121.971 258.334 122.214C258.334 122.457 258.25 122.662 258.082 122.83C257.923 122.998 257.727 123.082 257.494 123.082ZM258.11 124.328V132H256.836V124.328H258.11ZM261.233 130.95H264.999V132H259.777V130.95L263.501 125.364H259.805V124.328H264.971V125.364L261.233 130.95ZM266.176 128.136C266.176 127.352 266.335 126.666 266.652 126.078C266.97 125.481 267.404 125.019 267.954 124.692C268.514 124.365 269.135 124.202 269.816 124.202C270.488 124.202 271.072 124.347 271.566 124.636C272.061 124.925 272.43 125.289 272.672 125.728V124.328H273.96V132H272.672V130.572C272.42 131.02 272.042 131.393 271.538 131.692C271.044 131.981 270.465 132.126 269.802 132.126C269.121 132.126 268.505 131.958 267.954 131.622C267.404 131.286 266.97 130.815 266.652 130.208C266.335 129.601 266.176 128.911 266.176 128.136ZM272.672 128.15C272.672 127.571 272.556 127.067 272.322 126.638C272.089 126.209 271.772 125.882 271.37 125.658C270.978 125.425 270.544 125.308 270.068 125.308C269.592 125.308 269.158 125.42 268.766 125.644C268.374 125.868 268.062 126.195 267.828 126.624C267.595 127.053 267.478 127.557 267.478 128.136C267.478 128.724 267.595 129.237 267.828 129.676C268.062 130.105 268.374 130.437 268.766 130.67C269.158 130.894 269.592 131.006 270.068 131.006C270.544 131.006 270.978 130.894 271.37 130.67C271.772 130.437 272.089 130.105 272.322 129.676C272.556 129.237 272.672 128.729 272.672 128.15ZM277.387 125.574C277.611 125.135 277.928 124.795 278.339 124.552C278.759 124.309 279.268 124.188 279.865 124.188V125.504H279.529C278.101 125.504 277.387 126.279 277.387 127.828V132H276.113V124.328H277.387V125.574ZM284.592 128.136C284.592 127.352 284.751 126.666 285.068 126.078C285.386 125.481 285.82 125.019 286.37 124.692C286.93 124.365 287.551 124.202 288.232 124.202C288.904 124.202 289.488 124.347 289.982 124.636C290.477 124.925 290.846 125.289 291.088 125.728V124.328H292.376V132H291.088V130.572C290.836 131.02 290.458 131.393 289.954 131.692C289.46 131.981 288.881 132.126 288.218 132.126C287.537 132.126 286.921 131.958 286.37 131.622C285.82 131.286 285.386 130.815 285.068 130.208C284.751 129.601 284.592 128.911 284.592 128.136ZM291.088 128.15C291.088 127.571 290.972 127.067 290.738 126.638C290.505 126.209 290.188 125.882 289.786 125.658C289.394 125.425 288.96 125.308 288.484 125.308C288.008 125.308 287.574 125.42 287.182 125.644C286.79 125.868 286.478 126.195 286.244 126.624C286.011 127.053 285.894 127.557 285.894 128.136C285.894 128.724 286.011 129.237 286.244 129.676C286.478 130.105 286.79 130.437 287.182 130.67C287.574 130.894 288.008 131.006 288.484 131.006C288.96 131.006 289.394 130.894 289.786 130.67C290.188 130.437 290.505 130.105 290.738 129.676C290.972 129.237 291.088 128.729 291.088 128.15ZM297.786 128.15C297.786 127.357 297.944 126.666 298.262 126.078C298.579 125.481 299.018 125.019 299.578 124.692C300.147 124.365 300.796 124.202 301.524 124.202C302.466 124.202 303.241 124.431 303.848 124.888C304.464 125.345 304.87 125.98 305.066 126.792H303.694C303.563 126.325 303.306 125.957 302.924 125.686C302.55 125.415 302.084 125.28 301.524 125.28C300.796 125.28 300.208 125.532 299.76 126.036C299.312 126.531 299.088 127.235 299.088 128.15C299.088 129.074 299.312 129.788 299.76 130.292C300.208 130.796 300.796 131.048 301.524 131.048C302.084 131.048 302.55 130.917 302.924 130.656C303.297 130.395 303.554 130.021 303.694 129.536H305.066C304.86 130.32 304.45 130.95 303.834 131.426C303.218 131.893 302.448 132.126 301.524 132.126C300.796 132.126 300.147 131.963 299.578 131.636C299.018 131.309 298.579 130.847 298.262 130.25C297.944 129.653 297.786 128.953 297.786 128.15ZM310.112 132.126C309.393 132.126 308.74 131.963 308.152 131.636C307.573 131.309 307.116 130.847 306.78 130.25C306.453 129.643 306.29 128.943 306.29 128.15C306.29 127.366 306.458 126.675 306.794 126.078C307.139 125.471 307.606 125.009 308.194 124.692C308.782 124.365 309.44 124.202 310.168 124.202C310.896 124.202 311.554 124.365 312.142 124.692C312.73 125.009 313.192 125.467 313.528 126.064C313.873 126.661 314.046 127.357 314.046 128.15C314.046 128.943 313.868 129.643 313.514 130.25C313.168 130.847 312.697 131.309 312.1 131.636C311.502 131.963 310.84 132.126 310.112 132.126ZM310.112 131.006C310.569 131.006 310.998 130.899 311.4 130.684C311.801 130.469 312.123 130.147 312.366 129.718C312.618 129.289 312.744 128.766 312.744 128.15C312.744 127.534 312.622 127.011 312.38 126.582C312.137 126.153 311.82 125.835 311.428 125.63C311.036 125.415 310.611 125.308 310.154 125.308C309.687 125.308 309.258 125.415 308.866 125.63C308.483 125.835 308.175 126.153 307.942 126.582C307.708 127.011 307.592 127.534 307.592 128.15C307.592 128.775 307.704 129.303 307.928 129.732C308.161 130.161 308.469 130.483 308.852 130.698C309.234 130.903 309.654 131.006 310.112 131.006ZM324.947 124.188C325.544 124.188 326.076 124.314 326.543 124.566C327.009 124.809 327.378 125.177 327.649 125.672C327.919 126.167 328.055 126.769 328.055 127.478V132H326.795V127.66C326.795 126.895 326.603 126.311 326.221 125.91C325.847 125.499 325.339 125.294 324.695 125.294C324.032 125.294 323.505 125.509 323.113 125.938C322.721 126.358 322.525 126.969 322.525 127.772V132H321.265V127.66C321.265 126.895 321.073 126.311 320.691 125.91C320.317 125.499 319.809 125.294 319.165 125.294C318.502 125.294 317.975 125.509 317.583 125.938C317.191 126.358 316.995 126.969 316.995 127.772V132H315.721V124.328H316.995V125.434C317.247 125.033 317.583 124.725 318.003 124.51C318.432 124.295 318.903 124.188 319.417 124.188C320.061 124.188 320.63 124.333 321.125 124.622C321.619 124.911 321.988 125.336 322.231 125.896C322.445 125.355 322.8 124.935 323.295 124.636C323.789 124.337 324.34 124.188 324.947 124.188ZM331.418 125.742C331.67 125.303 332.044 124.939 332.538 124.65C333.042 124.351 333.626 124.202 334.288 124.202C334.97 124.202 335.586 124.365 336.136 124.692C336.696 125.019 337.135 125.481 337.452 126.078C337.77 126.666 337.928 127.352 337.928 128.136C337.928 128.911 337.77 129.601 337.452 130.208C337.135 130.815 336.696 131.286 336.136 131.622C335.586 131.958 334.97 132.126 334.288 132.126C333.635 132.126 333.056 131.981 332.552 131.692C332.058 131.393 331.68 131.025 331.418 130.586V135.64H330.144V124.328H331.418V125.742ZM336.626 128.136C336.626 127.557 336.51 127.053 336.276 126.624C336.043 126.195 335.726 125.868 335.324 125.644C334.932 125.42 334.498 125.308 334.022 125.308C333.556 125.308 333.122 125.425 332.72 125.658C332.328 125.882 332.011 126.213 331.768 126.652C331.535 127.081 331.418 127.581 331.418 128.15C331.418 128.729 331.535 129.237 331.768 129.676C332.011 130.105 332.328 130.437 332.72 130.67C333.122 130.894 333.556 131.006 334.022 131.006C334.498 131.006 334.932 130.894 335.324 130.67C335.726 130.437 336.043 130.105 336.276 129.676C336.51 129.237 336.626 128.724 336.626 128.136ZM340.879 125.574C341.103 125.135 341.421 124.795 341.831 124.552C342.251 124.309 342.76 124.188 343.357 124.188V125.504H343.021C341.593 125.504 340.879 126.279 340.879 127.828V132H339.605V124.328H340.879V125.574ZM344.352 128.136C344.352 127.352 344.511 126.666 344.828 126.078C345.145 125.481 345.579 125.019 346.13 124.692C346.69 124.365 347.311 124.202 347.992 124.202C348.664 124.202 349.247 124.347 349.742 124.636C350.237 124.925 350.605 125.289 350.848 125.728V124.328H352.136V132H350.848V130.572C350.596 131.02 350.218 131.393 349.714 131.692C349.219 131.981 348.641 132.126 347.978 132.126C347.297 132.126 346.681 131.958 346.13 131.622C345.579 131.286 345.145 130.815 344.828 130.208C344.511 129.601 344.352 128.911 344.352 128.136ZM350.848 128.15C350.848 127.571 350.731 127.067 350.498 126.638C350.265 126.209 349.947 125.882 349.546 125.658C349.154 125.425 348.72 125.308 348.244 125.308C347.768 125.308 347.334 125.42 346.942 125.644C346.55 125.868 346.237 126.195 346.004 126.624C345.771 127.053 345.654 127.557 345.654 128.136C345.654 128.724 345.771 129.237 346.004 129.676C346.237 130.105 346.55 130.437 346.942 130.67C347.334 130.894 347.768 131.006 348.244 131.006C348.72 131.006 349.154 130.894 349.546 130.67C349.947 130.437 350.265 130.105 350.498 129.676C350.731 129.237 350.848 128.729 350.848 128.15ZM354.485 122.242H355.899L354.555 125.42H353.659L354.485 122.242ZM356.753 122.242H358.167L356.823 125.42H355.913L356.753 122.242ZM360.923 130.236L359.355 134.002H358.501L359.523 130.236H360.923ZM368.971 130.824L371.351 124.328H372.709L369.699 132H368.215L365.205 124.328H366.577L368.971 130.824ZM377.309 132.126C376.59 132.126 375.937 131.963 375.349 131.636C374.77 131.309 374.313 130.847 373.977 130.25C373.65 129.643 373.487 128.943 373.487 128.15C373.487 127.366 373.655 126.675 373.991 126.078C374.336 125.471 374.803 125.009 375.391 124.692C375.979 124.365 376.637 124.202 377.365 124.202C378.093 124.202 378.751 124.365 379.339 124.692C379.927 125.009 380.389 125.467 380.725 126.064C381.07 126.661 381.243 127.357 381.243 128.15C381.243 128.943 381.065 129.643 380.711 130.25C380.365 130.847 379.894 131.309 379.297 131.636C378.699 131.963 378.037 132.126 377.309 132.126ZM377.309 131.006C377.766 131.006 378.195 130.899 378.597 130.684C378.998 130.469 379.32 130.147 379.563 129.718C379.815 129.289 379.941 128.766 379.941 128.15C379.941 127.534 379.819 127.011 379.577 126.582C379.334 126.153 379.017 125.835 378.625 125.63C378.233 125.415 377.808 125.308 377.351 125.308C376.884 125.308 376.455 125.415 376.063 125.63C375.68 125.835 375.372 126.153 375.139 126.582C374.905 127.011 374.789 127.534 374.789 128.15C374.789 128.775 374.901 129.303 375.125 129.732C375.358 130.161 375.666 130.483 376.049 130.698C376.431 130.903 376.851 131.006 377.309 131.006ZM382.442 128.15C382.442 127.357 382.601 126.666 382.918 126.078C383.235 125.481 383.674 125.019 384.234 124.692C384.803 124.365 385.452 124.202 386.18 124.202C387.123 124.202 387.897 124.431 388.504 124.888C389.12 125.345 389.526 125.98 389.722 126.792H388.35C388.219 126.325 387.963 125.957 387.58 125.686C387.207 125.415 386.74 125.28 386.18 125.28C385.452 125.28 384.864 125.532 384.416 126.036C383.968 126.531 383.744 127.235 383.744 128.15C383.744 129.074 383.968 129.788 384.416 130.292C384.864 130.796 385.452 131.048 386.18 131.048C386.74 131.048 387.207 130.917 387.58 130.656C387.953 130.395 388.21 130.021 388.35 129.536H389.722C389.517 130.32 389.106 130.95 388.49 131.426C387.874 131.893 387.104 132.126 386.18 132.126C385.452 132.126 384.803 131.963 384.234 131.636C383.674 131.309 383.235 130.847 382.918 130.25C382.601 129.653 382.442 128.953 382.442 128.15ZM398.422 127.87C398.422 128.113 398.408 128.369 398.38 128.64H392.248C392.294 129.396 392.551 129.989 393.018 130.418C393.494 130.838 394.068 131.048 394.74 131.048C395.29 131.048 395.748 130.922 396.112 130.67C396.485 130.409 396.746 130.063 396.896 129.634H398.268C398.062 130.371 397.652 130.973 397.036 131.44C396.42 131.897 395.654 132.126 394.74 132.126C394.012 132.126 393.358 131.963 392.78 131.636C392.21 131.309 391.762 130.847 391.436 130.25C391.109 129.643 390.946 128.943 390.946 128.15C390.946 127.357 391.104 126.661 391.422 126.064C391.739 125.467 392.182 125.009 392.752 124.692C393.33 124.365 393.993 124.202 394.74 124.202C395.468 124.202 396.112 124.361 396.672 124.678C397.232 124.995 397.661 125.434 397.96 125.994C398.268 126.545 398.422 127.17 398.422 127.87ZM397.106 127.604C397.106 127.119 396.998 126.703 396.784 126.358C396.569 126.003 396.275 125.737 395.902 125.56C395.538 125.373 395.132 125.28 394.684 125.28C394.04 125.28 393.489 125.485 393.032 125.896C392.584 126.307 392.327 126.876 392.262 127.604H397.106ZM394.698 122.452L392.752 123.642V122.634L394.698 121.472L396.63 122.634V123.642L394.698 122.452ZM406.552 132.126C405.964 132.126 405.436 132.028 404.97 131.832C404.503 131.627 404.134 131.347 403.864 130.992C403.593 130.628 403.444 130.213 403.416 129.746H404.732C404.769 130.129 404.946 130.441 405.264 130.684C405.59 130.927 406.015 131.048 406.538 131.048C407.023 131.048 407.406 130.941 407.686 130.726C407.966 130.511 408.106 130.241 408.106 129.914C408.106 129.578 407.956 129.331 407.658 129.172C407.359 129.004 406.897 128.841 406.272 128.682C405.702 128.533 405.236 128.383 404.872 128.234C404.517 128.075 404.209 127.847 403.948 127.548C403.696 127.24 403.57 126.839 403.57 126.344C403.57 125.952 403.686 125.593 403.92 125.266C404.153 124.939 404.484 124.683 404.914 124.496C405.343 124.3 405.833 124.202 406.384 124.202C407.233 124.202 407.919 124.417 408.442 124.846C408.964 125.275 409.244 125.863 409.282 126.61H408.008C407.98 126.209 407.816 125.887 407.518 125.644C407.228 125.401 406.836 125.28 406.342 125.28C405.884 125.28 405.52 125.378 405.25 125.574C404.979 125.77 404.844 126.027 404.844 126.344C404.844 126.596 404.923 126.806 405.082 126.974C405.25 127.133 405.455 127.263 405.698 127.366C405.95 127.459 406.295 127.567 406.734 127.688C407.284 127.837 407.732 127.987 408.078 128.136C408.423 128.276 408.717 128.491 408.96 128.78C409.212 129.069 409.342 129.447 409.352 129.914C409.352 130.334 409.235 130.712 409.002 131.048C408.768 131.384 408.437 131.65 408.008 131.846C407.588 132.033 407.102 132.126 406.552 132.126ZM418.15 127.87C418.15 128.113 418.136 128.369 418.108 128.64H411.976C412.023 129.396 412.28 129.989 412.746 130.418C413.222 130.838 413.796 131.048 414.468 131.048C415.019 131.048 415.476 130.922 415.84 130.67C416.214 130.409 416.475 130.063 416.624 129.634H417.996C417.791 130.371 417.38 130.973 416.764 131.44C416.148 131.897 415.383 132.126 414.468 132.126C413.74 132.126 413.087 131.963 412.508 131.636C411.939 131.309 411.491 130.847 411.164 130.25C410.838 129.643 410.674 128.943 410.674 128.15C410.674 127.357 410.833 126.661 411.15 126.064C411.468 125.467 411.911 125.009 412.48 124.692C413.059 124.365 413.722 124.202 414.468 124.202C415.196 124.202 415.84 124.361 416.4 124.678C416.96 124.995 417.39 125.434 417.688 125.994C417.996 126.545 418.15 127.17 418.15 127.87ZM416.834 127.604C416.834 127.119 416.727 126.703 416.512 126.358C416.298 126.003 416.004 125.737 415.63 125.56C415.266 125.373 414.86 125.28 414.412 125.28C413.768 125.28 413.218 125.485 412.76 125.896C412.312 126.307 412.056 126.876 411.99 127.604H416.834ZM421.106 125.574C421.33 125.135 421.647 124.795 422.058 124.552C422.478 124.309 422.987 124.188 423.584 124.188V125.504H423.248C421.82 125.504 421.106 126.279 421.106 127.828V132H419.832V124.328H421.106V125.574ZM424.579 128.136C424.579 127.352 424.737 126.666 425.055 126.078C425.372 125.481 425.806 125.019 426.357 124.692C426.917 124.365 427.537 124.202 428.219 124.202C428.891 124.202 429.474 124.347 429.969 124.636C430.463 124.925 430.832 125.289 431.075 125.728V124.328H432.363V132H431.075V130.572C430.823 131.02 430.445 131.393 429.941 131.692C429.446 131.981 428.867 132.126 428.205 132.126C427.523 132.126 426.907 131.958 426.357 131.622C425.806 131.286 425.372 130.815 425.055 130.208C424.737 129.601 424.579 128.911 424.579 128.136ZM431.075 128.15C431.075 127.571 430.958 127.067 430.725 126.638C430.491 126.209 430.174 125.882 429.773 125.658C429.381 125.425 428.947 125.308 428.471 125.308C427.995 125.308 427.561 125.42 427.169 125.644C426.777 125.868 426.464 126.195 426.231 126.624C425.997 127.053 425.881 127.557 425.881 128.136C425.881 128.724 425.997 129.237 426.231 129.676C426.464 130.105 426.777 130.437 427.169 130.67C427.561 130.894 427.995 131.006 428.471 131.006C428.947 131.006 429.381 130.894 429.773 130.67C430.174 130.437 430.491 130.105 430.725 129.676C430.958 129.237 431.075 128.729 431.075 128.15ZM430.081 122.158L427.099 123.754V122.802L430.081 121.052V122.158ZM80.0131 146.574C80.2371 146.135 80.5545 145.795 80.9651 145.552C81.3851 145.309 81.8938 145.188 82.4911 145.188V146.504H82.1551C80.7271 146.504 80.0131 147.279 80.0131 148.828V153H78.7391V145.328H80.0131V146.574ZM90.9618 148.87C90.9618 149.113 90.9478 149.369 90.9198 149.64H84.7878C84.8345 150.396 85.0911 150.989 85.5578 151.418C86.0338 151.838 86.6078 152.048 87.2798 152.048C87.8305 152.048 88.2878 151.922 88.6518 151.67C89.0251 151.409 89.2865 151.063 89.4358 150.634H90.8078C90.6025 151.371 90.1918 151.973 89.5758 152.44C88.9598 152.897 88.1945 153.126 87.2798 153.126C86.5518 153.126 85.8985 152.963 85.3198 152.636C84.7505 152.309 84.3025 151.847 83.9758 151.25C83.6491 150.643 83.4858 149.943 83.4858 149.15C83.4858 148.357 83.6445 147.661 83.9618 147.064C84.2791 146.467 84.7225 146.009 85.2918 145.692C85.8705 145.365 86.5331 145.202 87.2798 145.202C88.0078 145.202 88.6518 145.361 89.2118 145.678C89.7718 145.995 90.2011 146.434 90.4998 146.994C90.8078 147.545 90.9618 148.17 90.9618 148.87ZM89.6458 148.604C89.6458 148.119 89.5385 147.703 89.3238 147.358C89.1091 147.003 88.8151 146.737 88.4418 146.56C88.0778 146.373 87.6718 146.28 87.2238 146.28C86.5798 146.28 86.0291 146.485 85.5718 146.896C85.1238 147.307 84.8671 147.876 84.8018 148.604H89.6458ZM92.1674 149.136C92.1674 148.352 92.3261 147.666 92.6434 147.078C92.9608 146.481 93.3948 146.019 93.9454 145.692C94.5054 145.365 95.1308 145.202 95.8214 145.202C96.4188 145.202 96.9741 145.342 97.4874 145.622C98.0008 145.893 98.3928 146.252 98.6634 146.7V142.64H99.9514V153H98.6634V151.558C98.4114 152.015 98.0381 152.393 97.5434 152.692C97.0488 152.981 96.4701 153.126 95.8074 153.126C95.1261 153.126 94.5054 152.958 93.9454 152.622C93.3948 152.286 92.9608 151.815 92.6434 151.208C92.3261 150.601 92.1674 149.911 92.1674 149.136ZM98.6634 149.15C98.6634 148.571 98.5468 148.067 98.3134 147.638C98.0801 147.209 97.7628 146.882 97.3614 146.658C96.9694 146.425 96.5354 146.308 96.0594 146.308C95.5834 146.308 95.1494 146.42 94.7574 146.644C94.3654 146.868 94.0528 147.195 93.8194 147.624C93.5861 148.053 93.4694 148.557 93.4694 149.136C93.4694 149.724 93.5861 150.237 93.8194 150.676C94.0528 151.105 94.3654 151.437 94.7574 151.67C95.1494 151.894 95.5834 152.006 96.0594 152.006C96.5354 152.006 96.9694 151.894 97.3614 151.67C97.7628 151.437 98.0801 151.105 98.3134 150.676C98.5468 150.237 98.6634 149.729 98.6634 149.15ZM102.762 144.082C102.52 144.082 102.314 143.998 102.146 143.83C101.978 143.662 101.894 143.457 101.894 143.214C101.894 142.971 101.978 142.766 102.146 142.598C102.314 142.43 102.52 142.346 102.762 142.346C102.996 142.346 103.192 142.43 103.35 142.598C103.518 142.766 103.602 142.971 103.602 143.214C103.602 143.457 103.518 143.662 103.35 143.83C103.192 143.998 102.996 144.082 102.762 144.082ZM103.378 145.328V153H102.104V145.328H103.378ZM106.824 146.574C107.048 146.135 107.365 145.795 107.776 145.552C108.196 145.309 108.704 145.188 109.302 145.188V146.504H108.966C107.538 146.504 106.824 147.279 106.824 148.828V153H105.55V145.328H106.824V146.574ZM117.772 148.87C117.772 149.113 117.758 149.369 117.73 149.64H111.598C111.645 150.396 111.902 150.989 112.368 151.418C112.844 151.838 113.418 152.048 114.09 152.048C114.641 152.048 115.098 151.922 115.462 151.67C115.836 151.409 116.097 151.063 116.246 150.634H117.618C117.413 151.371 117.002 151.973 116.386 152.44C115.77 152.897 115.005 153.126 114.09 153.126C113.362 153.126 112.709 152.963 112.13 152.636C111.561 152.309 111.113 151.847 110.786 151.25C110.46 150.643 110.296 149.943 110.296 149.15C110.296 148.357 110.455 147.661 110.772 147.064C111.09 146.467 111.533 146.009 112.102 145.692C112.681 145.365 113.344 145.202 114.09 145.202C114.818 145.202 115.462 145.361 116.022 145.678C116.582 145.995 117.012 146.434 117.31 146.994C117.618 147.545 117.772 148.17 117.772 148.87ZM116.456 148.604C116.456 148.119 116.349 147.703 116.134 147.358C115.92 147.003 115.626 146.737 115.252 146.56C114.888 146.373 114.482 146.28 114.034 146.28C113.39 146.28 112.84 146.485 112.382 146.896C111.934 147.307 111.678 147.876 111.612 148.604H116.456ZM118.978 149.15C118.978 148.357 119.137 147.666 119.454 147.078C119.771 146.481 120.21 146.019 120.77 145.692C121.339 145.365 121.988 145.202 122.716 145.202C123.659 145.202 124.433 145.431 125.04 145.888C125.656 146.345 126.062 146.98 126.258 147.792H124.886C124.755 147.325 124.499 146.957 124.116 146.686C123.743 146.415 123.276 146.28 122.716 146.28C121.988 146.28 121.4 146.532 120.952 147.036C120.504 147.531 120.28 148.235 120.28 149.15C120.28 150.074 120.504 150.788 120.952 151.292C121.4 151.796 121.988 152.048 122.716 152.048C123.276 152.048 123.743 151.917 124.116 151.656C124.489 151.395 124.746 151.021 124.886 150.536H126.258C126.053 151.32 125.642 151.95 125.026 152.426C124.41 152.893 123.64 153.126 122.716 153.126C121.988 153.126 121.339 152.963 120.77 152.636C120.21 152.309 119.771 151.847 119.454 151.25C119.137 150.653 118.978 149.953 118.978 149.15ZM128.616 144.082C128.373 144.082 128.168 143.998 128 143.83C127.832 143.662 127.748 143.457 127.748 143.214C127.748 142.971 127.832 142.766 128 142.598C128.168 142.43 128.373 142.346 128.616 142.346C128.849 142.346 129.045 142.43 129.204 142.598C129.372 142.766 129.456 142.971 129.456 143.214C129.456 143.457 129.372 143.662 129.204 143.83C129.045 143.998 128.849 144.082 128.616 144.082ZM129.232 145.328V153H127.958V145.328H129.232ZM134.749 153.126C134.031 153.126 133.377 152.963 132.789 152.636C132.211 152.309 131.753 151.847 131.417 151.25C131.091 150.643 130.927 149.943 130.927 149.15C130.927 148.366 131.095 147.675 131.431 147.078C131.777 146.471 132.243 146.009 132.831 145.692C133.419 145.365 134.077 145.202 134.805 145.202C135.533 145.202 136.191 145.365 136.779 145.692C137.367 146.009 137.829 146.467 138.165 147.064C138.511 147.661 138.683 148.357 138.683 149.15C138.683 149.943 138.506 150.643 138.151 151.25C137.806 151.847 137.335 152.309 136.737 152.636C136.14 152.963 135.477 153.126 134.749 153.126ZM134.749 152.006C135.207 152.006 135.636 151.899 136.037 151.684C136.439 151.469 136.761 151.147 137.003 150.718C137.255 150.289 137.381 149.766 137.381 149.15C137.381 148.534 137.26 148.011 137.017 147.582C136.775 147.153 136.457 146.835 136.065 146.63C135.673 146.415 135.249 146.308 134.791 146.308C134.325 146.308 133.895 146.415 133.503 146.63C133.121 146.835 132.813 147.153 132.579 147.582C132.346 148.011 132.229 148.534 132.229 149.15C132.229 149.775 132.341 150.303 132.565 150.732C132.799 151.161 133.107 151.483 133.489 151.698C133.872 151.903 134.292 152.006 134.749 152.006ZM144.096 145.188C145.03 145.188 145.786 145.473 146.364 146.042C146.943 146.602 147.232 147.414 147.232 148.478V153H145.972V148.66C145.972 147.895 145.781 147.311 145.398 146.91C145.016 146.499 144.493 146.294 143.83 146.294C143.158 146.294 142.622 146.504 142.22 146.924C141.828 147.344 141.632 147.955 141.632 148.758V153H140.358V145.328H141.632V146.42C141.884 146.028 142.225 145.725 142.654 145.51C143.093 145.295 143.574 145.188 144.096 145.188ZM148.837 149.136C148.837 148.352 148.996 147.666 149.313 147.078C149.631 146.481 150.065 146.019 150.615 145.692C151.175 145.365 151.796 145.202 152.477 145.202C153.149 145.202 153.733 145.347 154.227 145.636C154.722 145.925 155.091 146.289 155.333 146.728V145.328H156.621V153H155.333V151.572C155.081 152.02 154.703 152.393 154.199 152.692C153.705 152.981 153.126 153.126 152.463 153.126C151.782 153.126 151.166 152.958 150.615 152.622C150.065 152.286 149.631 151.815 149.313 151.208C148.996 150.601 148.837 149.911 148.837 149.136ZM155.333 149.15C155.333 148.571 155.217 148.067 154.983 147.638C154.75 147.209 154.433 146.882 154.031 146.658C153.639 146.425 153.205 146.308 152.729 146.308C152.253 146.308 151.819 146.42 151.427 146.644C151.035 146.868 150.723 147.195 150.489 147.624C150.256 148.053 150.139 148.557 150.139 149.136C150.139 149.724 150.256 150.237 150.489 150.676C150.723 151.105 151.035 151.437 151.427 151.67C151.819 151.894 152.253 152.006 152.729 152.006C153.205 152.006 153.639 151.894 154.031 151.67C154.433 151.437 154.75 151.105 154.983 150.676C155.217 150.237 155.333 149.729 155.333 149.15ZM158.298 149.136C158.298 148.352 158.457 147.666 158.774 147.078C159.092 146.481 159.526 146.019 160.076 145.692C160.636 145.365 161.262 145.202 161.952 145.202C162.55 145.202 163.105 145.342 163.618 145.622C164.132 145.893 164.524 146.252 164.794 146.7V142.64H166.082V153H164.794V151.558C164.542 152.015 164.169 152.393 163.674 152.692C163.18 152.981 162.601 153.126 161.938 153.126C161.257 153.126 160.636 152.958 160.076 152.622C159.526 152.286 159.092 151.815 158.774 151.208C158.457 150.601 158.298 149.911 158.298 149.136ZM164.794 149.15C164.794 148.571 164.678 148.067 164.444 147.638C164.211 147.209 163.894 146.882 163.492 146.658C163.1 146.425 162.666 146.308 162.19 146.308C161.714 146.308 161.28 146.42 160.888 146.644C160.496 146.868 160.184 147.195 159.95 147.624C159.717 148.053 159.6 148.557 159.6 149.136C159.6 149.724 159.717 150.237 159.95 150.676C160.184 151.105 160.496 151.437 160.888 151.67C161.28 151.894 161.714 152.006 162.19 152.006C162.666 152.006 163.1 151.894 163.492 151.67C163.894 151.437 164.211 151.105 164.444 150.676C164.678 150.237 164.794 149.729 164.794 149.15ZM171.581 153.126C170.863 153.126 170.209 152.963 169.621 152.636C169.043 152.309 168.585 151.847 168.249 151.25C167.923 150.643 167.759 149.943 167.759 149.15C167.759 148.366 167.927 147.675 168.263 147.078C168.609 146.471 169.075 146.009 169.663 145.692C170.251 145.365 170.909 145.202 171.637 145.202C172.365 145.202 173.023 145.365 173.611 145.692C174.199 146.009 174.661 146.467 174.997 147.064C175.343 147.661 175.515 148.357 175.515 149.15C175.515 149.943 175.338 150.643 174.983 151.25C174.638 151.847 174.167 152.309 173.569 152.636C172.972 152.963 172.309 153.126 171.581 153.126ZM171.581 152.006C172.039 152.006 172.468 151.899 172.869 151.684C173.271 151.469 173.593 151.147 173.835 150.718C174.087 150.289 174.213 149.766 174.213 149.15C174.213 148.534 174.092 148.011 173.849 147.582C173.607 147.153 173.289 146.835 172.897 146.63C172.505 146.415 172.081 146.308 171.623 146.308C171.157 146.308 170.727 146.415 170.335 146.63C169.953 146.835 169.645 147.153 169.411 147.582C169.178 148.011 169.061 148.534 169.061 149.15C169.061 149.775 169.173 150.303 169.397 150.732C169.631 151.161 169.939 151.483 170.321 151.698C170.704 151.903 171.124 152.006 171.581 152.006ZM182.197 146.742C182.449 146.303 182.822 145.939 183.317 145.65C183.821 145.351 184.404 145.202 185.067 145.202C185.748 145.202 186.364 145.365 186.915 145.692C187.475 146.019 187.913 146.481 188.231 147.078C188.548 147.666 188.707 148.352 188.707 149.136C188.707 149.911 188.548 150.601 188.231 151.208C187.913 151.815 187.475 152.286 186.915 152.622C186.364 152.958 185.748 153.126 185.067 153.126C184.413 153.126 183.835 152.981 183.331 152.692C182.836 152.393 182.458 152.025 182.197 151.586V156.64H180.923V145.328H182.197V146.742ZM187.405 149.136C187.405 148.557 187.288 148.053 187.055 147.624C186.821 147.195 186.504 146.868 186.103 146.644C185.711 146.42 185.277 146.308 184.801 146.308C184.334 146.308 183.9 146.425 183.499 146.658C183.107 146.882 182.789 147.213 182.547 147.652C182.313 148.081 182.197 148.581 182.197 149.15C182.197 149.729 182.313 150.237 182.547 150.676C182.789 151.105 183.107 151.437 183.499 151.67C183.9 151.894 184.334 152.006 184.801 152.006C185.277 152.006 185.711 151.894 186.103 151.67C186.504 151.437 186.821 151.105 187.055 150.676C187.288 150.237 187.405 149.724 187.405 149.136ZM189.908 149.136C189.908 148.352 190.066 147.666 190.384 147.078C190.701 146.481 191.135 146.019 191.686 145.692C192.246 145.365 192.866 145.202 193.548 145.202C194.22 145.202 194.803 145.347 195.298 145.636C195.792 145.925 196.161 146.289 196.404 146.728V145.328H197.692V153H196.404V151.572C196.152 152.02 195.774 152.393 195.27 152.692C194.775 152.981 194.196 153.126 193.534 153.126C192.852 153.126 192.236 152.958 191.686 152.622C191.135 152.286 190.701 151.815 190.384 151.208C190.066 150.601 189.908 149.911 189.908 149.136ZM196.404 149.15C196.404 148.571 196.287 148.067 196.054 147.638C195.82 147.209 195.503 146.882 195.102 146.658C194.71 146.425 194.276 146.308 193.8 146.308C193.324 146.308 192.89 146.42 192.498 146.644C192.106 146.868 191.793 147.195 191.56 147.624C191.326 148.053 191.21 148.557 191.21 149.136C191.21 149.724 191.326 150.237 191.56 150.676C191.793 151.105 192.106 151.437 192.498 151.67C192.89 151.894 193.324 152.006 193.8 152.006C194.276 152.006 194.71 151.894 195.102 151.67C195.503 151.437 195.82 151.105 196.054 150.676C196.287 150.237 196.404 149.729 196.404 149.15ZM201.119 146.574C201.343 146.135 201.66 145.795 202.071 145.552C202.491 145.309 202.999 145.188 203.597 145.188V146.504H203.261C201.833 146.504 201.119 147.279 201.119 148.828V153H199.845V145.328H201.119V146.574ZM204.591 149.136C204.591 148.352 204.75 147.666 205.067 147.078C205.385 146.481 205.819 146.019 206.369 145.692C206.929 145.365 207.55 145.202 208.231 145.202C208.903 145.202 209.487 145.347 209.981 145.636C210.476 145.925 210.845 146.289 211.087 146.728V145.328H212.375V153H211.087V151.572C210.835 152.02 210.457 152.393 209.953 152.692C209.459 152.981 208.88 153.126 208.217 153.126C207.536 153.126 206.92 152.958 206.369 152.622C205.819 152.286 205.385 151.815 205.067 151.208C204.75 150.601 204.591 149.911 204.591 149.136ZM211.087 149.15C211.087 148.571 210.971 148.067 210.737 147.638C210.504 147.209 210.187 146.882 209.785 146.658C209.393 146.425 208.959 146.308 208.483 146.308C208.007 146.308 207.573 146.42 207.181 146.644C206.789 146.868 206.477 147.195 206.243 147.624C206.01 148.053 205.893 148.557 205.893 149.136C205.893 149.724 206.01 150.237 206.243 150.676C206.477 151.105 206.789 151.437 207.181 151.67C207.573 151.894 208.007 152.006 208.483 152.006C208.959 152.006 209.393 151.894 209.785 151.67C210.187 151.437 210.504 151.105 210.737 150.676C210.971 150.237 211.087 149.729 211.087 149.15ZM221.607 153.126C220.888 153.126 220.235 152.963 219.647 152.636C219.068 152.309 218.611 151.847 218.275 151.25C217.948 150.643 217.785 149.943 217.785 149.15C217.785 148.366 217.953 147.675 218.289 147.078C218.634 146.471 219.101 146.009 219.689 145.692C220.277 145.365 220.935 145.202 221.663 145.202C222.391 145.202 223.049 145.365 223.637 145.692C224.225 146.009 224.687 146.467 225.023 147.064C225.368 147.661 225.541 148.357 225.541 149.15C225.541 149.943 225.363 150.643 225.009 151.25C224.663 151.847 224.192 152.309 223.595 152.636C222.997 152.963 222.335 153.126 221.607 153.126ZM221.607 152.006C222.064 152.006 222.493 151.899 222.895 151.684C223.296 151.469 223.618 151.147 223.861 150.718C224.113 150.289 224.239 149.766 224.239 149.15C224.239 148.534 224.117 148.011 223.875 147.582C223.632 147.153 223.315 146.835 222.923 146.63C222.531 146.415 222.106 146.308 221.649 146.308C221.182 146.308 220.753 146.415 220.361 146.63C219.978 146.835 219.67 147.153 219.437 147.582C219.203 148.011 219.087 148.534 219.087 149.15C219.087 149.775 219.199 150.303 219.423 150.732C219.656 151.161 219.964 151.483 220.347 151.698C220.729 151.903 221.149 152.006 221.607 152.006ZM237.472 146.098C237.472 146.91 237.192 147.587 236.632 148.128C236.081 148.66 235.237 148.926 234.098 148.926H232.222V153H230.948V143.242H234.098C235.199 143.242 236.035 143.508 236.604 144.04C237.183 144.572 237.472 145.258 237.472 146.098ZM234.098 147.876C234.807 147.876 235.33 147.722 235.666 147.414C236.002 147.106 236.17 146.667 236.17 146.098C236.17 144.894 235.479 144.292 234.098 144.292H232.222V147.876H234.098ZM238.58 149.136C238.58 148.352 238.738 147.666 239.056 147.078C239.373 146.481 239.807 146.019 240.358 145.692C240.918 145.365 241.538 145.202 242.22 145.202C242.892 145.202 243.475 145.347 243.97 145.636C244.464 145.925 244.833 146.289 245.076 146.728V145.328H246.364V153H245.076V151.572C244.824 152.02 244.446 152.393 243.942 152.692C243.447 152.981 242.868 153.126 242.206 153.126C241.524 153.126 240.908 152.958 240.358 152.622C239.807 152.286 239.373 151.815 239.056 151.208C238.738 150.601 238.58 149.911 238.58 149.136ZM245.076 149.15C245.076 148.571 244.959 148.067 244.726 147.638C244.492 147.209 244.175 146.882 243.774 146.658C243.382 146.425 242.948 146.308 242.472 146.308C241.996 146.308 241.562 146.42 241.17 146.644C240.778 146.868 240.465 147.195 240.232 147.624C239.998 148.053 239.882 148.557 239.882 149.136C239.882 149.724 239.998 150.237 240.232 150.676C240.465 151.105 240.778 151.437 241.17 151.67C241.562 151.894 241.996 152.006 242.472 152.006C242.948 152.006 243.382 151.894 243.774 151.67C244.175 151.437 244.492 151.105 244.726 150.676C244.959 150.237 245.076 149.729 245.076 149.15ZM251.68 145.202C252.343 145.202 252.922 145.347 253.416 145.636C253.92 145.925 254.294 146.289 254.536 146.728V145.328H255.824V153.168C255.824 153.868 255.675 154.489 255.376 155.03C255.078 155.581 254.648 156.01 254.088 156.318C253.538 156.626 252.894 156.78 252.156 156.78C251.148 156.78 250.308 156.542 249.636 156.066C248.964 155.59 248.568 154.941 248.446 154.12H249.706C249.846 154.587 250.136 154.96 250.574 155.24C251.013 155.529 251.54 155.674 252.156 155.674C252.856 155.674 253.426 155.455 253.864 155.016C254.312 154.577 254.536 153.961 254.536 153.168V151.558C254.284 152.006 253.911 152.379 253.416 152.678C252.922 152.977 252.343 153.126 251.68 153.126C250.999 153.126 250.378 152.958 249.818 152.622C249.268 152.286 248.834 151.815 248.516 151.208C248.199 150.601 248.04 149.911 248.04 149.136C248.04 148.352 248.199 147.666 248.516 147.078C248.834 146.481 249.268 146.019 249.818 145.692C250.378 145.365 250.999 145.202 251.68 145.202ZM254.536 149.15C254.536 148.571 254.42 148.067 254.186 147.638C253.953 147.209 253.636 146.882 253.234 146.658C252.842 146.425 252.408 146.308 251.932 146.308C251.456 146.308 251.022 146.42 250.63 146.644C250.238 146.868 249.926 147.195 249.692 147.624C249.459 148.053 249.342 148.557 249.342 149.136C249.342 149.724 249.459 150.237 249.692 150.676C249.926 151.105 250.238 151.437 250.63 151.67C251.022 151.894 251.456 152.006 251.932 152.006C252.408 152.006 252.842 151.894 253.234 151.67C253.636 151.437 253.953 151.105 254.186 150.676C254.42 150.237 254.536 149.729 254.536 149.15ZM261.071 153.098C260.427 153.098 259.849 152.986 259.335 152.762C258.831 152.529 258.435 152.211 258.145 151.81C257.856 151.399 257.707 150.928 257.697 150.396H259.055C259.102 150.853 259.289 151.241 259.615 151.558C259.951 151.866 260.437 152.02 261.071 152.02C261.678 152.02 262.154 151.871 262.499 151.572C262.854 151.264 263.031 150.872 263.031 150.396C263.031 150.023 262.929 149.719 262.723 149.486C262.518 149.253 262.261 149.075 261.953 148.954C261.645 148.833 261.23 148.702 260.707 148.562C260.063 148.394 259.545 148.226 259.153 148.058C258.771 147.89 258.439 147.629 258.159 147.274C257.889 146.91 257.753 146.425 257.753 145.818C257.753 145.286 257.889 144.815 258.159 144.404C258.43 143.993 258.808 143.676 259.293 143.452C259.788 143.228 260.353 143.116 260.987 143.116C261.902 143.116 262.649 143.345 263.227 143.802C263.815 144.259 264.147 144.866 264.221 145.622H262.821C262.775 145.249 262.579 144.922 262.233 144.642C261.888 144.353 261.431 144.208 260.861 144.208C260.329 144.208 259.895 144.348 259.559 144.628C259.223 144.899 259.055 145.281 259.055 145.776C259.055 146.131 259.153 146.42 259.349 146.644C259.555 146.868 259.802 147.041 260.091 147.162C260.39 147.274 260.805 147.405 261.337 147.554C261.981 147.731 262.499 147.909 262.891 148.086C263.283 148.254 263.619 148.52 263.899 148.884C264.179 149.239 264.319 149.724 264.319 150.34C264.319 150.816 264.193 151.264 263.941 151.684C263.689 152.104 263.316 152.445 262.821 152.706C262.327 152.967 261.743 153.098 261.071 153.098ZM273.194 148.87C273.194 149.113 273.18 149.369 273.152 149.64H267.02C267.067 150.396 267.324 150.989 267.79 151.418C268.266 151.838 268.84 152.048 269.512 152.048C270.063 152.048 270.52 151.922 270.884 151.67C271.258 151.409 271.519 151.063 271.668 150.634H273.04C272.835 151.371 272.424 151.973 271.808 152.44C271.192 152.897 270.427 153.126 269.512 153.126C268.784 153.126 268.131 152.963 267.552 152.636C266.983 152.309 266.535 151.847 266.208 151.25C265.882 150.643 265.718 149.943 265.718 149.15C265.718 148.357 265.877 147.661 266.194 147.064C266.512 146.467 266.955 146.009 267.524 145.692C268.103 145.365 268.766 145.202 269.512 145.202C270.24 145.202 270.884 145.361 271.444 145.678C272.004 145.995 272.434 146.434 272.732 146.994C273.04 147.545 273.194 148.17 273.194 148.87ZM271.878 148.604C271.878 148.119 271.771 147.703 271.556 147.358C271.342 147.003 271.048 146.737 270.674 146.56C270.31 146.373 269.904 146.28 269.456 146.28C268.812 146.28 268.262 146.485 267.804 146.896C267.356 147.307 267.1 147.876 267.034 148.604H271.878ZM278.04 145.202C278.703 145.202 279.281 145.347 279.776 145.636C280.28 145.925 280.653 146.289 280.896 146.728V145.328H282.184V153.168C282.184 153.868 282.035 154.489 281.736 155.03C281.437 155.581 281.008 156.01 280.448 156.318C279.897 156.626 279.253 156.78 278.516 156.78C277.508 156.78 276.668 156.542 275.996 156.066C275.324 155.59 274.927 154.941 274.806 154.12H276.066C276.206 154.587 276.495 154.96 276.934 155.24C277.373 155.529 277.9 155.674 278.516 155.674C279.216 155.674 279.785 155.455 280.224 155.016C280.672 154.577 280.896 153.961 280.896 153.168V151.558C280.644 152.006 280.271 152.379 279.776 152.678C279.281 152.977 278.703 153.126 278.04 153.126C277.359 153.126 276.738 152.958 276.178 152.622C275.627 152.286 275.193 151.815 274.876 151.208C274.559 150.601 274.4 149.911 274.4 149.136C274.4 148.352 274.559 147.666 274.876 147.078C275.193 146.481 275.627 146.019 276.178 145.692C276.738 145.365 277.359 145.202 278.04 145.202ZM280.896 149.15C280.896 148.571 280.779 148.067 280.546 147.638C280.313 147.209 279.995 146.882 279.594 146.658C279.202 146.425 278.768 146.308 278.292 146.308C277.816 146.308 277.382 146.42 276.99 146.644C276.598 146.868 276.285 147.195 276.052 147.624C275.819 148.053 275.702 148.557 275.702 149.136C275.702 149.724 275.819 150.237 276.052 150.676C276.285 151.105 276.598 151.437 276.99 151.67C277.382 151.894 277.816 152.006 278.292 152.006C278.768 152.006 279.202 151.894 279.594 151.67C279.995 151.437 280.313 151.105 280.546 150.676C280.779 150.237 280.896 149.729 280.896 149.15ZM291.141 145.328V153H289.867V151.866C289.624 152.258 289.283 152.566 288.845 152.79C288.415 153.005 287.939 153.112 287.417 153.112C286.819 153.112 286.283 152.991 285.807 152.748C285.331 152.496 284.953 152.123 284.673 151.628C284.402 151.133 284.267 150.531 284.267 149.822V145.328H285.527V149.654C285.527 150.41 285.718 150.993 286.101 151.404C286.483 151.805 287.006 152.006 287.669 152.006C288.35 152.006 288.887 151.796 289.279 151.376C289.671 150.956 289.867 150.345 289.867 149.542V145.328H291.141ZM294.566 146.574C294.79 146.135 295.107 145.795 295.518 145.552C295.938 145.309 296.447 145.188 297.044 145.188V146.504H296.708C295.28 146.504 294.566 147.279 294.566 148.828V153H293.292V145.328H294.566V146.574ZM301.861 153.126C301.142 153.126 300.489 152.963 299.901 152.636C299.322 152.309 298.865 151.847 298.529 151.25C298.202 150.643 298.039 149.943 298.039 149.15C298.039 148.366 298.207 147.675 298.543 147.078C298.888 146.471 299.355 146.009 299.943 145.692C300.531 145.365 301.189 145.202 301.917 145.202C302.645 145.202 303.303 145.365 303.891 145.692C304.479 146.009 304.941 146.467 305.277 147.064C305.622 147.661 305.795 148.357 305.795 149.15C305.795 149.943 305.617 150.643 305.263 151.25C304.917 151.847 304.446 152.309 303.849 152.636C303.251 152.963 302.589 153.126 301.861 153.126ZM301.861 152.006C302.318 152.006 302.747 151.899 303.149 151.684C303.55 151.469 303.872 151.147 304.115 150.718C304.367 150.289 304.493 149.766 304.493 149.15C304.493 148.534 304.371 148.011 304.129 147.582C303.886 147.153 303.569 146.835 303.177 146.63C302.785 146.415 302.36 146.308 301.903 146.308C301.436 146.308 301.007 146.415 300.615 146.63C300.232 146.835 299.924 147.153 299.691 147.582C299.457 148.011 299.341 148.534 299.341 149.15C299.341 149.775 299.453 150.303 299.677 150.732C299.91 151.161 300.218 151.483 300.601 151.698C300.983 151.903 301.403 152.006 301.861 152.006ZM312.476 146.742C312.728 146.303 313.101 145.939 313.596 145.65C314.1 145.351 314.683 145.202 315.346 145.202C316.027 145.202 316.643 145.365 317.194 145.692C317.754 146.019 318.193 146.481 318.51 147.078C318.827 147.666 318.986 148.352 318.986 149.136C318.986 149.911 318.827 150.601 318.51 151.208C318.193 151.815 317.754 152.286 317.194 152.622C316.643 152.958 316.027 153.126 315.346 153.126C314.693 153.126 314.114 152.981 313.61 152.692C313.115 152.393 312.737 152.025 312.476 151.586V156.64H311.202V145.328H312.476V146.742ZM317.684 149.136C317.684 148.557 317.567 148.053 317.334 147.624C317.101 147.195 316.783 146.868 316.382 146.644C315.99 146.42 315.556 146.308 315.08 146.308C314.613 146.308 314.179 146.425 313.778 146.658C313.386 146.882 313.069 147.213 312.826 147.652C312.593 148.081 312.476 148.581 312.476 149.15C312.476 149.729 312.593 150.237 312.826 150.676C313.069 151.105 313.386 151.437 313.778 151.67C314.179 151.894 314.613 152.006 315.08 152.006C315.556 152.006 315.99 151.894 316.382 151.67C316.783 151.437 317.101 151.105 317.334 150.676C317.567 150.237 317.684 149.724 317.684 149.136ZM320.187 149.136C320.187 148.352 320.346 147.666 320.663 147.078C320.98 146.481 321.414 146.019 321.965 145.692C322.525 145.365 323.146 145.202 323.827 145.202C324.499 145.202 325.082 145.347 325.577 145.636C326.072 145.925 326.44 146.289 326.683 146.728V145.328H327.971V153H326.683V151.572C326.431 152.02 326.053 152.393 325.549 152.692C325.054 152.981 324.476 153.126 323.813 153.126C323.132 153.126 322.516 152.958 321.965 152.622C321.414 152.286 320.98 151.815 320.663 151.208C320.346 150.601 320.187 149.911 320.187 149.136ZM326.683 149.15C326.683 148.571 326.566 148.067 326.333 147.638C326.1 147.209 325.782 146.882 325.381 146.658C324.989 146.425 324.555 146.308 324.079 146.308C323.603 146.308 323.169 146.42 322.777 146.644C322.385 146.868 322.072 147.195 321.839 147.624C321.606 148.053 321.489 148.557 321.489 149.136C321.489 149.724 321.606 150.237 321.839 150.676C322.072 151.105 322.385 151.437 322.777 151.67C323.169 151.894 323.603 152.006 324.079 152.006C324.555 152.006 324.989 151.894 325.381 151.67C325.782 151.437 326.1 151.105 326.333 150.676C326.566 150.237 326.683 149.729 326.683 149.15ZM331.398 146.574C331.622 146.135 331.939 145.795 332.35 145.552C332.77 145.309 333.279 145.188 333.876 145.188V146.504H333.54C332.112 146.504 331.398 147.279 331.398 148.828V153H330.124V145.328H331.398V146.574ZM334.871 149.136C334.871 148.352 335.029 147.666 335.347 147.078C335.664 146.481 336.098 146.019 336.649 145.692C337.209 145.365 337.829 145.202 338.511 145.202C339.183 145.202 339.766 145.347 340.261 145.636C340.755 145.925 341.124 146.289 341.367 146.728V145.328H342.655V153H341.367V151.572C341.115 152.02 340.737 152.393 340.233 152.692C339.738 152.981 339.159 153.126 338.497 153.126C337.815 153.126 337.199 152.958 336.649 152.622C336.098 152.286 335.664 151.815 335.347 151.208C335.029 150.601 334.871 149.911 334.871 149.136ZM341.367 149.15C341.367 148.571 341.25 148.067 341.017 147.638C340.783 147.209 340.466 146.882 340.065 146.658C339.673 146.425 339.239 146.308 338.763 146.308C338.287 146.308 337.853 146.42 337.461 146.644C337.069 146.868 336.756 147.195 336.523 147.624C336.289 148.053 336.173 148.557 336.173 149.136C336.173 149.724 336.289 150.237 336.523 150.676C336.756 151.105 337.069 151.437 337.461 151.67C337.853 151.894 338.287 152.006 338.763 152.006C339.239 152.006 339.673 151.894 340.065 151.67C340.466 151.437 340.783 151.105 341.017 150.676C341.25 150.237 341.367 149.729 341.367 149.15ZM351.662 146.378H350.052V153H348.778V146.378H347.784V145.328H348.778V144.782C348.778 143.923 348.997 143.298 349.436 142.906C349.884 142.505 350.598 142.304 351.578 142.304V143.368C351.018 143.368 350.621 143.48 350.388 143.704C350.164 143.919 350.052 144.278 350.052 144.782V145.328H351.662V146.378ZM353.805 144.082C353.563 144.082 353.357 143.998 353.189 143.83C353.021 143.662 352.937 143.457 352.937 143.214C352.937 142.971 353.021 142.766 353.189 142.598C353.357 142.43 353.563 142.346 353.805 142.346C354.039 142.346 354.235 142.43 354.393 142.598C354.561 142.766 354.645 142.971 354.645 143.214C354.645 143.457 354.561 143.662 354.393 143.83C354.235 143.998 354.039 144.082 353.805 144.082ZM354.421 145.328V153H353.147V145.328H354.421ZM360.331 145.188C361.264 145.188 362.02 145.473 362.599 146.042C363.177 146.602 363.467 147.414 363.467 148.478V153H362.207V148.66C362.207 147.895 362.015 147.311 361.633 146.91C361.25 146.499 360.727 146.294 360.065 146.294C359.393 146.294 358.856 146.504 358.455 146.924C358.063 147.344 357.867 147.955 357.867 148.758V153H356.593V145.328H357.867V146.42C358.119 146.028 358.459 145.725 358.889 145.51C359.327 145.295 359.808 145.188 360.331 145.188ZM365.072 149.136C365.072 148.352 365.23 147.666 365.548 147.078C365.865 146.481 366.299 146.019 366.85 145.692C367.41 145.365 368.03 145.202 368.712 145.202C369.384 145.202 369.967 145.347 370.462 145.636C370.956 145.925 371.325 146.289 371.568 146.728V145.328H372.856V153H371.568V151.572C371.316 152.02 370.938 152.393 370.434 152.692C369.939 152.981 369.36 153.126 368.698 153.126C368.016 153.126 367.4 152.958 366.85 152.622C366.299 152.286 365.865 151.815 365.548 151.208C365.23 150.601 365.072 149.911 365.072 149.136ZM371.568 149.15C371.568 148.571 371.451 148.067 371.218 147.638C370.984 147.209 370.667 146.882 370.266 146.658C369.874 146.425 369.44 146.308 368.964 146.308C368.488 146.308 368.054 146.42 367.662 146.644C367.27 146.868 366.957 147.195 366.724 147.624C366.49 148.053 366.374 148.557 366.374 149.136C366.374 149.724 366.49 150.237 366.724 150.676C366.957 151.105 367.27 151.437 367.662 151.67C368.054 151.894 368.488 152.006 368.964 152.006C369.44 152.006 369.874 151.894 370.266 151.67C370.667 151.437 370.984 151.105 371.218 150.676C371.451 150.237 371.568 149.729 371.568 149.15ZM376.283 142.64V153H375.009V142.64H376.283ZM379.112 144.082C378.869 144.082 378.664 143.998 378.496 143.83C378.328 143.662 378.244 143.457 378.244 143.214C378.244 142.971 378.328 142.766 378.496 142.598C378.664 142.43 378.869 142.346 379.112 142.346C379.345 142.346 379.541 142.43 379.7 142.598C379.868 142.766 379.952 142.971 379.952 143.214C379.952 143.457 379.868 143.662 379.7 143.83C379.541 143.998 379.345 144.082 379.112 144.082ZM379.728 145.328V153H378.454V145.328H379.728ZM382.851 151.95H386.617V153H381.395V151.95L385.119 146.364H381.423V145.328H386.589V146.364L382.851 151.95ZM387.794 149.136C387.794 148.352 387.953 147.666 388.27 147.078C388.588 146.481 389.022 146.019 389.572 145.692C390.132 145.365 390.753 145.202 391.434 145.202C392.106 145.202 392.69 145.347 393.184 145.636C393.679 145.925 394.048 146.289 394.29 146.728V145.328H395.578V153H394.29V151.572C394.038 152.02 393.66 152.393 393.156 152.692C392.662 152.981 392.083 153.126 391.42 153.126C390.739 153.126 390.123 152.958 389.572 152.622C389.022 152.286 388.588 151.815 388.27 151.208C387.953 150.601 387.794 149.911 387.794 149.136ZM394.29 149.15C394.29 148.571 394.174 148.067 393.94 147.638C393.707 147.209 393.39 146.882 392.988 146.658C392.596 146.425 392.162 146.308 391.686 146.308C391.21 146.308 390.776 146.42 390.384 146.644C389.992 146.868 389.68 147.195 389.446 147.624C389.213 148.053 389.096 148.557 389.096 149.136C389.096 149.724 389.213 150.237 389.446 150.676C389.68 151.105 389.992 151.437 390.384 151.67C390.776 151.894 391.21 152.006 391.686 152.006C392.162 152.006 392.596 151.894 392.988 151.67C393.39 151.437 393.707 151.105 393.94 150.676C394.174 150.237 394.29 149.729 394.29 149.15ZM399.005 146.574C399.229 146.135 399.547 145.795 399.957 145.552C400.377 145.309 400.886 145.188 401.483 145.188V146.504H401.147C399.719 146.504 399.005 147.279 399.005 148.828V153H397.731V145.328H399.005V146.574ZM409.402 153.126C408.814 153.126 408.287 153.028 407.82 152.832C407.354 152.627 406.985 152.347 406.714 151.992C406.444 151.628 406.294 151.213 406.266 150.746H407.582C407.62 151.129 407.797 151.441 408.114 151.684C408.441 151.927 408.866 152.048 409.388 152.048C409.874 152.048 410.256 151.941 410.536 151.726C410.816 151.511 410.956 151.241 410.956 150.914C410.956 150.578 410.807 150.331 410.508 150.172C410.21 150.004 409.748 149.841 409.122 149.682C408.553 149.533 408.086 149.383 407.722 149.234C407.368 149.075 407.06 148.847 406.798 148.548C406.546 148.24 406.42 147.839 406.42 147.344C406.42 146.952 406.537 146.593 406.77 146.266C407.004 145.939 407.335 145.683 407.764 145.496C408.194 145.3 408.684 145.202 409.234 145.202C410.084 145.202 410.77 145.417 411.292 145.846C411.815 146.275 412.095 146.863 412.132 147.61H410.858C410.83 147.209 410.667 146.887 410.368 146.644C410.079 146.401 409.687 146.28 409.192 146.28C408.735 146.28 408.371 146.378 408.1 146.574C407.83 146.77 407.694 147.027 407.694 147.344C407.694 147.596 407.774 147.806 407.932 147.974C408.1 148.133 408.306 148.263 408.548 148.366C408.8 148.459 409.146 148.567 409.584 148.688C410.135 148.837 410.583 148.987 410.928 149.136C411.274 149.276 411.568 149.491 411.81 149.78C412.062 150.069 412.193 150.447 412.202 150.914C412.202 151.334 412.086 151.712 411.852 152.048C411.619 152.384 411.288 152.65 410.858 152.846C410.438 153.033 409.953 153.126 409.402 153.126ZM420.805 145.328V153H419.531V151.866C419.288 152.258 418.948 152.566 418.509 152.79C418.08 153.005 417.604 153.112 417.081 153.112C416.484 153.112 415.947 152.991 415.471 152.748C414.995 152.496 414.617 152.123 414.337 151.628C414.066 151.133 413.931 150.531 413.931 149.822V145.328H415.191V149.654C415.191 150.41 415.382 150.993 415.765 151.404C416.148 151.805 416.67 152.006 417.333 152.006C418.014 152.006 418.551 151.796 418.943 151.376C419.335 150.956 419.531 150.345 419.531 149.542V145.328H420.805ZM422.48 149.136C422.48 148.352 422.639 147.666 422.956 147.078C423.273 146.481 423.707 146.019 424.258 145.692C424.818 145.365 425.439 145.202 426.12 145.202C426.792 145.202 427.375 145.347 427.87 145.636C428.365 145.925 428.733 146.289 428.976 146.728V145.328H430.264V153H428.976V151.572C428.724 152.02 428.346 152.393 427.842 152.692C427.347 152.981 426.769 153.126 426.106 153.126C425.425 153.126 424.809 152.958 424.258 152.622C423.707 152.286 423.273 151.815 422.956 151.208C422.639 150.601 422.48 149.911 422.48 149.136ZM428.976 149.15C428.976 148.571 428.859 148.067 428.626 147.638C428.393 147.209 428.075 146.882 427.674 146.658C427.282 146.425 426.848 146.308 426.372 146.308C425.896 146.308 425.462 146.42 425.07 146.644C424.678 146.868 424.365 147.195 424.132 147.624C423.899 148.053 423.782 148.557 423.782 149.136C423.782 149.724 423.899 150.237 424.132 150.676C424.365 151.105 424.678 151.437 425.07 151.67C425.462 151.894 425.896 152.006 426.372 152.006C426.848 152.006 427.282 151.894 427.674 151.67C428.075 151.437 428.393 151.105 428.626 150.676C428.859 150.237 428.976 149.729 428.976 149.15ZM167.937 170.15C167.937 169.357 168.096 168.666 168.413 168.078C168.73 167.481 169.169 167.019 169.729 166.692C170.298 166.365 170.947 166.202 171.675 166.202C172.618 166.202 173.392 166.431 173.999 166.888C174.615 167.345 175.021 167.98 175.217 168.792H173.845C173.714 168.325 173.458 167.957 173.075 167.686C172.702 167.415 172.235 167.28 171.675 167.28C170.947 167.28 170.359 167.532 169.911 168.036C169.463 168.531 169.239 169.235 169.239 170.15C169.239 171.074 169.463 171.788 169.911 172.292C170.359 172.796 170.947 173.048 171.675 173.048C172.235 173.048 172.702 172.917 173.075 172.656C173.448 172.395 173.705 172.021 173.845 171.536H175.217C175.012 172.32 174.601 172.95 173.985 173.426C173.369 173.893 172.599 174.126 171.675 174.126C170.947 174.126 170.298 173.963 169.729 173.636C169.169 173.309 168.73 172.847 168.413 172.25C168.096 171.653 167.937 170.953 167.937 170.15ZM180.263 174.126C179.544 174.126 178.891 173.963 178.303 173.636C177.724 173.309 177.267 172.847 176.931 172.25C176.604 171.643 176.441 170.943 176.441 170.15C176.441 169.366 176.609 168.675 176.945 168.078C177.29 167.471 177.757 167.009 178.345 166.692C178.933 166.365 179.591 166.202 180.319 166.202C181.047 166.202 181.705 166.365 182.293 166.692C182.881 167.009 183.343 167.467 183.679 168.064C184.024 168.661 184.197 169.357 184.197 170.15C184.197 170.943 184.02 171.643 183.665 172.25C183.32 172.847 182.848 173.309 182.251 173.636C181.654 173.963 180.991 174.126 180.263 174.126ZM180.263 173.006C180.72 173.006 181.15 172.899 181.551 172.684C181.952 172.469 182.274 172.147 182.517 171.718C182.769 171.289 182.895 170.766 182.895 170.15C182.895 169.534 182.774 169.011 182.531 168.582C182.288 168.153 181.971 167.835 181.579 167.63C181.187 167.415 180.762 167.308 180.305 167.308C179.838 167.308 179.409 167.415 179.017 167.63C178.634 167.835 178.326 168.153 178.093 168.582C177.86 169.011 177.743 169.534 177.743 170.15C177.743 170.775 177.855 171.303 178.079 171.732C178.312 172.161 178.62 172.483 179.003 172.698C179.386 172.903 179.806 173.006 180.263 173.006ZM195.098 166.188C195.695 166.188 196.227 166.314 196.694 166.566C197.161 166.809 197.529 167.177 197.8 167.672C198.071 168.167 198.206 168.769 198.206 169.478V174H196.946V169.66C196.946 168.895 196.755 168.311 196.372 167.91C195.999 167.499 195.49 167.294 194.846 167.294C194.183 167.294 193.656 167.509 193.264 167.938C192.872 168.358 192.676 168.969 192.676 169.772V174H191.416V169.66C191.416 168.895 191.225 168.311 190.842 167.91C190.469 167.499 189.96 167.294 189.316 167.294C188.653 167.294 188.126 167.509 187.734 167.938C187.342 168.358 187.146 168.969 187.146 169.772V174H185.872V166.328H187.146V167.434C187.398 167.033 187.734 166.725 188.154 166.51C188.583 166.295 189.055 166.188 189.568 166.188C190.212 166.188 190.781 166.333 191.276 166.622C191.771 166.911 192.139 167.336 192.382 167.896C192.597 167.355 192.951 166.935 193.446 166.636C193.941 166.337 194.491 166.188 195.098 166.188ZM201.57 167.742C201.822 167.303 202.195 166.939 202.69 166.65C203.194 166.351 203.777 166.202 204.44 166.202C205.121 166.202 205.737 166.365 206.288 166.692C206.848 167.019 207.286 167.481 207.604 168.078C207.921 168.666 208.08 169.352 208.08 170.136C208.08 170.911 207.921 171.601 207.604 172.208C207.286 172.815 206.848 173.286 206.288 173.622C205.737 173.958 205.121 174.126 204.44 174.126C203.786 174.126 203.208 173.981 202.704 173.692C202.209 173.393 201.831 173.025 201.57 172.586V177.64H200.296V166.328H201.57V167.742ZM206.778 170.136C206.778 169.557 206.661 169.053 206.428 168.624C206.194 168.195 205.877 167.868 205.476 167.644C205.084 167.42 204.65 167.308 204.174 167.308C203.707 167.308 203.273 167.425 202.872 167.658C202.48 167.882 202.162 168.213 201.92 168.652C201.686 169.081 201.57 169.581 201.57 170.15C201.57 170.729 201.686 171.237 201.92 171.676C202.162 172.105 202.48 172.437 202.872 172.67C203.273 172.894 203.707 173.006 204.174 173.006C204.65 173.006 205.084 172.894 205.476 172.67C205.877 172.437 206.194 172.105 206.428 171.676C206.661 171.237 206.778 170.724 206.778 170.136ZM211.031 167.574C211.255 167.135 211.572 166.795 211.983 166.552C212.403 166.309 212.911 166.188 213.509 166.188V167.504H213.173C211.745 167.504 211.031 168.279 211.031 169.828V174H209.757V166.328H211.031V167.574ZM214.503 170.136C214.503 169.352 214.662 168.666 214.979 168.078C215.297 167.481 215.731 167.019 216.281 166.692C216.841 166.365 217.462 166.202 218.143 166.202C218.815 166.202 219.399 166.347 219.893 166.636C220.388 166.925 220.757 167.289 220.999 167.728V166.328H222.287V174H220.999V172.572C220.747 173.02 220.369 173.393 219.865 173.692C219.371 173.981 218.792 174.126 218.129 174.126C217.448 174.126 216.832 173.958 216.281 173.622C215.731 173.286 215.297 172.815 214.979 172.208C214.662 171.601 214.503 170.911 214.503 170.136ZM220.999 170.15C220.999 169.571 220.883 169.067 220.649 168.638C220.416 168.209 220.099 167.882 219.697 167.658C219.305 167.425 218.871 167.308 218.395 167.308C217.919 167.308 217.485 167.42 217.093 167.644C216.701 167.868 216.389 168.195 216.155 168.624C215.922 169.053 215.805 169.557 215.805 170.136C215.805 170.724 215.922 171.237 216.155 171.676C216.389 172.105 216.701 172.437 217.093 172.67C217.485 172.894 217.919 173.006 218.395 173.006C218.871 173.006 219.305 172.894 219.697 172.67C220.099 172.437 220.416 172.105 220.649 171.676C220.883 171.237 220.999 170.729 220.999 170.15ZM227.697 170.15C227.697 169.357 227.855 168.666 228.173 168.078C228.49 167.481 228.929 167.019 229.489 166.692C230.058 166.365 230.707 166.202 231.435 166.202C232.377 166.202 233.152 166.431 233.759 166.888C234.375 167.345 234.781 167.98 234.977 168.792H233.605C233.474 168.325 233.217 167.957 232.835 167.686C232.461 167.415 231.995 167.28 231.435 167.28C230.707 167.28 230.119 167.532 229.671 168.036C229.223 168.531 228.999 169.235 228.999 170.15C228.999 171.074 229.223 171.788 229.671 172.292C230.119 172.796 230.707 173.048 231.435 173.048C231.995 173.048 232.461 172.917 232.835 172.656C233.208 172.395 233.465 172.021 233.605 171.536H234.977C234.771 172.32 234.361 172.95 233.745 173.426C233.129 173.893 232.359 174.126 231.435 174.126C230.707 174.126 230.058 173.963 229.489 173.636C228.929 173.309 228.49 172.847 228.173 172.25C227.855 171.653 227.697 170.953 227.697 170.15ZM240.023 174.126C239.304 174.126 238.651 173.963 238.063 173.636C237.484 173.309 237.027 172.847 236.691 172.25C236.364 171.643 236.201 170.943 236.201 170.15C236.201 169.366 236.369 168.675 236.705 168.078C237.05 167.471 237.517 167.009 238.105 166.692C238.693 166.365 239.351 166.202 240.079 166.202C240.807 166.202 241.465 166.365 242.053 166.692C242.641 167.009 243.103 167.467 243.439 168.064C243.784 168.661 243.957 169.357 243.957 170.15C243.957 170.943 243.779 171.643 243.425 172.25C243.079 172.847 242.608 173.309 242.011 173.636C241.413 173.963 240.751 174.126 240.023 174.126ZM240.023 173.006C240.48 173.006 240.909 172.899 241.311 172.684C241.712 172.469 242.034 172.147 242.277 171.718C242.529 171.289 242.655 170.766 242.655 170.15C242.655 169.534 242.533 169.011 242.291 168.582C242.048 168.153 241.731 167.835 241.339 167.63C240.947 167.415 240.522 167.308 240.065 167.308C239.598 167.308 239.169 167.415 238.777 167.63C238.394 167.835 238.086 168.153 237.853 168.582C237.619 169.011 237.503 169.534 237.503 170.15C237.503 170.775 237.615 171.303 237.839 171.732C238.072 172.161 238.38 172.483 238.763 172.698C239.145 172.903 239.565 173.006 240.023 173.006ZM254.858 166.188C255.455 166.188 255.987 166.314 256.454 166.566C256.92 166.809 257.289 167.177 257.56 167.672C257.83 168.167 257.966 168.769 257.966 169.478V174H256.706V169.66C256.706 168.895 256.514 168.311 256.132 167.91C255.758 167.499 255.25 167.294 254.606 167.294C253.943 167.294 253.416 167.509 253.024 167.938C252.632 168.358 252.436 168.969 252.436 169.772V174H251.176V169.66C251.176 168.895 250.984 168.311 250.602 167.91C250.228 167.499 249.72 167.294 249.076 167.294C248.413 167.294 247.886 167.509 247.494 167.938C247.102 168.358 246.906 168.969 246.906 169.772V174H245.632V166.328H246.906V167.434C247.158 167.033 247.494 166.725 247.914 166.51C248.343 166.295 248.814 166.188 249.328 166.188C249.972 166.188 250.541 166.333 251.036 166.622C251.53 166.911 251.899 167.336 252.142 167.896C252.356 167.355 252.711 166.935 253.206 166.636C253.7 166.337 254.251 166.188 254.858 166.188ZM266.504 174.126C265.916 174.126 265.389 174.028 264.922 173.832C264.455 173.627 264.087 173.347 263.816 172.992C263.545 172.628 263.396 172.213 263.368 171.746H264.684C264.721 172.129 264.899 172.441 265.216 172.684C265.543 172.927 265.967 173.048 266.49 173.048C266.975 173.048 267.358 172.941 267.638 172.726C267.918 172.511 268.058 172.241 268.058 171.914C268.058 171.578 267.909 171.331 267.61 171.172C267.311 171.004 266.849 170.841 266.224 170.682C265.655 170.533 265.188 170.383 264.824 170.234C264.469 170.075 264.161 169.847 263.9 169.548C263.648 169.24 263.522 168.839 263.522 168.344C263.522 167.952 263.639 167.593 263.872 167.266C264.105 166.939 264.437 166.683 264.866 166.496C265.295 166.3 265.785 166.202 266.336 166.202C267.185 166.202 267.871 166.417 268.394 166.846C268.917 167.275 269.197 167.863 269.234 168.61H267.96C267.932 168.209 267.769 167.887 267.47 167.644C267.181 167.401 266.789 167.28 266.294 167.28C265.837 167.28 265.473 167.378 265.202 167.574C264.931 167.77 264.796 168.027 264.796 168.344C264.796 168.596 264.875 168.806 265.034 168.974C265.202 169.133 265.407 169.263 265.65 169.366C265.902 169.459 266.247 169.567 266.686 169.688C267.237 169.837 267.685 169.987 268.03 170.136C268.375 170.276 268.669 170.491 268.912 170.78C269.164 171.069 269.295 171.447 269.304 171.914C269.304 172.334 269.187 172.712 268.954 173.048C268.721 173.384 268.389 173.65 267.96 173.846C267.54 174.033 267.055 174.126 266.504 174.126ZM278.102 169.87C278.102 170.113 278.088 170.369 278.06 170.64H271.928C271.975 171.396 272.232 171.989 272.698 172.418C273.174 172.838 273.748 173.048 274.42 173.048C274.971 173.048 275.428 172.922 275.792 172.67C276.166 172.409 276.427 172.063 276.576 171.634H277.948C277.743 172.371 277.332 172.973 276.716 173.44C276.1 173.897 275.335 174.126 274.42 174.126C273.692 174.126 273.039 173.963 272.46 173.636C271.891 173.309 271.443 172.847 271.116 172.25C270.79 171.643 270.626 170.943 270.626 170.15C270.626 169.357 270.785 168.661 271.102 168.064C271.42 167.467 271.863 167.009 272.432 166.692C273.011 166.365 273.674 166.202 274.42 166.202C275.148 166.202 275.792 166.361 276.352 166.678C276.912 166.995 277.342 167.434 277.64 167.994C277.948 168.545 278.102 169.17 278.102 169.87ZM276.786 169.604C276.786 169.119 276.679 168.703 276.464 168.358C276.25 168.003 275.956 167.737 275.582 167.56C275.218 167.373 274.812 167.28 274.364 167.28C273.72 167.28 273.17 167.485 272.712 167.896C272.264 168.307 272.008 168.876 271.942 169.604H276.786ZM282.948 166.202C283.611 166.202 284.189 166.347 284.684 166.636C285.188 166.925 285.561 167.289 285.804 167.728V166.328H287.092V174.168C287.092 174.868 286.943 175.489 286.644 176.03C286.345 176.581 285.916 177.01 285.356 177.318C284.805 177.626 284.161 177.78 283.424 177.78C282.416 177.78 281.576 177.542 280.904 177.066C280.232 176.59 279.835 175.941 279.714 175.12H280.974C281.114 175.587 281.403 175.96 281.842 176.24C282.281 176.529 282.808 176.674 283.424 176.674C284.124 176.674 284.693 176.455 285.132 176.016C285.58 175.577 285.804 174.961 285.804 174.168V172.558C285.552 173.006 285.179 173.379 284.684 173.678C284.189 173.977 283.611 174.126 282.948 174.126C282.267 174.126 281.646 173.958 281.086 173.622C280.535 173.286 280.101 172.815 279.784 172.208C279.467 171.601 279.308 170.911 279.308 170.136C279.308 169.352 279.467 168.666 279.784 168.078C280.101 167.481 280.535 167.019 281.086 166.692C281.646 166.365 282.267 166.202 282.948 166.202ZM285.804 170.15C285.804 169.571 285.687 169.067 285.454 168.638C285.221 168.209 284.903 167.882 284.502 167.658C284.11 167.425 283.676 167.308 283.2 167.308C282.724 167.308 282.29 167.42 281.898 167.644C281.506 167.868 281.193 168.195 280.96 168.624C280.727 169.053 280.61 169.557 280.61 170.136C280.61 170.724 280.727 171.237 280.96 171.676C281.193 172.105 281.506 172.437 281.898 172.67C282.29 172.894 282.724 173.006 283.2 173.006C283.676 173.006 284.11 172.894 284.502 172.67C284.903 172.437 285.221 172.105 285.454 171.676C285.687 171.237 285.804 170.729 285.804 170.15ZM296.049 166.328V174H294.775V172.866C294.532 173.258 294.192 173.566 293.753 173.79C293.324 174.005 292.848 174.112 292.325 174.112C291.728 174.112 291.191 173.991 290.715 173.748C290.239 173.496 289.861 173.123 289.581 172.628C289.31 172.133 289.175 171.531 289.175 170.822V166.328H290.435V170.654C290.435 171.41 290.626 171.993 291.009 172.404C291.392 172.805 291.914 173.006 292.577 173.006C293.258 173.006 293.795 172.796 294.187 172.376C294.579 171.956 294.775 171.345 294.775 170.542V166.328H296.049ZM299.474 167.574C299.698 167.135 300.015 166.795 300.426 166.552C300.846 166.309 301.355 166.188 301.952 166.188V167.504H301.616C300.188 167.504 299.474 168.279 299.474 169.828V174H298.2V166.328H299.474V167.574ZM302.947 170.136C302.947 169.352 303.105 168.666 303.423 168.078C303.74 167.481 304.174 167.019 304.725 166.692C305.285 166.365 305.905 166.202 306.587 166.202C307.259 166.202 307.842 166.347 308.337 166.636C308.831 166.925 309.2 167.289 309.443 167.728V166.328H310.731V174H309.443V172.572C309.191 173.02 308.813 173.393 308.309 173.692C307.814 173.981 307.235 174.126 306.573 174.126C305.891 174.126 305.275 173.958 304.725 173.622C304.174 173.286 303.74 172.815 303.423 172.208C303.105 171.601 302.947 170.911 302.947 170.136ZM309.443 170.15C309.443 169.571 309.326 169.067 309.093 168.638C308.859 168.209 308.542 167.882 308.141 167.658C307.749 167.425 307.315 167.308 306.839 167.308C306.363 167.308 305.929 167.42 305.537 167.644C305.145 167.868 304.832 168.195 304.599 168.624C304.365 169.053 304.249 169.557 304.249 170.136C304.249 170.724 304.365 171.237 304.599 171.676C304.832 172.105 305.145 172.437 305.537 172.67C305.929 172.894 306.363 173.006 306.839 173.006C307.315 173.006 307.749 172.894 308.141 172.67C308.542 172.437 308.859 172.105 309.093 171.676C309.326 171.237 309.443 170.729 309.443 170.15ZM316.622 166.188C317.555 166.188 318.311 166.473 318.89 167.042C319.468 167.602 319.758 168.414 319.758 169.478V174H318.498V169.66C318.498 168.895 318.306 168.311 317.924 167.91C317.541 167.499 317.018 167.294 316.356 167.294C315.684 167.294 315.147 167.504 314.746 167.924C314.354 168.344 314.158 168.955 314.158 169.758V174H312.884V166.328H314.158V167.42C314.41 167.028 314.75 166.725 315.18 166.51C315.618 166.295 316.099 166.188 316.622 166.188ZM325.101 173.048C325.661 173.048 326.127 172.917 326.501 172.656C326.874 172.395 327.131 172.021 327.271 171.536H328.643C328.456 172.264 328.087 172.861 327.537 173.328C326.995 173.785 326.314 174.047 325.493 174.112V174.812C326.043 174.803 326.482 174.919 326.809 175.162C327.135 175.405 327.299 175.75 327.299 176.198C327.299 176.637 327.14 176.987 326.823 177.248C326.505 177.509 326.095 177.64 325.591 177.64H323.981V176.814H325.339C325.647 176.814 325.871 176.767 326.011 176.674C326.16 176.581 326.235 176.422 326.235 176.198C326.235 175.983 326.16 175.829 326.011 175.736C325.871 175.643 325.647 175.596 325.339 175.596H324.639V174.098C323.995 174.033 323.425 173.832 322.931 173.496C322.436 173.151 322.049 172.693 321.769 172.124C321.498 171.545 321.363 170.887 321.363 170.15C321.363 169.357 321.521 168.666 321.839 168.078C322.156 167.481 322.595 167.019 323.155 166.692C323.724 166.365 324.373 166.202 325.101 166.202C326.043 166.202 326.818 166.431 327.425 166.888C328.041 167.345 328.447 167.98 328.643 168.792H327.271C327.14 168.325 326.883 167.957 326.501 167.686C326.127 167.415 325.661 167.28 325.101 167.28C324.373 167.28 323.785 167.532 323.337 168.036C322.889 168.531 322.665 169.235 322.665 170.15C322.665 171.074 322.889 171.788 323.337 172.292C323.785 172.796 324.373 173.048 325.101 173.048ZM329.867 170.136C329.867 169.352 330.025 168.666 330.343 168.078C330.66 167.481 331.094 167.019 331.645 166.692C332.205 166.365 332.825 166.202 333.507 166.202C334.179 166.202 334.762 166.347 335.257 166.636C335.751 166.925 336.12 167.289 336.363 167.728V166.328H337.651V174H336.363V172.572C336.111 173.02 335.733 173.393 335.229 173.692C334.734 173.981 334.155 174.126 333.493 174.126C332.811 174.126 332.195 173.958 331.645 173.622C331.094 173.286 330.66 172.815 330.343 172.208C330.025 171.601 329.867 170.911 329.867 170.136ZM336.363 170.15C336.363 169.571 336.246 169.067 336.013 168.638C335.779 168.209 335.462 167.882 335.061 167.658C334.669 167.425 334.235 167.308 333.759 167.308C333.283 167.308 332.849 167.42 332.457 167.644C332.065 167.868 331.752 168.195 331.519 168.624C331.285 169.053 331.169 169.557 331.169 170.136C331.169 170.724 331.285 171.237 331.519 171.676C331.752 172.105 332.065 172.437 332.457 172.67C332.849 172.894 333.283 173.006 333.759 173.006C334.235 173.006 334.669 172.894 335.061 172.67C335.462 172.437 335.779 172.105 336.013 171.676C336.246 171.237 336.363 170.729 336.363 170.15ZM340.21 174.084C339.967 174.084 339.762 174 339.594 173.832C339.426 173.664 339.342 173.459 339.342 173.216C339.342 172.973 339.426 172.768 339.594 172.6C339.762 172.432 339.967 172.348 340.21 172.348C340.443 172.348 340.639 172.432 340.798 172.6C340.966 172.768 341.05 172.973 341.05 173.216C341.05 173.459 340.966 173.664 340.798 173.832C340.639 174 340.443 174.084 340.21 174.084Z" fill="black" fill-opacity="0.54"/>
<defs>
<clipPath id="clip0_4_2526">
<rect width="33" height="33" fill="white" transform="translate(425.5 41.5)"/>
</clipPath>
</defs>
</svg>
