<svg width="509" height="212" viewBox="0 0 509 212" fill="none" xmlns="http://www.w3.org/2000/svg">
<rect x="0.5" y="0.5" width="508" height="211" rx="7.5" stroke="#C4C4C4"/>
<g clip-path="url(#clip0_4_2450)">
<path fill-rule="evenodd" clip-rule="evenodd" d="M57.9356 44.2402H72.7639C80.7253 44.2402 83.7224 48.2268 83.2592 54.0837C82.4937 63.753 76.5838 69.1026 68.7448 69.1026H64.7871C63.7115 69.1026 62.9881 69.8067 62.6972 71.7149L61.0169 82.8077C60.9059 83.527 60.5231 83.9435 59.9489 84.0003H50.6325C49.756 84.0003 49.4459 83.3377 49.6756 81.9029L55.3558 46.3414C55.5778 44.9179 56.3663 44.2402 57.9356 44.2402Z" fill="#009EE3"/>
<path fill-rule="evenodd" clip-rule="evenodd" d="M122.312 43.5811C127.315 43.5811 131.931 46.2653 131.3 52.9551C130.534 60.9056 126.228 65.3048 119.434 65.3238H113.497C112.644 65.3238 112.23 66.0128 112.008 67.425L110.86 74.6448C110.688 75.7351 110.121 76.2727 109.287 76.2727H103.764C102.883 76.2727 102.577 75.7162 102.772 74.4706L107.331 45.5346C107.557 44.1111 108.097 43.5811 109.08 43.5811H122.301H122.312ZM113.317 59.0732H117.815C120.628 58.9671 122.496 57.0401 122.684 53.5646C122.798 51.418 121.332 49.8809 119.001 49.8922L114.768 49.9112L113.317 59.0732ZM146.315 74.0579C146.821 73.6036 147.334 73.3689 147.261 73.9292L147.081 75.2694C146.989 75.9698 147.269 76.3409 147.927 76.3409H152.834C153.661 76.3409 154.063 76.0115 154.265 74.747L157.289 55.9762C157.442 55.0335 157.209 54.5717 156.485 54.5717H151.089C150.602 54.5717 150.365 54.8405 150.239 55.5749L150.04 56.7296C149.936 57.3316 149.657 57.4376 149.397 56.8319C148.482 54.689 146.147 53.7274 142.89 53.8031C135.322 53.9583 130.22 59.6411 129.673 66.9252C129.252 72.5587 133.332 76.9845 138.714 76.9845C142.618 76.9845 144.363 75.8487 146.331 74.0693L146.315 74.0579ZM142.205 71.1693C138.947 71.1693 136.677 68.5986 137.148 65.4487C137.619 62.2988 140.666 59.7281 143.923 59.7281C147.18 59.7281 149.45 62.2988 148.979 65.4487C148.509 68.5986 145.466 71.1693 142.205 71.1693ZM166.893 54.5111H161.917C160.891 54.5111 160.474 55.2683 160.799 56.1996L166.977 74.092L160.918 82.6066C160.409 83.3184 160.803 83.9658 161.519 83.9658H167.111C167.437 84.003 167.767 83.9468 168.061 83.8039C168.356 83.6609 168.603 83.4372 168.772 83.1594L187.773 56.2034C188.358 55.3743 188.083 54.5035 187.122 54.5035H181.828C180.921 54.5035 180.557 54.8594 180.037 55.6052L172.114 66.9631L168.573 55.5787C168.366 54.8897 167.85 54.5111 166.897 54.5111H166.893Z" fill="#113984"/>
<path fill-rule="evenodd" clip-rule="evenodd" d="M207.538 43.5808C212.541 43.5808 217.157 46.2651 216.525 52.9548C215.76 60.9053 211.454 65.3046 204.66 65.3235H198.727C197.873 65.3235 197.46 66.0126 197.238 67.4247L196.09 74.6445C195.917 75.7349 195.351 76.2725 194.516 76.2725H188.993C188.113 76.2725 187.807 75.716 188.002 74.4704L192.568 45.5268C192.794 44.1033 193.334 43.5732 194.317 43.5732H207.538V43.5808ZM198.543 59.0729H203.041C205.854 58.9669 207.722 57.0399 207.909 53.5644C208.024 51.4177 206.558 49.8806 204.227 49.892L199.994 49.9109L198.543 59.0729ZM231.541 74.0577C232.046 73.6034 232.559 73.3687 232.487 73.929L232.307 75.2692C232.215 75.9696 232.494 76.3406 233.153 76.3406H238.06C238.886 76.3406 239.288 76.0113 239.491 74.7468L242.515 55.976C242.668 55.0333 242.435 54.5714 241.711 54.5714H236.322C235.836 54.5714 235.598 54.8402 235.472 55.5747L235.273 56.7294C235.17 57.3314 234.89 57.4374 234.63 56.8316C233.715 54.6888 231.38 53.7272 228.123 53.8029C220.556 53.9581 215.454 59.6408 214.906 66.925C214.485 72.5585 218.565 76.9842 223.947 76.9842C227.851 76.9842 229.597 75.8485 231.564 74.0691L231.541 74.0577ZM227.434 71.169C224.177 71.169 221.907 68.5984 222.378 65.4485C222.849 62.2986 225.895 59.7279 229.153 59.7279C232.41 59.7279 234.68 62.2986 234.209 65.4485C233.738 68.5984 230.691 71.169 227.434 71.169ZM250.067 76.3709H244.402C244.303 76.3753 244.205 76.3581 244.114 76.3205C244.023 76.2829 243.942 76.226 243.875 76.1536C243.809 76.0813 243.76 75.9954 243.731 75.9021C243.703 75.8087 243.695 75.7103 243.709 75.6137L248.685 44.4327C248.733 44.2199 248.852 44.0292 249.022 43.8917C249.193 43.7543 249.406 43.678 249.627 43.6755H255.292C255.39 43.6711 255.488 43.6883 255.579 43.7259C255.67 43.7635 255.752 43.8204 255.818 43.8928C255.884 43.9651 255.934 44.051 255.962 44.1443C255.991 44.2377 255.999 44.3361 255.984 44.4327L251.008 75.6137C250.962 75.8279 250.844 76.0203 250.673 76.1593C250.502 76.2982 250.288 76.3755 250.067 76.3785V76.3709Z" fill="#009EE3"/>
<path fill-rule="evenodd" clip-rule="evenodd" d="M48.6613 32H63.5048C67.6846 32 72.6452 32.1325 75.96 35.0288C78.1762 36.9634 79.3398 40.0414 79.0718 43.3578C78.1608 54.568 71.3821 60.8489 62.2877 60.8489H54.9692C53.7214 60.8489 52.8985 61.6667 52.5463 63.8777L50.5024 76.7499C50.3684 77.5828 50.0048 78.075 49.3541 78.1356H40.1946C39.1802 78.1356 38.8204 77.3784 39.0845 75.705L45.6681 34.4457C45.9322 32.7875 46.8546 32 48.6613 32Z" fill="#113984"/>
<path fill-rule="evenodd" clip-rule="evenodd" d="M52.7607 62.5717L55.3521 46.3413C55.5779 44.9178 56.3664 44.2363 57.9357 44.2363H72.764C75.2175 44.2363 77.204 44.6149 78.758 45.3153C77.2691 55.2951 70.743 60.8377 62.1997 60.8377H54.8927C53.9129 60.8415 53.1933 61.3261 52.7607 62.5717Z" fill="#172C70"/>
</g>
<g clip-path="url(#clip1_4_2450)">
<path d="M460.375 64.875L467.25 58L460.375 51.125L458.436 53.0637L461.984 56.625H449.375V59.375H461.984L458.436 62.9363L460.375 64.875Z" fill="#002F52"/>
<path d="M463.125 67.625H443.875V48.375H463.125V51.125H465.875V48.375C465.875 46.8625 464.651 45.625 463.125 45.625H443.875C442.362 45.625 441.125 46.8625 441.125 48.375V67.625C441.125 69.1375 442.362 70.375 443.875 70.375H463.125C464.651 70.375 465.875 69.1375 465.875 67.625V64.875H463.125V67.625Z" fill="#002F52"/>
</g>
<path d="M79.6785 122.242C80.7425 122.242 81.6618 122.443 82.4365 122.844C83.2205 123.236 83.8178 123.801 84.2285 124.538C84.6485 125.275 84.8585 126.143 84.8585 127.142C84.8585 128.141 84.6485 129.009 84.2285 129.746C83.8178 130.474 83.2205 131.034 82.4365 131.426C81.6618 131.809 80.7425 132 79.6785 132H76.6405V122.242H79.6785ZM79.6785 130.95C80.9385 130.95 81.8998 130.619 82.5625 129.956C83.2252 129.284 83.5565 128.346 83.5565 127.142C83.5565 125.929 83.2205 124.981 82.5485 124.3C81.8858 123.619 80.9292 123.278 79.6785 123.278H77.9145V130.95H79.6785ZM93.5389 127.87C93.5389 128.113 93.5249 128.369 93.4969 128.64H87.3649C87.4116 129.396 87.6683 129.989 88.1349 130.418C88.6109 130.838 89.1849 131.048 89.8569 131.048C90.4076 131.048 90.8649 130.922 91.2289 130.67C91.6023 130.409 91.8636 130.063 92.0129 129.634H93.3849C93.1796 130.371 92.7689 130.973 92.1529 131.44C91.5369 131.897 90.7716 132.126 89.8569 132.126C89.1289 132.126 88.4756 131.963 87.8969 131.636C87.3276 131.309 86.8796 130.847 86.5529 130.25C86.2263 129.643 86.0629 128.943 86.0629 128.15C86.0629 127.357 86.2216 126.661 86.5389 126.064C86.8563 125.467 87.2996 125.009 87.8689 124.692C88.4476 124.365 89.1103 124.202 89.8569 124.202C90.5849 124.202 91.2289 124.361 91.7889 124.678C92.3489 124.995 92.7783 125.434 93.0769 125.994C93.3849 126.545 93.5389 127.17 93.5389 127.87ZM92.2229 127.604C92.2229 127.119 92.1156 126.703 91.9009 126.358C91.6863 126.003 91.3923 125.737 91.0189 125.56C90.6549 125.373 90.2489 125.28 89.8009 125.28C89.1569 125.28 88.6063 125.485 88.1489 125.896C87.7009 126.307 87.4443 126.876 87.3789 127.604H92.2229ZM96.4946 125.742C96.7466 125.303 97.1199 124.939 97.6146 124.65C98.1186 124.351 98.7019 124.202 99.3646 124.202C100.046 124.202 100.662 124.365 101.213 124.692C101.773 125.019 102.211 125.481 102.529 126.078C102.846 126.666 103.005 127.352 103.005 128.136C103.005 128.911 102.846 129.601 102.529 130.208C102.211 130.815 101.773 131.286 101.213 131.622C100.662 131.958 100.046 132.126 99.3646 132.126C98.7112 132.126 98.1326 131.981 97.6286 131.692C97.1339 131.393 96.7559 131.025 96.4946 130.586V135.64H95.2206V124.328H96.4946V125.742ZM101.703 128.136C101.703 127.557 101.586 127.053 101.353 126.624C101.119 126.195 100.802 125.868 100.401 125.644C100.009 125.42 99.5746 125.308 99.0986 125.308C98.6319 125.308 98.1979 125.425 97.7966 125.658C97.4046 125.882 97.0872 126.213 96.8446 126.652C96.6112 127.081 96.4946 127.581 96.4946 128.15C96.4946 128.729 96.6112 129.237 96.8446 129.676C97.0872 130.105 97.4046 130.437 97.7966 130.67C98.1979 130.894 98.6319 131.006 99.0986 131.006C99.5746 131.006 100.009 130.894 100.401 130.67C100.802 130.437 101.119 130.105 101.353 129.676C101.586 129.237 101.703 128.724 101.703 128.136ZM108.028 132.126C107.309 132.126 106.656 131.963 106.068 131.636C105.489 131.309 105.032 130.847 104.696 130.25C104.369 129.643 104.206 128.943 104.206 128.15C104.206 127.366 104.374 126.675 104.71 126.078C105.055 125.471 105.522 125.009 106.11 124.692C106.698 124.365 107.356 124.202 108.084 124.202C108.812 124.202 109.47 124.365 110.058 124.692C110.646 125.009 111.108 125.467 111.444 126.064C111.789 126.661 111.962 127.357 111.962 128.15C111.962 128.943 111.784 129.643 111.43 130.25C111.084 130.847 110.613 131.309 110.016 131.636C109.418 131.963 108.756 132.126 108.028 132.126ZM108.028 131.006C108.485 131.006 108.914 130.899 109.316 130.684C109.717 130.469 110.039 130.147 110.282 129.718C110.534 129.289 110.66 128.766 110.66 128.15C110.66 127.534 110.538 127.011 110.296 126.582C110.053 126.153 109.736 125.835 109.344 125.63C108.952 125.415 108.527 125.308 108.07 125.308C107.603 125.308 107.174 125.415 106.782 125.63C106.399 125.835 106.091 126.153 105.858 126.582C105.624 127.011 105.508 127.534 105.508 128.15C105.508 128.775 105.62 129.303 105.844 129.732C106.077 130.161 106.385 130.483 106.768 130.698C107.15 130.903 107.57 131.006 108.028 131.006ZM114.295 123.082C114.052 123.082 113.847 122.998 113.679 122.83C113.511 122.662 113.427 122.457 113.427 122.214C113.427 121.971 113.511 121.766 113.679 121.598C113.847 121.43 114.052 121.346 114.295 121.346C114.528 121.346 114.724 121.43 114.883 121.598C115.051 121.766 115.135 121.971 115.135 122.214C115.135 122.457 115.051 122.662 114.883 122.83C114.724 122.998 114.528 123.082 114.295 123.082ZM114.911 124.328V132H113.637V124.328H114.911ZM119.798 132.126C119.21 132.126 118.683 132.028 118.216 131.832C117.749 131.627 117.381 131.347 117.11 130.992C116.839 130.628 116.69 130.213 116.662 129.746H117.978C118.015 130.129 118.193 130.441 118.51 130.684C118.837 130.927 119.261 131.048 119.784 131.048C120.269 131.048 120.652 130.941 120.932 130.726C121.212 130.511 121.352 130.241 121.352 129.914C121.352 129.578 121.203 129.331 120.904 129.172C120.605 129.004 120.143 128.841 119.518 128.682C118.949 128.533 118.482 128.383 118.118 128.234C117.763 128.075 117.455 127.847 117.194 127.548C116.942 127.24 116.816 126.839 116.816 126.344C116.816 125.952 116.933 125.593 117.166 125.266C117.399 124.939 117.731 124.683 118.16 124.496C118.589 124.3 119.079 124.202 119.63 124.202C120.479 124.202 121.165 124.417 121.688 124.846C122.211 125.275 122.491 125.863 122.528 126.61H121.254C121.226 126.209 121.063 125.887 120.764 125.644C120.475 125.401 120.083 125.28 119.588 125.28C119.131 125.28 118.767 125.378 118.496 125.574C118.225 125.77 118.09 126.027 118.09 126.344C118.09 126.596 118.169 126.806 118.328 126.974C118.496 127.133 118.701 127.263 118.944 127.366C119.196 127.459 119.541 127.567 119.98 127.688C120.531 127.837 120.979 127.987 121.324 128.136C121.669 128.276 121.963 128.491 122.206 128.78C122.458 129.069 122.589 129.447 122.598 129.914C122.598 130.334 122.481 130.712 122.248 131.048C122.015 131.384 121.683 131.65 121.254 131.846C120.834 132.033 120.349 132.126 119.798 132.126ZM127.653 128.136C127.653 127.352 127.811 126.666 128.129 126.078C128.446 125.481 128.88 125.019 129.431 124.692C129.991 124.365 130.616 124.202 131.307 124.202C131.904 124.202 132.459 124.342 132.973 124.622C133.486 124.893 133.878 125.252 134.149 125.7V121.64H135.437V132H134.149V130.558C133.897 131.015 133.523 131.393 133.029 131.692C132.534 131.981 131.955 132.126 131.293 132.126C130.611 132.126 129.991 131.958 129.431 131.622C128.88 131.286 128.446 130.815 128.129 130.208C127.811 129.601 127.653 128.911 127.653 128.136ZM134.149 128.15C134.149 127.571 134.032 127.067 133.799 126.638C133.565 126.209 133.248 125.882 132.847 125.658C132.455 125.425 132.021 125.308 131.545 125.308C131.069 125.308 130.635 125.42 130.243 125.644C129.851 125.868 129.538 126.195 129.305 126.624C129.071 127.053 128.955 127.557 128.955 128.136C128.955 128.724 129.071 129.237 129.305 129.676C129.538 130.105 129.851 130.437 130.243 130.67C130.635 130.894 131.069 131.006 131.545 131.006C132.021 131.006 132.455 130.894 132.847 130.67C133.248 130.437 133.565 130.105 133.799 129.676C134.032 129.237 134.149 128.729 134.149 128.15ZM144.59 127.87C144.59 128.113 144.576 128.369 144.548 128.64H138.416C138.462 129.396 138.719 129.989 139.186 130.418C139.662 130.838 140.236 131.048 140.908 131.048C141.458 131.048 141.916 130.922 142.28 130.67C142.653 130.409 142.914 130.063 143.064 129.634H144.436C144.23 130.371 143.82 130.973 143.204 131.44C142.588 131.897 141.822 132.126 140.908 132.126C140.18 132.126 139.526 131.963 138.948 131.636C138.378 131.309 137.93 130.847 137.604 130.25C137.277 129.643 137.114 128.943 137.114 128.15C137.114 127.357 137.272 126.661 137.59 126.064C137.907 125.467 138.35 125.009 138.92 124.692C139.498 124.365 140.161 124.202 140.908 124.202C141.636 124.202 142.28 124.361 142.84 124.678C143.4 124.995 143.829 125.434 144.128 125.994C144.436 126.545 144.59 127.17 144.59 127.87ZM143.274 127.604C143.274 127.119 143.166 126.703 142.952 126.358C142.737 126.003 142.443 125.737 142.07 125.56C141.706 125.373 141.3 125.28 140.852 125.28C140.208 125.28 139.657 125.485 139.2 125.896C138.752 126.307 138.495 126.876 138.43 127.604H143.274ZM149.528 128.15C149.528 127.357 149.686 126.666 150.004 126.078C150.321 125.481 150.76 125.019 151.32 124.692C151.889 124.365 152.538 124.202 153.266 124.202C154.208 124.202 154.983 124.431 155.59 124.888C156.206 125.345 156.612 125.98 156.808 126.792H155.436C155.305 126.325 155.048 125.957 154.666 125.686C154.292 125.415 153.826 125.28 153.266 125.28C152.538 125.28 151.95 125.532 151.502 126.036C151.054 126.531 150.83 127.235 150.83 128.15C150.83 129.074 151.054 129.788 151.502 130.292C151.95 130.796 152.538 131.048 153.266 131.048C153.826 131.048 154.292 130.917 154.666 130.656C155.039 130.395 155.296 130.021 155.436 129.536H156.808C156.602 130.32 156.192 130.95 155.576 131.426C154.96 131.893 154.19 132.126 153.266 132.126C152.538 132.126 151.889 131.963 151.32 131.636C150.76 131.309 150.321 130.847 150.004 130.25C149.686 129.653 149.528 128.953 149.528 128.15ZM159.782 121.64V132H158.508V121.64H159.782ZM162.611 123.082C162.368 123.082 162.163 122.998 161.995 122.83C161.827 122.662 161.743 122.457 161.743 122.214C161.743 121.971 161.827 121.766 161.995 121.598C162.163 121.43 162.368 121.346 162.611 121.346C162.844 121.346 163.04 121.43 163.199 121.598C163.367 121.766 163.451 121.971 163.451 122.214C163.451 122.457 163.367 122.662 163.199 122.83C163.04 122.998 162.844 123.082 162.611 123.082ZM163.227 124.328V132H161.953V124.328H163.227ZM164.922 128.15C164.922 127.357 165.081 126.666 165.398 126.078C165.716 125.481 166.154 125.019 166.714 124.692C167.284 124.365 167.932 124.202 168.66 124.202C169.603 124.202 170.378 124.431 170.984 124.888C171.6 125.345 172.006 125.98 172.202 126.792H170.83C170.7 126.325 170.443 125.957 170.06 125.686C169.687 125.415 169.22 125.28 168.66 125.28C167.932 125.28 167.344 125.532 166.896 126.036C166.448 126.531 166.224 127.235 166.224 128.15C166.224 129.074 166.448 129.788 166.896 130.292C167.344 130.796 167.932 131.048 168.66 131.048C169.22 131.048 169.687 130.917 170.06 130.656C170.434 130.395 170.69 130.021 170.83 129.536H172.202C171.997 130.32 171.586 130.95 170.97 131.426C170.354 131.893 169.584 132.126 168.66 132.126C167.932 132.126 167.284 131.963 166.714 131.636C166.154 131.309 165.716 130.847 165.398 130.25C165.081 129.653 164.922 128.953 164.922 128.15ZM173.426 128.136C173.426 127.352 173.585 126.666 173.902 126.078C174.22 125.481 174.654 125.019 175.204 124.692C175.764 124.365 176.385 124.202 177.066 124.202C177.738 124.202 178.322 124.347 178.816 124.636C179.311 124.925 179.68 125.289 179.922 125.728V124.328H181.21V132H179.922V130.572C179.67 131.02 179.292 131.393 178.788 131.692C178.294 131.981 177.715 132.126 177.052 132.126C176.371 132.126 175.755 131.958 175.204 131.622C174.654 131.286 174.22 130.815 173.902 130.208C173.585 129.601 173.426 128.911 173.426 128.136ZM179.922 128.15C179.922 127.571 179.806 127.067 179.572 126.638C179.339 126.209 179.022 125.882 178.62 125.658C178.228 125.425 177.794 125.308 177.318 125.308C176.842 125.308 176.408 125.42 176.016 125.644C175.624 125.868 175.312 126.195 175.078 126.624C174.845 127.053 174.728 127.557 174.728 128.136C174.728 128.724 174.845 129.237 175.078 129.676C175.312 130.105 175.624 130.437 176.016 130.67C176.408 130.894 176.842 131.006 177.318 131.006C177.794 131.006 178.228 130.894 178.62 130.67C179.022 130.437 179.339 130.105 179.572 129.676C179.806 129.237 179.922 128.729 179.922 128.15ZM184.637 125.574C184.861 125.135 185.178 124.795 185.589 124.552C186.009 124.309 186.518 124.188 187.115 124.188V125.504H186.779C185.351 125.504 184.637 126.279 184.637 127.828V132H183.363V124.328H184.637V125.574ZM199.318 127.87C199.318 128.113 199.304 128.369 199.276 128.64H193.144C193.191 129.396 193.448 129.989 193.914 130.418C194.39 130.838 194.964 131.048 195.636 131.048C196.187 131.048 196.644 130.922 197.008 130.67C197.382 130.409 197.643 130.063 197.792 129.634H199.164C198.959 130.371 198.548 130.973 197.932 131.44C197.316 131.897 196.551 132.126 195.636 132.126C194.908 132.126 194.255 131.963 193.676 131.636C193.107 131.309 192.659 130.847 192.332 130.25C192.006 129.643 191.842 128.943 191.842 128.15C191.842 127.357 192.001 126.661 192.318 126.064C192.636 125.467 193.079 125.009 193.648 124.692C194.227 124.365 194.89 124.202 195.636 124.202C196.364 124.202 197.008 124.361 197.568 124.678C198.128 124.995 198.558 125.434 198.856 125.994C199.164 126.545 199.318 127.17 199.318 127.87ZM198.002 127.604C198.002 127.119 197.895 126.703 197.68 126.358C197.466 126.003 197.172 125.737 196.798 125.56C196.434 125.373 196.028 125.28 195.58 125.28C194.936 125.28 194.386 125.485 193.928 125.896C193.48 126.307 193.224 126.876 193.158 127.604H198.002ZM210.226 124.188C210.823 124.188 211.355 124.314 211.822 124.566C212.289 124.809 212.657 125.177 212.928 125.672C213.199 126.167 213.334 126.769 213.334 127.478V132H212.074V127.66C212.074 126.895 211.883 126.311 211.5 125.91C211.127 125.499 210.618 125.294 209.974 125.294C209.311 125.294 208.784 125.509 208.392 125.938C208 126.358 207.804 126.969 207.804 127.772V132H206.544V127.66C206.544 126.895 206.353 126.311 205.97 125.91C205.597 125.499 205.088 125.294 204.444 125.294C203.781 125.294 203.254 125.509 202.862 125.938C202.47 126.358 202.274 126.969 202.274 127.772V132H201V124.328H202.274V125.434C202.526 125.033 202.862 124.725 203.282 124.51C203.711 124.295 204.183 124.188 204.696 124.188C205.34 124.188 205.909 124.333 206.404 124.622C206.899 124.911 207.267 125.336 207.51 125.896C207.725 125.355 208.079 124.935 208.574 124.636C209.069 124.337 209.619 124.188 210.226 124.188ZM219.842 125.42H218.414L219.758 122.242H220.668L219.842 125.42ZM222.11 125.42H220.682L222.026 122.242H222.936L222.11 125.42ZM229.99 122.242V123.278H225.748V126.568H229.192V127.604H225.748V132H224.474V122.242H229.99ZM232.187 123.082C231.945 123.082 231.739 122.998 231.571 122.83C231.403 122.662 231.319 122.457 231.319 122.214C231.319 121.971 231.403 121.766 231.571 121.598C231.739 121.43 231.945 121.346 232.187 121.346C232.421 121.346 232.617 121.43 232.775 121.598C232.943 121.766 233.027 121.971 233.027 122.214C233.027 122.457 232.943 122.662 232.775 122.83C232.617 122.998 232.421 123.082 232.187 123.082ZM232.803 124.328V132H231.529V124.328H232.803ZM238.712 124.188C239.646 124.188 240.402 124.473 240.98 125.042C241.559 125.602 241.848 126.414 241.848 127.478V132H240.588V127.66C240.588 126.895 240.397 126.311 240.014 125.91C239.632 125.499 239.109 125.294 238.446 125.294C237.774 125.294 237.238 125.504 236.836 125.924C236.444 126.344 236.248 126.955 236.248 127.758V132H234.974V124.328H236.248V125.42C236.5 125.028 236.841 124.725 237.27 124.51C237.709 124.295 238.19 124.188 238.712 124.188ZM243.454 128.136C243.454 127.352 243.612 126.666 243.93 126.078C244.247 125.481 244.681 125.019 245.232 124.692C245.792 124.365 246.412 124.202 247.094 124.202C247.766 124.202 248.349 124.347 248.844 124.636C249.338 124.925 249.707 125.289 249.95 125.728V124.328H251.238V132H249.95V130.572C249.698 131.02 249.32 131.393 248.816 131.692C248.321 131.981 247.742 132.126 247.08 132.126C246.398 132.126 245.782 131.958 245.232 131.622C244.681 131.286 244.247 130.815 243.93 130.208C243.612 129.601 243.454 128.911 243.454 128.136ZM249.95 128.15C249.95 127.571 249.833 127.067 249.6 126.638C249.366 126.209 249.049 125.882 248.648 125.658C248.256 125.425 247.822 125.308 247.346 125.308C246.87 125.308 246.436 125.42 246.044 125.644C245.652 125.868 245.339 126.195 245.106 126.624C244.872 127.053 244.756 127.557 244.756 128.136C244.756 128.724 244.872 129.237 245.106 129.676C245.339 130.105 245.652 130.437 246.044 130.67C246.436 130.894 246.87 131.006 247.346 131.006C247.822 131.006 248.256 130.894 248.648 130.67C249.049 130.437 249.366 130.105 249.6 129.676C249.833 129.237 249.95 128.729 249.95 128.15ZM254.665 121.64V132H253.391V121.64H254.665ZM257.494 123.082C257.251 123.082 257.046 122.998 256.878 122.83C256.71 122.662 256.626 122.457 256.626 122.214C256.626 121.971 256.71 121.766 256.878 121.598C257.046 121.43 257.251 121.346 257.494 121.346C257.727 121.346 257.923 121.43 258.082 121.598C258.25 121.766 258.334 121.971 258.334 122.214C258.334 122.457 258.25 122.662 258.082 122.83C257.923 122.998 257.727 123.082 257.494 123.082ZM258.11 124.328V132H256.836V124.328H258.11ZM261.233 130.95H264.999V132H259.777V130.95L263.501 125.364H259.805V124.328H264.971V125.364L261.233 130.95ZM266.176 128.136C266.176 127.352 266.335 126.666 266.652 126.078C266.97 125.481 267.404 125.019 267.954 124.692C268.514 124.365 269.135 124.202 269.816 124.202C270.488 124.202 271.072 124.347 271.566 124.636C272.061 124.925 272.43 125.289 272.672 125.728V124.328H273.96V132H272.672V130.572C272.42 131.02 272.042 131.393 271.538 131.692C271.044 131.981 270.465 132.126 269.802 132.126C269.121 132.126 268.505 131.958 267.954 131.622C267.404 131.286 266.97 130.815 266.652 130.208C266.335 129.601 266.176 128.911 266.176 128.136ZM272.672 128.15C272.672 127.571 272.556 127.067 272.322 126.638C272.089 126.209 271.772 125.882 271.37 125.658C270.978 125.425 270.544 125.308 270.068 125.308C269.592 125.308 269.158 125.42 268.766 125.644C268.374 125.868 268.062 126.195 267.828 126.624C267.595 127.053 267.478 127.557 267.478 128.136C267.478 128.724 267.595 129.237 267.828 129.676C268.062 130.105 268.374 130.437 268.766 130.67C269.158 130.894 269.592 131.006 270.068 131.006C270.544 131.006 270.978 130.894 271.37 130.67C271.772 130.437 272.089 130.105 272.322 129.676C272.556 129.237 272.672 128.729 272.672 128.15ZM277.387 125.574C277.611 125.135 277.928 124.795 278.339 124.552C278.759 124.309 279.268 124.188 279.865 124.188V125.504H279.529C278.101 125.504 277.387 126.279 277.387 127.828V132H276.113V124.328H277.387V125.574ZM284.592 128.136C284.592 127.352 284.751 126.666 285.068 126.078C285.386 125.481 285.82 125.019 286.37 124.692C286.93 124.365 287.551 124.202 288.232 124.202C288.904 124.202 289.488 124.347 289.982 124.636C290.477 124.925 290.846 125.289 291.088 125.728V124.328H292.376V132H291.088V130.572C290.836 131.02 290.458 131.393 289.954 131.692C289.46 131.981 288.881 132.126 288.218 132.126C287.537 132.126 286.921 131.958 286.37 131.622C285.82 131.286 285.386 130.815 285.068 130.208C284.751 129.601 284.592 128.911 284.592 128.136ZM291.088 128.15C291.088 127.571 290.972 127.067 290.738 126.638C290.505 126.209 290.188 125.882 289.786 125.658C289.394 125.425 288.96 125.308 288.484 125.308C288.008 125.308 287.574 125.42 287.182 125.644C286.79 125.868 286.478 126.195 286.244 126.624C286.011 127.053 285.894 127.557 285.894 128.136C285.894 128.724 286.011 129.237 286.244 129.676C286.478 130.105 286.79 130.437 287.182 130.67C287.574 130.894 288.008 131.006 288.484 131.006C288.96 131.006 289.394 130.894 289.786 130.67C290.188 130.437 290.505 130.105 290.738 129.676C290.972 129.237 291.088 128.729 291.088 128.15ZM297.786 128.15C297.786 127.357 297.944 126.666 298.262 126.078C298.579 125.481 299.018 125.019 299.578 124.692C300.147 124.365 300.796 124.202 301.524 124.202C302.466 124.202 303.241 124.431 303.848 124.888C304.464 125.345 304.87 125.98 305.066 126.792H303.694C303.563 126.325 303.306 125.957 302.924 125.686C302.55 125.415 302.084 125.28 301.524 125.28C300.796 125.28 300.208 125.532 299.76 126.036C299.312 126.531 299.088 127.235 299.088 128.15C299.088 129.074 299.312 129.788 299.76 130.292C300.208 130.796 300.796 131.048 301.524 131.048C302.084 131.048 302.55 130.917 302.924 130.656C303.297 130.395 303.554 130.021 303.694 129.536H305.066C304.86 130.32 304.45 130.95 303.834 131.426C303.218 131.893 302.448 132.126 301.524 132.126C300.796 132.126 300.147 131.963 299.578 131.636C299.018 131.309 298.579 130.847 298.262 130.25C297.944 129.653 297.786 128.953 297.786 128.15ZM310.112 132.126C309.393 132.126 308.74 131.963 308.152 131.636C307.573 131.309 307.116 130.847 306.78 130.25C306.453 129.643 306.29 128.943 306.29 128.15C306.29 127.366 306.458 126.675 306.794 126.078C307.139 125.471 307.606 125.009 308.194 124.692C308.782 124.365 309.44 124.202 310.168 124.202C310.896 124.202 311.554 124.365 312.142 124.692C312.73 125.009 313.192 125.467 313.528 126.064C313.873 126.661 314.046 127.357 314.046 128.15C314.046 128.943 313.868 129.643 313.514 130.25C313.168 130.847 312.697 131.309 312.1 131.636C311.502 131.963 310.84 132.126 310.112 132.126ZM310.112 131.006C310.569 131.006 310.998 130.899 311.4 130.684C311.801 130.469 312.123 130.147 312.366 129.718C312.618 129.289 312.744 128.766 312.744 128.15C312.744 127.534 312.622 127.011 312.38 126.582C312.137 126.153 311.82 125.835 311.428 125.63C311.036 125.415 310.611 125.308 310.154 125.308C309.687 125.308 309.258 125.415 308.866 125.63C308.483 125.835 308.175 126.153 307.942 126.582C307.708 127.011 307.592 127.534 307.592 128.15C307.592 128.775 307.704 129.303 307.928 129.732C308.161 130.161 308.469 130.483 308.852 130.698C309.234 130.903 309.654 131.006 310.112 131.006ZM324.947 124.188C325.544 124.188 326.076 124.314 326.543 124.566C327.009 124.809 327.378 125.177 327.649 125.672C327.919 126.167 328.055 126.769 328.055 127.478V132H326.795V127.66C326.795 126.895 326.603 126.311 326.221 125.91C325.847 125.499 325.339 125.294 324.695 125.294C324.032 125.294 323.505 125.509 323.113 125.938C322.721 126.358 322.525 126.969 322.525 127.772V132H321.265V127.66C321.265 126.895 321.073 126.311 320.691 125.91C320.317 125.499 319.809 125.294 319.165 125.294C318.502 125.294 317.975 125.509 317.583 125.938C317.191 126.358 316.995 126.969 316.995 127.772V132H315.721V124.328H316.995V125.434C317.247 125.033 317.583 124.725 318.003 124.51C318.432 124.295 318.903 124.188 319.417 124.188C320.061 124.188 320.63 124.333 321.125 124.622C321.619 124.911 321.988 125.336 322.231 125.896C322.445 125.355 322.8 124.935 323.295 124.636C323.789 124.337 324.34 124.188 324.947 124.188ZM331.418 125.742C331.67 125.303 332.044 124.939 332.538 124.65C333.042 124.351 333.626 124.202 334.288 124.202C334.97 124.202 335.586 124.365 336.136 124.692C336.696 125.019 337.135 125.481 337.452 126.078C337.77 126.666 337.928 127.352 337.928 128.136C337.928 128.911 337.77 129.601 337.452 130.208C337.135 130.815 336.696 131.286 336.136 131.622C335.586 131.958 334.97 132.126 334.288 132.126C333.635 132.126 333.056 131.981 332.552 131.692C332.058 131.393 331.68 131.025 331.418 130.586V135.64H330.144V124.328H331.418V125.742ZM336.626 128.136C336.626 127.557 336.51 127.053 336.276 126.624C336.043 126.195 335.726 125.868 335.324 125.644C334.932 125.42 334.498 125.308 334.022 125.308C333.556 125.308 333.122 125.425 332.72 125.658C332.328 125.882 332.011 126.213 331.768 126.652C331.535 127.081 331.418 127.581 331.418 128.15C331.418 128.729 331.535 129.237 331.768 129.676C332.011 130.105 332.328 130.437 332.72 130.67C333.122 130.894 333.556 131.006 334.022 131.006C334.498 131.006 334.932 130.894 335.324 130.67C335.726 130.437 336.043 130.105 336.276 129.676C336.51 129.237 336.626 128.724 336.626 128.136ZM340.879 125.574C341.103 125.135 341.421 124.795 341.831 124.552C342.251 124.309 342.76 124.188 343.357 124.188V125.504H343.021C341.593 125.504 340.879 126.279 340.879 127.828V132H339.605V124.328H340.879V125.574ZM344.352 128.136C344.352 127.352 344.511 126.666 344.828 126.078C345.145 125.481 345.579 125.019 346.13 124.692C346.69 124.365 347.311 124.202 347.992 124.202C348.664 124.202 349.247 124.347 349.742 124.636C350.237 124.925 350.605 125.289 350.848 125.728V124.328H352.136V132H350.848V130.572C350.596 131.02 350.218 131.393 349.714 131.692C349.219 131.981 348.641 132.126 347.978 132.126C347.297 132.126 346.681 131.958 346.13 131.622C345.579 131.286 345.145 130.815 344.828 130.208C344.511 129.601 344.352 128.911 344.352 128.136ZM350.848 128.15C350.848 127.571 350.731 127.067 350.498 126.638C350.265 126.209 349.947 125.882 349.546 125.658C349.154 125.425 348.72 125.308 348.244 125.308C347.768 125.308 347.334 125.42 346.942 125.644C346.55 125.868 346.237 126.195 346.004 126.624C345.771 127.053 345.654 127.557 345.654 128.136C345.654 128.724 345.771 129.237 346.004 129.676C346.237 130.105 346.55 130.437 346.942 130.67C347.334 130.894 347.768 131.006 348.244 131.006C348.72 131.006 349.154 130.894 349.546 130.67C349.947 130.437 350.265 130.105 350.498 129.676C350.731 129.237 350.848 128.729 350.848 128.15ZM354.485 122.242H355.899L354.555 125.42H353.659L354.485 122.242ZM356.753 122.242H358.167L356.823 125.42H355.913L356.753 122.242ZM360.923 130.236L359.355 134.002H358.501L359.523 130.236H360.923ZM368.971 130.824L371.351 124.328H372.709L369.699 132H368.215L365.205 124.328H366.577L368.971 130.824ZM377.309 132.126C376.59 132.126 375.937 131.963 375.349 131.636C374.77 131.309 374.313 130.847 373.977 130.25C373.65 129.643 373.487 128.943 373.487 128.15C373.487 127.366 373.655 126.675 373.991 126.078C374.336 125.471 374.803 125.009 375.391 124.692C375.979 124.365 376.637 124.202 377.365 124.202C378.093 124.202 378.751 124.365 379.339 124.692C379.927 125.009 380.389 125.467 380.725 126.064C381.07 126.661 381.243 127.357 381.243 128.15C381.243 128.943 381.065 129.643 380.711 130.25C380.365 130.847 379.894 131.309 379.297 131.636C378.699 131.963 378.037 132.126 377.309 132.126ZM377.309 131.006C377.766 131.006 378.195 130.899 378.597 130.684C378.998 130.469 379.32 130.147 379.563 129.718C379.815 129.289 379.941 128.766 379.941 128.15C379.941 127.534 379.819 127.011 379.577 126.582C379.334 126.153 379.017 125.835 378.625 125.63C378.233 125.415 377.808 125.308 377.351 125.308C376.884 125.308 376.455 125.415 376.063 125.63C375.68 125.835 375.372 126.153 375.139 126.582C374.905 127.011 374.789 127.534 374.789 128.15C374.789 128.775 374.901 129.303 375.125 129.732C375.358 130.161 375.666 130.483 376.049 130.698C376.431 130.903 376.851 131.006 377.309 131.006ZM382.442 128.15C382.442 127.357 382.601 126.666 382.918 126.078C383.235 125.481 383.674 125.019 384.234 124.692C384.803 124.365 385.452 124.202 386.18 124.202C387.123 124.202 387.897 124.431 388.504 124.888C389.12 125.345 389.526 125.98 389.722 126.792H388.35C388.219 126.325 387.963 125.957 387.58 125.686C387.207 125.415 386.74 125.28 386.18 125.28C385.452 125.28 384.864 125.532 384.416 126.036C383.968 126.531 383.744 127.235 383.744 128.15C383.744 129.074 383.968 129.788 384.416 130.292C384.864 130.796 385.452 131.048 386.18 131.048C386.74 131.048 387.207 130.917 387.58 130.656C387.953 130.395 388.21 130.021 388.35 129.536H389.722C389.517 130.32 389.106 130.95 388.49 131.426C387.874 131.893 387.104 132.126 386.18 132.126C385.452 132.126 384.803 131.963 384.234 131.636C383.674 131.309 383.235 130.847 382.918 130.25C382.601 129.653 382.442 128.953 382.442 128.15ZM398.422 127.87C398.422 128.113 398.408 128.369 398.38 128.64H392.248C392.294 129.396 392.551 129.989 393.018 130.418C393.494 130.838 394.068 131.048 394.74 131.048C395.29 131.048 395.748 130.922 396.112 130.67C396.485 130.409 396.746 130.063 396.896 129.634H398.268C398.062 130.371 397.652 130.973 397.036 131.44C396.42 131.897 395.654 132.126 394.74 132.126C394.012 132.126 393.358 131.963 392.78 131.636C392.21 131.309 391.762 130.847 391.436 130.25C391.109 129.643 390.946 128.943 390.946 128.15C390.946 127.357 391.104 126.661 391.422 126.064C391.739 125.467 392.182 125.009 392.752 124.692C393.33 124.365 393.993 124.202 394.74 124.202C395.468 124.202 396.112 124.361 396.672 124.678C397.232 124.995 397.661 125.434 397.96 125.994C398.268 126.545 398.422 127.17 398.422 127.87ZM397.106 127.604C397.106 127.119 396.998 126.703 396.784 126.358C396.569 126.003 396.275 125.737 395.902 125.56C395.538 125.373 395.132 125.28 394.684 125.28C394.04 125.28 393.489 125.485 393.032 125.896C392.584 126.307 392.327 126.876 392.262 127.604H397.106ZM394.698 122.452L392.752 123.642V122.634L394.698 121.472L396.63 122.634V123.642L394.698 122.452ZM406.552 132.126C405.964 132.126 405.436 132.028 404.97 131.832C404.503 131.627 404.134 131.347 403.864 130.992C403.593 130.628 403.444 130.213 403.416 129.746H404.732C404.769 130.129 404.946 130.441 405.264 130.684C405.59 130.927 406.015 131.048 406.538 131.048C407.023 131.048 407.406 130.941 407.686 130.726C407.966 130.511 408.106 130.241 408.106 129.914C408.106 129.578 407.956 129.331 407.658 129.172C407.359 129.004 406.897 128.841 406.272 128.682C405.702 128.533 405.236 128.383 404.872 128.234C404.517 128.075 404.209 127.847 403.948 127.548C403.696 127.24 403.57 126.839 403.57 126.344C403.57 125.952 403.686 125.593 403.92 125.266C404.153 124.939 404.484 124.683 404.914 124.496C405.343 124.3 405.833 124.202 406.384 124.202C407.233 124.202 407.919 124.417 408.442 124.846C408.964 125.275 409.244 125.863 409.282 126.61H408.008C407.98 126.209 407.816 125.887 407.518 125.644C407.228 125.401 406.836 125.28 406.342 125.28C405.884 125.28 405.52 125.378 405.25 125.574C404.979 125.77 404.844 126.027 404.844 126.344C404.844 126.596 404.923 126.806 405.082 126.974C405.25 127.133 405.455 127.263 405.698 127.366C405.95 127.459 406.295 127.567 406.734 127.688C407.284 127.837 407.732 127.987 408.078 128.136C408.423 128.276 408.717 128.491 408.96 128.78C409.212 129.069 409.342 129.447 409.352 129.914C409.352 130.334 409.235 130.712 409.002 131.048C408.768 131.384 408.437 131.65 408.008 131.846C407.588 132.033 407.102 132.126 406.552 132.126ZM418.15 127.87C418.15 128.113 418.136 128.369 418.108 128.64H411.976C412.023 129.396 412.28 129.989 412.746 130.418C413.222 130.838 413.796 131.048 414.468 131.048C415.019 131.048 415.476 130.922 415.84 130.67C416.214 130.409 416.475 130.063 416.624 129.634H417.996C417.791 130.371 417.38 130.973 416.764 131.44C416.148 131.897 415.383 132.126 414.468 132.126C413.74 132.126 413.087 131.963 412.508 131.636C411.939 131.309 411.491 130.847 411.164 130.25C410.838 129.643 410.674 128.943 410.674 128.15C410.674 127.357 410.833 126.661 411.15 126.064C411.468 125.467 411.911 125.009 412.48 124.692C413.059 124.365 413.722 124.202 414.468 124.202C415.196 124.202 415.84 124.361 416.4 124.678C416.96 124.995 417.39 125.434 417.688 125.994C417.996 126.545 418.15 127.17 418.15 127.87ZM416.834 127.604C416.834 127.119 416.727 126.703 416.512 126.358C416.298 126.003 416.004 125.737 415.63 125.56C415.266 125.373 414.86 125.28 414.412 125.28C413.768 125.28 413.218 125.485 412.76 125.896C412.312 126.307 412.056 126.876 411.99 127.604H416.834ZM421.106 125.574C421.33 125.135 421.647 124.795 422.058 124.552C422.478 124.309 422.987 124.188 423.584 124.188V125.504H423.248C421.82 125.504 421.106 126.279 421.106 127.828V132H419.832V124.328H421.106V125.574ZM424.579 128.136C424.579 127.352 424.737 126.666 425.055 126.078C425.372 125.481 425.806 125.019 426.357 124.692C426.917 124.365 427.537 124.202 428.219 124.202C428.891 124.202 429.474 124.347 429.969 124.636C430.463 124.925 430.832 125.289 431.075 125.728V124.328H432.363V132H431.075V130.572C430.823 131.02 430.445 131.393 429.941 131.692C429.446 131.981 428.867 132.126 428.205 132.126C427.523 132.126 426.907 131.958 426.357 131.622C425.806 131.286 425.372 130.815 425.055 130.208C424.737 129.601 424.579 128.911 424.579 128.136ZM431.075 128.15C431.075 127.571 430.958 127.067 430.725 126.638C430.491 126.209 430.174 125.882 429.773 125.658C429.381 125.425 428.947 125.308 428.471 125.308C427.995 125.308 427.561 125.42 427.169 125.644C426.777 125.868 426.464 126.195 426.231 126.624C425.997 127.053 425.881 127.557 425.881 128.136C425.881 128.724 425.997 129.237 426.231 129.676C426.464 130.105 426.777 130.437 427.169 130.67C427.561 130.894 427.995 131.006 428.471 131.006C428.947 131.006 429.381 130.894 429.773 130.67C430.174 130.437 430.491 130.105 430.725 129.676C430.958 129.237 431.075 128.729 431.075 128.15ZM430.081 122.158L427.099 123.754V122.802L430.081 121.052V122.158ZM64.9057 146.574C65.1297 146.135 65.447 145.795 65.8577 145.552C66.2777 145.309 66.7864 145.188 67.3837 145.188V146.504H67.0477C65.6197 146.504 64.9057 147.279 64.9057 148.828V153H63.6317V145.328H64.9057V146.574ZM75.8544 148.87C75.8544 149.113 75.8404 149.369 75.8124 149.64H69.6804C69.727 150.396 69.9837 150.989 70.4504 151.418C70.9264 151.838 71.5004 152.048 72.1724 152.048C72.723 152.048 73.1804 151.922 73.5444 151.67C73.9177 151.409 74.179 151.063 74.3284 150.634H75.7004C75.495 151.371 75.0844 151.973 74.4684 152.44C73.8524 152.897 73.087 153.126 72.1724 153.126C71.4444 153.126 70.791 152.963 70.2124 152.636C69.643 152.309 69.195 151.847 68.8684 151.25C68.5417 150.643 68.3784 149.943 68.3784 149.15C68.3784 148.357 68.537 147.661 68.8544 147.064C69.1717 146.467 69.615 146.009 70.1844 145.692C70.763 145.365 71.4257 145.202 72.1724 145.202C72.9004 145.202 73.5444 145.361 74.1044 145.678C74.6644 145.995 75.0937 146.434 75.3924 146.994C75.7004 147.545 75.8544 148.17 75.8544 148.87ZM74.5384 148.604C74.5384 148.119 74.431 147.703 74.2164 147.358C74.0017 147.003 73.7077 146.737 73.3344 146.56C72.9704 146.373 72.5644 146.28 72.1164 146.28C71.4724 146.28 70.9217 146.485 70.4644 146.896C70.0164 147.307 69.7597 147.876 69.6944 148.604H74.5384ZM77.06 149.136C77.06 148.352 77.2187 147.666 77.536 147.078C77.8533 146.481 78.2873 146.019 78.838 145.692C79.398 145.365 80.0233 145.202 80.714 145.202C81.3113 145.202 81.8667 145.342 82.38 145.622C82.8933 145.893 83.2853 146.252 83.556 146.7V142.64H84.844V153H83.556V151.558C83.304 152.015 82.9307 152.393 82.436 152.692C81.9413 152.981 81.3627 153.126 80.7 153.126C80.0187 153.126 79.398 152.958 78.838 152.622C78.2873 152.286 77.8533 151.815 77.536 151.208C77.2187 150.601 77.06 149.911 77.06 149.136ZM83.556 149.15C83.556 148.571 83.4393 148.067 83.206 147.638C82.9727 147.209 82.6553 146.882 82.254 146.658C81.862 146.425 81.428 146.308 80.952 146.308C80.476 146.308 80.042 146.42 79.65 146.644C79.258 146.868 78.9453 147.195 78.712 147.624C78.4787 148.053 78.362 148.557 78.362 149.136C78.362 149.724 78.4787 150.237 78.712 150.676C78.9453 151.105 79.258 151.437 79.65 151.67C80.042 151.894 80.476 152.006 80.952 152.006C81.428 152.006 81.862 151.894 82.254 151.67C82.6553 151.437 82.9727 151.105 83.206 150.676C83.4393 150.237 83.556 149.729 83.556 149.15ZM87.6549 144.082C87.4123 144.082 87.2069 143.998 87.0389 143.83C86.8709 143.662 86.7869 143.457 86.7869 143.214C86.7869 142.971 86.8709 142.766 87.0389 142.598C87.2069 142.43 87.4123 142.346 87.6549 142.346C87.8883 142.346 88.0843 142.43 88.2429 142.598C88.4109 142.766 88.4949 142.971 88.4949 143.214C88.4949 143.457 88.4109 143.662 88.2429 143.83C88.0843 143.998 87.8883 144.082 87.6549 144.082ZM88.2709 145.328V153H86.9969V145.328H88.2709ZM91.7163 146.574C91.9403 146.135 92.2576 145.795 92.6683 145.552C93.0883 145.309 93.5969 145.188 94.1943 145.188V146.504H93.8583C92.4303 146.504 91.7163 147.279 91.7163 148.828V153H90.4423V145.328H91.7163V146.574ZM102.665 148.87C102.665 149.113 102.651 149.369 102.623 149.64H96.4909C96.5376 150.396 96.7942 150.989 97.2609 151.418C97.7369 151.838 98.3109 152.048 98.9829 152.048C99.5336 152.048 99.9909 151.922 100.355 151.67C100.728 151.409 100.99 151.063 101.139 150.634H102.511C102.306 151.371 101.895 151.973 101.279 152.44C100.663 152.897 99.8976 153.126 98.9829 153.126C98.2549 153.126 97.6016 152.963 97.0229 152.636C96.4536 152.309 96.0056 151.847 95.6789 151.25C95.3522 150.643 95.1889 149.943 95.1889 149.15C95.1889 148.357 95.3476 147.661 95.6649 147.064C95.9822 146.467 96.4256 146.009 96.9949 145.692C97.5736 145.365 98.2362 145.202 98.9829 145.202C99.7109 145.202 100.355 145.361 100.915 145.678C101.475 145.995 101.904 146.434 102.203 146.994C102.511 147.545 102.665 148.17 102.665 148.87ZM101.349 148.604C101.349 148.119 101.242 147.703 101.027 147.358C100.812 147.003 100.518 146.737 100.145 146.56C99.7809 146.373 99.3749 146.28 98.9269 146.28C98.2829 146.28 97.7322 146.485 97.2749 146.896C96.8269 147.307 96.5702 147.876 96.5049 148.604H101.349ZM103.871 149.15C103.871 148.357 104.029 147.666 104.347 147.078C104.664 146.481 105.103 146.019 105.663 145.692C106.232 145.365 106.881 145.202 107.609 145.202C108.551 145.202 109.326 145.431 109.933 145.888C110.549 146.345 110.955 146.98 111.151 147.792H109.779C109.648 147.325 109.391 146.957 109.009 146.686C108.635 146.415 108.169 146.28 107.609 146.28C106.881 146.28 106.293 146.532 105.845 147.036C105.397 147.531 105.173 148.235 105.173 149.15C105.173 150.074 105.397 150.788 105.845 151.292C106.293 151.796 106.881 152.048 107.609 152.048C108.169 152.048 108.635 151.917 109.009 151.656C109.382 151.395 109.639 151.021 109.779 150.536H111.151C110.945 151.32 110.535 151.95 109.919 152.426C109.303 152.893 108.533 153.126 107.609 153.126C106.881 153.126 106.232 152.963 105.663 152.636C105.103 152.309 104.664 151.847 104.347 151.25C104.029 150.653 103.871 149.953 103.871 149.15ZM113.508 144.082C113.266 144.082 113.06 143.998 112.892 143.83C112.724 143.662 112.64 143.457 112.64 143.214C112.64 142.971 112.724 142.766 112.892 142.598C113.06 142.43 113.266 142.346 113.508 142.346C113.742 142.346 113.938 142.43 114.096 142.598C114.264 142.766 114.348 142.971 114.348 143.214C114.348 143.457 114.264 143.662 114.096 143.83C113.938 143.998 113.742 144.082 113.508 144.082ZM114.124 145.328V153H112.85V145.328H114.124ZM119.642 153.126C118.923 153.126 118.27 152.963 117.682 152.636C117.103 152.309 116.646 151.847 116.31 151.25C115.983 150.643 115.82 149.943 115.82 149.15C115.82 148.366 115.988 147.675 116.324 147.078C116.669 146.471 117.136 146.009 117.724 145.692C118.312 145.365 118.97 145.202 119.698 145.202C120.426 145.202 121.084 145.365 121.672 145.692C122.26 146.009 122.722 146.467 123.058 147.064C123.403 147.661 123.576 148.357 123.576 149.15C123.576 149.943 123.398 150.643 123.044 151.25C122.698 151.847 122.227 152.309 121.63 152.636C121.032 152.963 120.37 153.126 119.642 153.126ZM119.642 152.006C120.099 152.006 120.528 151.899 120.93 151.684C121.331 151.469 121.653 151.147 121.896 150.718C122.148 150.289 122.274 149.766 122.274 149.15C122.274 148.534 122.152 148.011 121.91 147.582C121.667 147.153 121.35 146.835 120.958 146.63C120.566 146.415 120.141 146.308 119.684 146.308C119.217 146.308 118.788 146.415 118.396 146.63C118.013 146.835 117.705 147.153 117.472 147.582C117.238 148.011 117.122 148.534 117.122 149.15C117.122 149.775 117.234 150.303 117.458 150.732C117.691 151.161 117.999 151.483 118.382 151.698C118.764 151.903 119.184 152.006 119.642 152.006ZM128.989 145.188C129.922 145.188 130.678 145.473 131.257 146.042C131.836 146.602 132.125 147.414 132.125 148.478V153H130.865V148.66C130.865 147.895 130.674 147.311 130.291 146.91C129.908 146.499 129.386 146.294 128.723 146.294C128.051 146.294 127.514 146.504 127.113 146.924C126.721 147.344 126.525 147.955 126.525 148.758V153H125.251V145.328H126.525V146.42C126.777 146.028 127.118 145.725 127.547 145.51C127.986 145.295 128.466 145.188 128.989 145.188ZM133.73 149.136C133.73 148.352 133.889 147.666 134.206 147.078C134.523 146.481 134.957 146.019 135.508 145.692C136.068 145.365 136.689 145.202 137.37 145.202C138.042 145.202 138.625 145.347 139.12 145.636C139.615 145.925 139.983 146.289 140.226 146.728V145.328H141.514V153H140.226V151.572C139.974 152.02 139.596 152.393 139.092 152.692C138.597 152.981 138.019 153.126 137.356 153.126C136.675 153.126 136.059 152.958 135.508 152.622C134.957 152.286 134.523 151.815 134.206 151.208C133.889 150.601 133.73 149.911 133.73 149.136ZM140.226 149.15C140.226 148.571 140.109 148.067 139.876 147.638C139.643 147.209 139.325 146.882 138.924 146.658C138.532 146.425 138.098 146.308 137.622 146.308C137.146 146.308 136.712 146.42 136.32 146.644C135.928 146.868 135.615 147.195 135.382 147.624C135.149 148.053 135.032 148.557 135.032 149.136C135.032 149.724 135.149 150.237 135.382 150.676C135.615 151.105 135.928 151.437 136.32 151.67C136.712 151.894 137.146 152.006 137.622 152.006C138.098 152.006 138.532 151.894 138.924 151.67C139.325 151.437 139.643 151.105 139.876 150.676C140.109 150.237 140.226 149.729 140.226 149.15ZM143.191 149.136C143.191 148.352 143.35 147.666 143.667 147.078C143.984 146.481 144.418 146.019 144.969 145.692C145.529 145.365 146.154 145.202 146.845 145.202C147.442 145.202 147.998 145.342 148.511 145.622C149.024 145.893 149.416 146.252 149.687 146.7V142.64H150.975V153H149.687V151.558C149.435 152.015 149.062 152.393 148.567 152.692C148.072 152.981 147.494 153.126 146.831 153.126C146.15 153.126 145.529 152.958 144.969 152.622C144.418 152.286 143.984 151.815 143.667 151.208C143.35 150.601 143.191 149.911 143.191 149.136ZM149.687 149.15C149.687 148.571 149.57 148.067 149.337 147.638C149.104 147.209 148.786 146.882 148.385 146.658C147.993 146.425 147.559 146.308 147.083 146.308C146.607 146.308 146.173 146.42 145.781 146.644C145.389 146.868 145.076 147.195 144.843 147.624C144.61 148.053 144.493 148.557 144.493 149.136C144.493 149.724 144.61 150.237 144.843 150.676C145.076 151.105 145.389 151.437 145.781 151.67C146.173 151.894 146.607 152.006 147.083 152.006C147.559 152.006 147.993 151.894 148.385 151.67C148.786 151.437 149.104 151.105 149.337 150.676C149.57 150.237 149.687 149.729 149.687 149.15ZM156.474 153.126C155.755 153.126 155.102 152.963 154.514 152.636C153.935 152.309 153.478 151.847 153.142 151.25C152.815 150.643 152.652 149.943 152.652 149.15C152.652 148.366 152.82 147.675 153.156 147.078C153.501 146.471 153.968 146.009 154.556 145.692C155.144 145.365 155.802 145.202 156.53 145.202C157.258 145.202 157.916 145.365 158.504 145.692C159.092 146.009 159.554 146.467 159.89 147.064C160.235 147.661 160.408 148.357 160.408 149.15C160.408 149.943 160.23 150.643 159.876 151.25C159.53 151.847 159.059 152.309 158.462 152.636C157.864 152.963 157.202 153.126 156.474 153.126ZM156.474 152.006C156.931 152.006 157.36 151.899 157.762 151.684C158.163 151.469 158.485 151.147 158.728 150.718C158.98 150.289 159.106 149.766 159.106 149.15C159.106 148.534 158.984 148.011 158.742 147.582C158.499 147.153 158.182 146.835 157.79 146.63C157.398 146.415 156.973 146.308 156.516 146.308C156.049 146.308 155.62 146.415 155.228 146.63C154.845 146.835 154.537 147.153 154.304 147.582C154.07 148.011 153.954 148.534 153.954 149.15C153.954 149.775 154.066 150.303 154.29 150.732C154.523 151.161 154.831 151.483 155.214 151.698C155.596 151.903 156.016 152.006 156.474 152.006ZM167.089 146.742C167.341 146.303 167.715 145.939 168.209 145.65C168.713 145.351 169.297 145.202 169.959 145.202C170.641 145.202 171.257 145.365 171.807 145.692C172.367 146.019 172.806 146.481 173.123 147.078C173.441 147.666 173.599 148.352 173.599 149.136C173.599 149.911 173.441 150.601 173.123 151.208C172.806 151.815 172.367 152.286 171.807 152.622C171.257 152.958 170.641 153.126 169.959 153.126C169.306 153.126 168.727 152.981 168.223 152.692C167.729 152.393 167.351 152.025 167.089 151.586V156.64H165.815V145.328H167.089V146.742ZM172.297 149.136C172.297 148.557 172.181 148.053 171.947 147.624C171.714 147.195 171.397 146.868 170.995 146.644C170.603 146.42 170.169 146.308 169.693 146.308C169.227 146.308 168.793 146.425 168.391 146.658C167.999 146.882 167.682 147.213 167.439 147.652C167.206 148.081 167.089 148.581 167.089 149.15C167.089 149.729 167.206 150.237 167.439 150.676C167.682 151.105 167.999 151.437 168.391 151.67C168.793 151.894 169.227 152.006 169.693 152.006C170.169 152.006 170.603 151.894 170.995 151.67C171.397 151.437 171.714 151.105 171.947 150.676C172.181 150.237 172.297 149.724 172.297 149.136ZM174.8 149.136C174.8 148.352 174.959 147.666 175.276 147.078C175.594 146.481 176.028 146.019 176.578 145.692C177.138 145.365 177.759 145.202 178.44 145.202C179.112 145.202 179.696 145.347 180.19 145.636C180.685 145.925 181.054 146.289 181.296 146.728V145.328H182.584V153H181.296V151.572C181.044 152.02 180.666 152.393 180.162 152.692C179.668 152.981 179.089 153.126 178.426 153.126C177.745 153.126 177.129 152.958 176.578 152.622C176.028 152.286 175.594 151.815 175.276 151.208C174.959 150.601 174.8 149.911 174.8 149.136ZM181.296 149.15C181.296 148.571 181.18 148.067 180.946 147.638C180.713 147.209 180.396 146.882 179.994 146.658C179.602 146.425 179.168 146.308 178.692 146.308C178.216 146.308 177.782 146.42 177.39 146.644C176.998 146.868 176.686 147.195 176.452 147.624C176.219 148.053 176.102 148.557 176.102 149.136C176.102 149.724 176.219 150.237 176.452 150.676C176.686 151.105 176.998 151.437 177.39 151.67C177.782 151.894 178.216 152.006 178.692 152.006C179.168 152.006 179.602 151.894 179.994 151.67C180.396 151.437 180.713 151.105 180.946 150.676C181.18 150.237 181.296 149.729 181.296 149.15ZM186.011 146.574C186.235 146.135 186.553 145.795 186.963 145.552C187.383 145.309 187.892 145.188 188.489 145.188V146.504H188.153C186.725 146.504 186.011 147.279 186.011 148.828V153H184.737V145.328H186.011V146.574ZM189.484 149.136C189.484 148.352 189.643 147.666 189.96 147.078C190.277 146.481 190.711 146.019 191.262 145.692C191.822 145.365 192.443 145.202 193.124 145.202C193.796 145.202 194.379 145.347 194.874 145.636C195.369 145.925 195.737 146.289 195.98 146.728V145.328H197.268V153H195.98V151.572C195.728 152.02 195.35 152.393 194.846 152.692C194.351 152.981 193.773 153.126 193.11 153.126C192.429 153.126 191.813 152.958 191.262 152.622C190.711 152.286 190.277 151.815 189.96 151.208C189.643 150.601 189.484 149.911 189.484 149.136ZM195.98 149.15C195.98 148.571 195.863 148.067 195.63 147.638C195.397 147.209 195.079 146.882 194.678 146.658C194.286 146.425 193.852 146.308 193.376 146.308C192.9 146.308 192.466 146.42 192.074 146.644C191.682 146.868 191.369 147.195 191.136 147.624C190.903 148.053 190.786 148.557 190.786 149.136C190.786 149.724 190.903 150.237 191.136 150.676C191.369 151.105 191.682 151.437 192.074 151.67C192.466 151.894 192.9 152.006 193.376 152.006C193.852 152.006 194.286 151.894 194.678 151.67C195.079 151.437 195.397 151.105 195.63 150.676C195.863 150.237 195.98 149.729 195.98 149.15ZM202.677 149.136C202.677 148.352 202.836 147.666 203.153 147.078C203.471 146.481 203.905 146.019 204.455 145.692C205.015 145.365 205.636 145.202 206.317 145.202C206.989 145.202 207.573 145.347 208.067 145.636C208.562 145.925 208.931 146.289 209.173 146.728V145.328H210.461V153H209.173V151.572C208.921 152.02 208.543 152.393 208.039 152.692C207.545 152.981 206.966 153.126 206.303 153.126C205.622 153.126 205.006 152.958 204.455 152.622C203.905 152.286 203.471 151.815 203.153 151.208C202.836 150.601 202.677 149.911 202.677 149.136ZM209.173 149.15C209.173 148.571 209.057 148.067 208.823 147.638C208.59 147.209 208.273 146.882 207.871 146.658C207.479 146.425 207.045 146.308 206.569 146.308C206.093 146.308 205.659 146.42 205.267 146.644C204.875 146.868 204.563 147.195 204.329 147.624C204.096 148.053 203.979 148.557 203.979 149.136C203.979 149.724 204.096 150.237 204.329 150.676C204.563 151.105 204.875 151.437 205.267 151.67C205.659 151.894 206.093 152.006 206.569 152.006C207.045 152.006 207.479 151.894 207.871 151.67C208.273 151.437 208.59 151.105 208.823 150.676C209.057 150.237 209.173 149.729 209.173 149.15ZM222.871 146.098C222.871 146.91 222.591 147.587 222.031 148.128C221.48 148.66 220.635 148.926 219.497 148.926H217.621V153H216.347V143.242H219.497C220.598 143.242 221.433 143.508 222.003 144.04C222.581 144.572 222.871 145.258 222.871 146.098ZM219.497 147.876C220.206 147.876 220.729 147.722 221.065 147.414C221.401 147.106 221.569 146.667 221.569 146.098C221.569 144.894 220.878 144.292 219.497 144.292H217.621V147.876H219.497ZM223.978 149.136C223.978 148.352 224.137 147.666 224.454 147.078C224.771 146.481 225.205 146.019 225.756 145.692C226.316 145.365 226.937 145.202 227.618 145.202C228.29 145.202 228.873 145.347 229.368 145.636C229.863 145.925 230.231 146.289 230.474 146.728V145.328H231.762V153H230.474V151.572C230.222 152.02 229.844 152.393 229.34 152.692C228.845 152.981 228.267 153.126 227.604 153.126C226.923 153.126 226.307 152.958 225.756 152.622C225.205 152.286 224.771 151.815 224.454 151.208C224.137 150.601 223.978 149.911 223.978 149.136ZM230.474 149.15C230.474 148.571 230.357 148.067 230.124 147.638C229.891 147.209 229.573 146.882 229.172 146.658C228.78 146.425 228.346 146.308 227.87 146.308C227.394 146.308 226.96 146.42 226.568 146.644C226.176 146.868 225.863 147.195 225.63 147.624C225.397 148.053 225.28 148.557 225.28 149.136C225.28 149.724 225.397 150.237 225.63 150.676C225.863 151.105 226.176 151.437 226.568 151.67C226.96 151.894 227.394 152.006 227.87 152.006C228.346 152.006 228.78 151.894 229.172 151.67C229.573 151.437 229.891 151.105 230.124 150.676C230.357 150.237 230.474 149.729 230.474 149.15ZM240.523 145.328L235.903 156.612H234.587L236.099 152.916L233.005 145.328H234.419L236.827 151.544L239.207 145.328H240.523ZM248.328 146.098C248.328 146.91 248.048 147.587 247.488 148.128C246.937 148.66 246.092 148.926 244.954 148.926H243.078V153H241.804V143.242H244.954C246.055 143.242 246.89 143.508 247.46 144.04C248.038 144.572 248.328 145.258 248.328 146.098ZM244.954 147.876C245.663 147.876 246.186 147.722 246.522 147.414C246.858 147.106 247.026 146.667 247.026 146.098C247.026 144.894 246.335 144.292 244.954 144.292H243.078V147.876H244.954ZM249.435 149.136C249.435 148.352 249.594 147.666 249.911 147.078C250.228 146.481 250.662 146.019 251.213 145.692C251.773 145.365 252.394 145.202 253.075 145.202C253.747 145.202 254.33 145.347 254.825 145.636C255.32 145.925 255.688 146.289 255.931 146.728V145.328H257.219V153H255.931V151.572C255.679 152.02 255.301 152.393 254.797 152.692C254.302 152.981 253.724 153.126 253.061 153.126C252.38 153.126 251.764 152.958 251.213 152.622C250.662 152.286 250.228 151.815 249.911 151.208C249.594 150.601 249.435 149.911 249.435 149.136ZM255.931 149.15C255.931 148.571 255.814 148.067 255.581 147.638C255.348 147.209 255.03 146.882 254.629 146.658C254.237 146.425 253.803 146.308 253.327 146.308C252.851 146.308 252.417 146.42 252.025 146.644C251.633 146.868 251.32 147.195 251.087 147.624C250.854 148.053 250.737 148.557 250.737 149.136C250.737 149.724 250.854 150.237 251.087 150.676C251.32 151.105 251.633 151.437 252.025 151.67C252.417 151.894 252.851 152.006 253.327 152.006C253.803 152.006 254.237 151.894 254.629 151.67C255.03 151.437 255.348 151.105 255.581 150.676C255.814 150.237 255.931 149.729 255.931 149.15ZM260.646 142.64V153H259.372V142.64H260.646ZM267.824 146.742C268.076 146.303 268.449 145.939 268.944 145.65C269.448 145.351 270.031 145.202 270.694 145.202C271.375 145.202 271.991 145.365 272.542 145.692C273.102 146.019 273.54 146.481 273.858 147.078C274.175 147.666 274.334 148.352 274.334 149.136C274.334 149.911 274.175 150.601 273.858 151.208C273.54 151.815 273.102 152.286 272.542 152.622C271.991 152.958 271.375 153.126 270.694 153.126C270.04 153.126 269.462 152.981 268.958 152.692C268.463 152.393 268.085 152.025 267.824 151.586V156.64H266.55V145.328H267.824V146.742ZM273.032 149.136C273.032 148.557 272.915 148.053 272.682 147.624C272.448 147.195 272.131 146.868 271.73 146.644C271.338 146.42 270.904 146.308 270.428 146.308C269.961 146.308 269.527 146.425 269.126 146.658C268.734 146.882 268.416 147.213 268.174 147.652C267.94 148.081 267.824 148.581 267.824 149.15C267.824 149.729 267.94 150.237 268.174 150.676C268.416 151.105 268.734 151.437 269.126 151.67C269.527 151.894 269.961 152.006 270.428 152.006C270.904 152.006 271.338 151.894 271.73 151.67C272.131 151.437 272.448 151.105 272.682 150.676C272.915 150.237 273.032 149.724 273.032 149.136ZM275.535 149.136C275.535 148.352 275.693 147.666 276.011 147.078C276.328 146.481 276.762 146.019 277.313 145.692C277.873 145.365 278.493 145.202 279.175 145.202C279.847 145.202 280.43 145.347 280.925 145.636C281.419 145.925 281.788 146.289 282.031 146.728V145.328H283.319V153H282.031V151.572C281.779 152.02 281.401 152.393 280.897 152.692C280.402 152.981 279.823 153.126 279.161 153.126C278.479 153.126 277.863 152.958 277.313 152.622C276.762 152.286 276.328 151.815 276.011 151.208C275.693 150.601 275.535 149.911 275.535 149.136ZM282.031 149.15C282.031 148.571 281.914 148.067 281.681 147.638C281.447 147.209 281.13 146.882 280.729 146.658C280.337 146.425 279.903 146.308 279.427 146.308C278.951 146.308 278.517 146.42 278.125 146.644C277.733 146.868 277.42 147.195 277.187 147.624C276.953 148.053 276.837 148.557 276.837 149.136C276.837 149.724 276.953 150.237 277.187 150.676C277.42 151.105 277.733 151.437 278.125 151.67C278.517 151.894 278.951 152.006 279.427 152.006C279.903 152.006 280.337 151.894 280.729 151.67C281.13 151.437 281.447 151.105 281.681 150.676C281.914 150.237 282.031 149.729 282.031 149.15ZM286.746 146.574C286.97 146.135 287.287 145.795 287.698 145.552C288.118 145.309 288.626 145.188 289.224 145.188V146.504H288.888C287.46 146.504 286.746 147.279 286.746 148.828V153H285.472V145.328H286.746V146.574ZM290.218 149.136C290.218 148.352 290.377 147.666 290.694 147.078C291.012 146.481 291.446 146.019 291.996 145.692C292.556 145.365 293.177 145.202 293.858 145.202C294.53 145.202 295.114 145.347 295.608 145.636C296.103 145.925 296.472 146.289 296.714 146.728V145.328H298.002V153H296.714V151.572C296.462 152.02 296.084 152.393 295.58 152.692C295.086 152.981 294.507 153.126 293.844 153.126C293.163 153.126 292.547 152.958 291.996 152.622C291.446 152.286 291.012 151.815 290.694 151.208C290.377 150.601 290.218 149.911 290.218 149.136ZM296.714 149.15C296.714 148.571 296.598 148.067 296.364 147.638C296.131 147.209 295.814 146.882 295.412 146.658C295.02 146.425 294.586 146.308 294.11 146.308C293.634 146.308 293.2 146.42 292.808 146.644C292.416 146.868 292.104 147.195 291.87 147.624C291.637 148.053 291.52 148.557 291.52 149.136C291.52 149.724 291.637 150.237 291.87 150.676C292.104 151.105 292.416 151.437 292.808 151.67C293.2 151.894 293.634 152.006 294.11 152.006C294.586 152.006 295.02 151.894 295.412 151.67C295.814 151.437 296.131 151.105 296.364 150.676C296.598 150.237 296.714 149.729 296.714 149.15ZM307.01 146.378H305.4V153H304.126V146.378H303.132V145.328H304.126V144.782C304.126 143.923 304.345 143.298 304.784 142.906C305.232 142.505 305.946 142.304 306.926 142.304V143.368C306.366 143.368 305.969 143.48 305.736 143.704C305.512 143.919 305.4 144.278 305.4 144.782V145.328H307.01V146.378ZM309.153 144.082C308.91 144.082 308.705 143.998 308.537 143.83C308.369 143.662 308.285 143.457 308.285 143.214C308.285 142.971 308.369 142.766 308.537 142.598C308.705 142.43 308.91 142.346 309.153 142.346C309.386 142.346 309.582 142.43 309.741 142.598C309.909 142.766 309.993 142.971 309.993 143.214C309.993 143.457 309.909 143.662 309.741 143.83C309.582 143.998 309.386 144.082 309.153 144.082ZM309.769 145.328V153H308.495V145.328H309.769ZM315.678 145.188C316.612 145.188 317.368 145.473 317.946 146.042C318.525 146.602 318.814 147.414 318.814 148.478V153H317.554V148.66C317.554 147.895 317.363 147.311 316.98 146.91C316.598 146.499 316.075 146.294 315.412 146.294C314.74 146.294 314.204 146.504 313.802 146.924C313.41 147.344 313.214 147.955 313.214 148.758V153H311.94V145.328H313.214V146.42C313.466 146.028 313.807 145.725 314.236 145.51C314.675 145.295 315.156 145.188 315.678 145.188ZM320.419 149.136C320.419 148.352 320.578 147.666 320.895 147.078C321.213 146.481 321.647 146.019 322.197 145.692C322.757 145.365 323.378 145.202 324.059 145.202C324.731 145.202 325.315 145.347 325.809 145.636C326.304 145.925 326.673 146.289 326.915 146.728V145.328H328.203V153H326.915V151.572C326.663 152.02 326.285 152.393 325.781 152.692C325.287 152.981 324.708 153.126 324.045 153.126C323.364 153.126 322.748 152.958 322.197 152.622C321.647 152.286 321.213 151.815 320.895 151.208C320.578 150.601 320.419 149.911 320.419 149.136ZM326.915 149.15C326.915 148.571 326.799 148.067 326.565 147.638C326.332 147.209 326.015 146.882 325.613 146.658C325.221 146.425 324.787 146.308 324.311 146.308C323.835 146.308 323.401 146.42 323.009 146.644C322.617 146.868 322.305 147.195 322.071 147.624C321.838 148.053 321.721 148.557 321.721 149.136C321.721 149.724 321.838 150.237 322.071 150.676C322.305 151.105 322.617 151.437 323.009 151.67C323.401 151.894 323.835 152.006 324.311 152.006C324.787 152.006 325.221 151.894 325.613 151.67C326.015 151.437 326.332 151.105 326.565 150.676C326.799 150.237 326.915 149.729 326.915 149.15ZM331.63 142.64V153H330.356V142.64H331.63ZM334.46 144.082C334.217 144.082 334.012 143.998 333.844 143.83C333.676 143.662 333.592 143.457 333.592 143.214C333.592 142.971 333.676 142.766 333.844 142.598C334.012 142.43 334.217 142.346 334.46 142.346C334.693 142.346 334.889 142.43 335.048 142.598C335.216 142.766 335.3 142.971 335.3 143.214C335.3 143.457 335.216 143.662 335.048 143.83C334.889 143.998 334.693 144.082 334.46 144.082ZM335.076 145.328V153H333.802V145.328H335.076ZM338.199 151.95H341.965V153H336.743V151.95L340.467 146.364H336.771V145.328H341.937V146.364L338.199 151.95ZM343.142 149.136C343.142 148.352 343.301 147.666 343.618 147.078C343.935 146.481 344.369 146.019 344.92 145.692C345.48 145.365 346.101 145.202 346.782 145.202C347.454 145.202 348.037 145.347 348.532 145.636C349.027 145.925 349.395 146.289 349.638 146.728V145.328H350.926V153H349.638V151.572C349.386 152.02 349.008 152.393 348.504 152.692C348.009 152.981 347.431 153.126 346.768 153.126C346.087 153.126 345.471 152.958 344.92 152.622C344.369 152.286 343.935 151.815 343.618 151.208C343.301 150.601 343.142 149.911 343.142 149.136ZM349.638 149.15C349.638 148.571 349.521 148.067 349.288 147.638C349.055 147.209 348.737 146.882 348.336 146.658C347.944 146.425 347.51 146.308 347.034 146.308C346.558 146.308 346.124 146.42 345.732 146.644C345.34 146.868 345.027 147.195 344.794 147.624C344.561 148.053 344.444 148.557 344.444 149.136C344.444 149.724 344.561 150.237 344.794 150.676C345.027 151.105 345.34 151.437 345.732 151.67C346.124 151.894 346.558 152.006 347.034 152.006C347.51 152.006 347.944 151.894 348.336 151.67C348.737 151.437 349.055 151.105 349.288 150.676C349.521 150.237 349.638 149.729 349.638 149.15ZM354.353 146.574C354.577 146.135 354.894 145.795 355.305 145.552C355.725 145.309 356.234 145.188 356.831 145.188V146.504H356.495C355.067 146.504 354.353 147.279 354.353 148.828V153H353.079V145.328H354.353V146.574ZM364.75 153.126C364.162 153.126 363.635 153.028 363.168 152.832C362.701 152.627 362.333 152.347 362.062 151.992C361.791 151.628 361.642 151.213 361.614 150.746H362.93C362.967 151.129 363.145 151.441 363.462 151.684C363.789 151.927 364.213 152.048 364.736 152.048C365.221 152.048 365.604 151.941 365.884 151.726C366.164 151.511 366.304 151.241 366.304 150.914C366.304 150.578 366.155 150.331 365.856 150.172C365.557 150.004 365.095 149.841 364.47 149.682C363.901 149.533 363.434 149.383 363.07 149.234C362.715 149.075 362.407 148.847 362.146 148.548C361.894 148.24 361.768 147.839 361.768 147.344C361.768 146.952 361.885 146.593 362.118 146.266C362.351 145.939 362.683 145.683 363.112 145.496C363.541 145.3 364.031 145.202 364.582 145.202C365.431 145.202 366.117 145.417 366.64 145.846C367.163 146.275 367.443 146.863 367.48 147.61H366.206C366.178 147.209 366.015 146.887 365.716 146.644C365.427 146.401 365.035 146.28 364.54 146.28C364.083 146.28 363.719 146.378 363.448 146.574C363.177 146.77 363.042 147.027 363.042 147.344C363.042 147.596 363.121 147.806 363.28 147.974C363.448 148.133 363.653 148.263 363.896 148.366C364.148 148.459 364.493 148.567 364.932 148.688C365.483 148.837 365.931 148.987 366.276 149.136C366.621 149.276 366.915 149.491 367.158 149.78C367.41 150.069 367.541 150.447 367.55 150.914C367.55 151.334 367.433 151.712 367.2 152.048C366.967 152.384 366.635 152.65 366.206 152.846C365.786 153.033 365.301 153.126 364.75 153.126ZM376.153 145.328V153H374.879V151.866C374.636 152.258 374.295 152.566 373.857 152.79C373.427 153.005 372.951 153.112 372.429 153.112C371.831 153.112 371.295 152.991 370.819 152.748C370.343 152.496 369.965 152.123 369.685 151.628C369.414 151.133 369.279 150.531 369.279 149.822V145.328H370.539V149.654C370.539 150.41 370.73 150.993 371.113 151.404C371.495 151.805 372.018 152.006 372.681 152.006C373.362 152.006 373.899 151.796 374.291 151.376C374.683 150.956 374.879 150.345 374.879 149.542V145.328H376.153ZM377.828 149.136C377.828 148.352 377.986 147.666 378.304 147.078C378.621 146.481 379.055 146.019 379.606 145.692C380.166 145.365 380.786 145.202 381.468 145.202C382.14 145.202 382.723 145.347 383.218 145.636C383.712 145.925 384.081 146.289 384.324 146.728V145.328H385.612V153H384.324V151.572C384.072 152.02 383.694 152.393 383.19 152.692C382.695 152.981 382.116 153.126 381.454 153.126C380.772 153.126 380.156 152.958 379.606 152.622C379.055 152.286 378.621 151.815 378.304 151.208C377.986 150.601 377.828 149.911 377.828 149.136ZM384.324 149.15C384.324 148.571 384.207 148.067 383.974 147.638C383.74 147.209 383.423 146.882 383.022 146.658C382.63 146.425 382.196 146.308 381.72 146.308C381.244 146.308 380.81 146.42 380.418 146.644C380.026 146.868 379.713 147.195 379.48 147.624C379.246 148.053 379.13 148.557 379.13 149.136C379.13 149.724 379.246 150.237 379.48 150.676C379.713 151.105 380.026 151.437 380.418 151.67C380.81 151.894 381.244 152.006 381.72 152.006C382.196 152.006 382.63 151.894 383.022 151.67C383.423 151.437 383.74 151.105 383.974 150.676C384.207 150.237 384.324 149.729 384.324 149.15ZM391.021 149.15C391.021 148.357 391.18 147.666 391.497 147.078C391.814 146.481 392.253 146.019 392.813 145.692C393.382 145.365 394.031 145.202 394.759 145.202C395.702 145.202 396.476 145.431 397.083 145.888C397.699 146.345 398.105 146.98 398.301 147.792H396.929C396.798 147.325 396.542 146.957 396.159 146.686C395.786 146.415 395.319 146.28 394.759 146.28C394.031 146.28 393.443 146.532 392.995 147.036C392.547 147.531 392.323 148.235 392.323 149.15C392.323 150.074 392.547 150.788 392.995 151.292C393.443 151.796 394.031 152.048 394.759 152.048C395.319 152.048 395.786 151.917 396.159 151.656C396.532 151.395 396.789 151.021 396.929 150.536H398.301C398.096 151.32 397.685 151.95 397.069 152.426C396.453 152.893 395.683 153.126 394.759 153.126C394.031 153.126 393.382 152.963 392.813 152.636C392.253 152.309 391.814 151.847 391.497 151.25C391.18 150.653 391.021 149.953 391.021 149.15ZM403.347 153.126C402.628 153.126 401.975 152.963 401.387 152.636C400.808 152.309 400.351 151.847 400.015 151.25C399.688 150.643 399.525 149.943 399.525 149.15C399.525 148.366 399.693 147.675 400.029 147.078C400.374 146.471 400.841 146.009 401.429 145.692C402.017 145.365 402.675 145.202 403.403 145.202C404.131 145.202 404.789 145.365 405.377 145.692C405.965 146.009 406.427 146.467 406.763 147.064C407.108 147.661 407.281 148.357 407.281 149.15C407.281 149.943 407.104 150.643 406.749 151.25C406.404 151.847 405.932 152.309 405.335 152.636C404.738 152.963 404.075 153.126 403.347 153.126ZM403.347 152.006C403.804 152.006 404.234 151.899 404.635 151.684C405.036 151.469 405.358 151.147 405.601 150.718C405.853 150.289 405.979 149.766 405.979 149.15C405.979 148.534 405.858 148.011 405.615 147.582C405.372 147.153 405.055 146.835 404.663 146.63C404.271 146.415 403.846 146.308 403.389 146.308C402.922 146.308 402.493 146.415 402.101 146.63C401.718 146.835 401.41 147.153 401.177 147.582C400.944 148.011 400.827 148.534 400.827 149.15C400.827 149.775 400.939 150.303 401.163 150.732C401.396 151.161 401.704 151.483 402.087 151.698C402.47 151.903 402.89 152.006 403.347 152.006ZM418.182 145.188C418.779 145.188 419.311 145.314 419.778 145.566C420.245 145.809 420.613 146.177 420.884 146.672C421.155 147.167 421.29 147.769 421.29 148.478V153H420.03V148.66C420.03 147.895 419.839 147.311 419.456 146.91C419.083 146.499 418.574 146.294 417.93 146.294C417.267 146.294 416.74 146.509 416.348 146.938C415.956 147.358 415.76 147.969 415.76 148.772V153H414.5V148.66C414.5 147.895 414.309 147.311 413.926 146.91C413.553 146.499 413.044 146.294 412.4 146.294C411.737 146.294 411.21 146.509 410.818 146.938C410.426 147.358 410.23 147.969 410.23 148.772V153H408.956V145.328H410.23V146.434C410.482 146.033 410.818 145.725 411.238 145.51C411.667 145.295 412.139 145.188 412.652 145.188C413.296 145.188 413.865 145.333 414.36 145.622C414.855 145.911 415.223 146.336 415.466 146.896C415.681 146.355 416.035 145.935 416.53 145.636C417.025 145.337 417.575 145.188 418.182 145.188ZM424.654 146.742C424.906 146.303 425.279 145.939 425.774 145.65C426.278 145.351 426.861 145.202 427.524 145.202C428.205 145.202 428.821 145.365 429.372 145.692C429.932 146.019 430.37 146.481 430.688 147.078C431.005 147.666 431.164 148.352 431.164 149.136C431.164 149.911 431.005 150.601 430.688 151.208C430.37 151.815 429.932 152.286 429.372 152.622C428.821 152.958 428.205 153.126 427.524 153.126C426.87 153.126 426.292 152.981 425.788 152.692C425.293 152.393 424.915 152.025 424.654 151.586V156.64H423.38V145.328H424.654V146.742ZM429.862 149.136C429.862 148.557 429.745 148.053 429.512 147.624C429.278 147.195 428.961 146.868 428.56 146.644C428.168 146.42 427.734 146.308 427.258 146.308C426.791 146.308 426.357 146.425 425.956 146.658C425.564 146.882 425.246 147.213 425.004 147.652C424.77 148.081 424.654 148.581 424.654 149.15C424.654 149.729 424.77 150.237 425.004 150.676C425.246 151.105 425.564 151.437 425.956 151.67C426.357 151.894 426.791 152.006 427.258 152.006C427.734 152.006 428.168 151.894 428.56 151.67C428.961 151.437 429.278 151.105 429.512 150.676C429.745 150.237 429.862 149.724 429.862 149.136ZM434.115 146.574C434.339 146.135 434.656 145.795 435.067 145.552C435.487 145.309 435.995 145.188 436.593 145.188V146.504H436.257C434.829 146.504 434.115 147.279 434.115 148.828V153H432.841V145.328H434.115V146.574ZM437.587 149.136C437.587 148.352 437.746 147.666 438.063 147.078C438.381 146.481 438.815 146.019 439.365 145.692C439.925 145.365 440.546 145.202 441.227 145.202C441.899 145.202 442.483 145.347 442.977 145.636C443.472 145.925 443.841 146.289 444.083 146.728V145.328H445.371V153H444.083V151.572C443.831 152.02 443.453 152.393 442.949 152.692C442.455 152.981 441.876 153.126 441.213 153.126C440.532 153.126 439.916 152.958 439.365 152.622C438.815 152.286 438.381 151.815 438.063 151.208C437.746 150.601 437.587 149.911 437.587 149.136ZM444.083 149.15C444.083 148.571 443.967 148.067 443.733 147.638C443.5 147.209 443.183 146.882 442.781 146.658C442.389 146.425 441.955 146.308 441.479 146.308C441.003 146.308 440.569 146.42 440.177 146.644C439.785 146.868 439.473 147.195 439.239 147.624C439.006 148.053 438.889 148.557 438.889 149.136C438.889 149.724 439.006 150.237 439.239 150.676C439.473 151.105 439.785 151.437 440.177 151.67C440.569 151.894 441.003 152.006 441.479 152.006C441.955 152.006 442.389 151.894 442.781 151.67C443.183 151.437 443.5 151.105 443.733 150.676C443.967 150.237 444.083 149.729 444.083 149.15ZM197.817 170.15C197.817 169.357 197.976 168.666 198.293 168.078C198.61 167.481 199.049 167.019 199.609 166.692C200.178 166.365 200.827 166.202 201.555 166.202C202.498 166.202 203.272 166.431 203.879 166.888C204.495 167.345 204.901 167.98 205.097 168.792H203.725C203.594 168.325 203.338 167.957 202.955 167.686C202.582 167.415 202.115 167.28 201.555 167.28C200.827 167.28 200.239 167.532 199.791 168.036C199.343 168.531 199.119 169.235 199.119 170.15C199.119 171.074 199.343 171.788 199.791 172.292C200.239 172.796 200.827 173.048 201.555 173.048C202.115 173.048 202.582 172.917 202.955 172.656C203.328 172.395 203.585 172.021 203.725 171.536H205.097C204.892 172.32 204.481 172.95 203.865 173.426C203.249 173.893 202.479 174.126 201.555 174.126C200.827 174.126 200.178 173.963 199.609 173.636C199.049 173.309 198.61 172.847 198.293 172.25C197.976 171.653 197.817 170.953 197.817 170.15ZM210.143 174.126C209.424 174.126 208.771 173.963 208.183 173.636C207.604 173.309 207.147 172.847 206.811 172.25C206.484 171.643 206.321 170.943 206.321 170.15C206.321 169.366 206.489 168.675 206.825 168.078C207.17 167.471 207.637 167.009 208.225 166.692C208.813 166.365 209.471 166.202 210.199 166.202C210.927 166.202 211.585 166.365 212.173 166.692C212.761 167.009 213.223 167.467 213.559 168.064C213.904 168.661 214.077 169.357 214.077 170.15C214.077 170.943 213.899 171.643 213.545 172.25C213.199 172.847 212.728 173.309 212.131 173.636C211.533 173.963 210.871 174.126 210.143 174.126ZM210.143 173.006C210.6 173.006 211.029 172.899 211.431 172.684C211.832 172.469 212.154 172.147 212.397 171.718C212.649 171.289 212.775 170.766 212.775 170.15C212.775 169.534 212.653 169.011 212.411 168.582C212.168 168.153 211.851 167.835 211.459 167.63C211.067 167.415 210.642 167.308 210.185 167.308C209.718 167.308 209.289 167.415 208.897 167.63C208.514 167.835 208.206 168.153 207.973 168.582C207.739 169.011 207.623 169.534 207.623 170.15C207.623 170.775 207.735 171.303 207.959 171.732C208.192 172.161 208.5 172.483 208.883 172.698C209.265 172.903 209.685 173.006 210.143 173.006ZM224.978 166.188C225.575 166.188 226.107 166.314 226.574 166.566C227.04 166.809 227.409 167.177 227.68 167.672C227.95 168.167 228.086 168.769 228.086 169.478V174H226.826V169.66C226.826 168.895 226.634 168.311 226.252 167.91C225.878 167.499 225.37 167.294 224.726 167.294C224.063 167.294 223.536 167.509 223.144 167.938C222.752 168.358 222.556 168.969 222.556 169.772V174H221.296V169.66C221.296 168.895 221.104 168.311 220.722 167.91C220.348 167.499 219.84 167.294 219.196 167.294C218.533 167.294 218.006 167.509 217.614 167.938C217.222 168.358 217.026 168.969 217.026 169.772V174H215.752V166.328H217.026V167.434C217.278 167.033 217.614 166.725 218.034 166.51C218.463 166.295 218.934 166.188 219.448 166.188C220.092 166.188 220.661 166.333 221.156 166.622C221.65 166.911 222.019 167.336 222.262 167.896C222.476 167.355 222.831 166.935 223.326 166.636C223.82 166.337 224.371 166.188 224.978 166.188ZM236.624 174.126C236.036 174.126 235.509 174.028 235.042 173.832C234.575 173.627 234.207 173.347 233.936 172.992C233.665 172.628 233.516 172.213 233.488 171.746H234.804C234.841 172.129 235.019 172.441 235.336 172.684C235.663 172.927 236.087 173.048 236.61 173.048C237.095 173.048 237.478 172.941 237.758 172.726C238.038 172.511 238.178 172.241 238.178 171.914C238.178 171.578 238.029 171.331 237.73 171.172C237.431 171.004 236.969 170.841 236.344 170.682C235.775 170.533 235.308 170.383 234.944 170.234C234.589 170.075 234.281 169.847 234.02 169.548C233.768 169.24 233.642 168.839 233.642 168.344C233.642 167.952 233.759 167.593 233.992 167.266C234.225 166.939 234.557 166.683 234.986 166.496C235.415 166.3 235.905 166.202 236.456 166.202C237.305 166.202 237.991 166.417 238.514 166.846C239.037 167.275 239.317 167.863 239.354 168.61H238.08C238.052 168.209 237.889 167.887 237.59 167.644C237.301 167.401 236.909 167.28 236.414 167.28C235.957 167.28 235.593 167.378 235.322 167.574C235.051 167.77 234.916 168.027 234.916 168.344C234.916 168.596 234.995 168.806 235.154 168.974C235.322 169.133 235.527 169.263 235.77 169.366C236.022 169.459 236.367 169.567 236.806 169.688C237.357 169.837 237.805 169.987 238.15 170.136C238.495 170.276 238.789 170.491 239.032 170.78C239.284 171.069 239.415 171.447 239.424 171.914C239.424 172.334 239.307 172.712 239.074 173.048C238.841 173.384 238.509 173.65 238.08 173.846C237.66 174.033 237.175 174.126 236.624 174.126ZM248.223 169.87C248.223 170.113 248.209 170.369 248.181 170.64H242.049C242.095 171.396 242.352 171.989 242.819 172.418C243.295 172.838 243.869 173.048 244.541 173.048C245.091 173.048 245.549 172.922 245.913 172.67C246.286 172.409 246.547 172.063 246.697 171.634H248.069C247.863 172.371 247.453 172.973 246.837 173.44C246.221 173.897 245.455 174.126 244.541 174.126C243.813 174.126 243.159 173.963 242.581 173.636C242.011 173.309 241.563 172.847 241.237 172.25C240.91 171.643 240.747 170.943 240.747 170.15C240.747 169.357 240.905 168.661 241.223 168.064C241.54 167.467 241.983 167.009 242.553 166.692C243.131 166.365 243.794 166.202 244.541 166.202C245.269 166.202 245.913 166.361 246.473 166.678C247.033 166.995 247.462 167.434 247.761 167.994C248.069 168.545 248.223 169.17 248.223 169.87ZM246.907 169.604C246.907 169.119 246.799 168.703 246.585 168.358C246.37 168.003 246.076 167.737 245.703 167.56C245.339 167.373 244.933 167.28 244.485 167.28C243.841 167.28 243.29 167.485 242.833 167.896C242.385 168.307 242.128 168.876 242.063 169.604H246.907ZM253.068 166.202C253.731 166.202 254.31 166.347 254.804 166.636C255.308 166.925 255.682 167.289 255.924 167.728V166.328H257.212V174.168C257.212 174.868 257.063 175.489 256.764 176.03C256.466 176.581 256.036 177.01 255.476 177.318C254.926 177.626 254.282 177.78 253.544 177.78C252.536 177.78 251.696 177.542 251.024 177.066C250.352 176.59 249.956 175.941 249.834 175.12H251.094C251.234 175.587 251.524 175.96 251.962 176.24C252.401 176.529 252.928 176.674 253.544 176.674C254.244 176.674 254.814 176.455 255.252 176.016C255.7 175.577 255.924 174.961 255.924 174.168V172.558C255.672 173.006 255.299 173.379 254.804 173.678C254.31 173.977 253.731 174.126 253.068 174.126C252.387 174.126 251.766 173.958 251.206 173.622C250.656 173.286 250.222 172.815 249.904 172.208C249.587 171.601 249.428 170.911 249.428 170.136C249.428 169.352 249.587 168.666 249.904 168.078C250.222 167.481 250.656 167.019 251.206 166.692C251.766 166.365 252.387 166.202 253.068 166.202ZM255.924 170.15C255.924 169.571 255.808 169.067 255.574 168.638C255.341 168.209 255.024 167.882 254.622 167.658C254.23 167.425 253.796 167.308 253.32 167.308C252.844 167.308 252.41 167.42 252.018 167.644C251.626 167.868 251.314 168.195 251.08 168.624C250.847 169.053 250.73 169.557 250.73 170.136C250.73 170.724 250.847 171.237 251.08 171.676C251.314 172.105 251.626 172.437 252.018 172.67C252.41 172.894 252.844 173.006 253.32 173.006C253.796 173.006 254.23 172.894 254.622 172.67C255.024 172.437 255.341 172.105 255.574 171.676C255.808 171.237 255.924 170.729 255.924 170.15ZM266.169 166.328V174H264.895V172.866C264.652 173.258 264.312 173.566 263.873 173.79C263.444 174.005 262.968 174.112 262.445 174.112C261.848 174.112 261.311 173.991 260.835 173.748C260.359 173.496 259.981 173.123 259.701 172.628C259.43 172.133 259.295 171.531 259.295 170.822V166.328H260.555V170.654C260.555 171.41 260.746 171.993 261.129 172.404C261.512 172.805 262.034 173.006 262.697 173.006C263.378 173.006 263.915 172.796 264.307 172.376C264.699 171.956 264.895 171.345 264.895 170.542V166.328H266.169ZM269.594 167.574C269.818 167.135 270.136 166.795 270.546 166.552C270.966 166.309 271.475 166.188 272.072 166.188V167.504H271.736C270.308 167.504 269.594 168.279 269.594 169.828V174H268.32V166.328H269.594V167.574ZM273.067 170.136C273.067 169.352 273.226 168.666 273.543 168.078C273.86 167.481 274.294 167.019 274.845 166.692C275.405 166.365 276.026 166.202 276.707 166.202C277.379 166.202 277.962 166.347 278.457 166.636C278.952 166.925 279.32 167.289 279.563 167.728V166.328H280.851V174H279.563V172.572C279.311 173.02 278.933 173.393 278.429 173.692C277.934 173.981 277.356 174.126 276.693 174.126C276.012 174.126 275.396 173.958 274.845 173.622C274.294 173.286 273.86 172.815 273.543 172.208C273.226 171.601 273.067 170.911 273.067 170.136ZM279.563 170.15C279.563 169.571 279.446 169.067 279.213 168.638C278.98 168.209 278.662 167.882 278.261 167.658C277.869 167.425 277.435 167.308 276.959 167.308C276.483 167.308 276.049 167.42 275.657 167.644C275.265 167.868 274.952 168.195 274.719 168.624C274.486 169.053 274.369 169.557 274.369 170.136C274.369 170.724 274.486 171.237 274.719 171.676C274.952 172.105 275.265 172.437 275.657 172.67C276.049 172.894 276.483 173.006 276.959 173.006C277.435 173.006 277.869 172.894 278.261 172.67C278.662 172.437 278.98 172.105 279.213 171.676C279.446 171.237 279.563 170.729 279.563 170.15ZM286.742 166.188C287.675 166.188 288.431 166.473 289.01 167.042C289.588 167.602 289.878 168.414 289.878 169.478V174H288.618V169.66C288.618 168.895 288.426 168.311 288.044 167.91C287.661 167.499 287.138 167.294 286.476 167.294C285.804 167.294 285.267 167.504 284.866 167.924C284.474 168.344 284.278 168.955 284.278 169.758V174H283.004V166.328H284.278V167.42C284.53 167.028 284.87 166.725 285.3 166.51C285.738 166.295 286.219 166.188 286.742 166.188ZM295.221 173.048C295.781 173.048 296.248 172.917 296.621 172.656C296.994 172.395 297.251 172.021 297.391 171.536H298.763C298.576 172.264 298.208 172.861 297.657 173.328C297.116 173.785 296.434 174.047 295.613 174.112V174.812C296.164 174.803 296.602 174.919 296.929 175.162C297.256 175.405 297.419 175.75 297.419 176.198C297.419 176.637 297.26 176.987 296.943 177.248C296.626 177.509 296.215 177.64 295.711 177.64H294.101V176.814H295.459C295.767 176.814 295.991 176.767 296.131 176.674C296.28 176.581 296.355 176.422 296.355 176.198C296.355 175.983 296.28 175.829 296.131 175.736C295.991 175.643 295.767 175.596 295.459 175.596H294.759V174.098C294.115 174.033 293.546 173.832 293.051 173.496C292.556 173.151 292.169 172.693 291.889 172.124C291.618 171.545 291.483 170.887 291.483 170.15C291.483 169.357 291.642 168.666 291.959 168.078C292.276 167.481 292.715 167.019 293.275 166.692C293.844 166.365 294.493 166.202 295.221 166.202C296.164 166.202 296.938 166.431 297.545 166.888C298.161 167.345 298.567 167.98 298.763 168.792H297.391C297.26 168.325 297.004 167.957 296.621 167.686C296.248 167.415 295.781 167.28 295.221 167.28C294.493 167.28 293.905 167.532 293.457 168.036C293.009 168.531 292.785 169.235 292.785 170.15C292.785 171.074 293.009 171.788 293.457 172.292C293.905 172.796 294.493 173.048 295.221 173.048ZM299.987 170.136C299.987 169.352 300.145 168.666 300.463 168.078C300.78 167.481 301.214 167.019 301.765 166.692C302.325 166.365 302.945 166.202 303.627 166.202C304.299 166.202 304.882 166.347 305.377 166.636C305.871 166.925 306.24 167.289 306.483 167.728V166.328H307.771V174H306.483V172.572C306.231 173.02 305.853 173.393 305.349 173.692C304.854 173.981 304.275 174.126 303.613 174.126C302.931 174.126 302.315 173.958 301.765 173.622C301.214 173.286 300.78 172.815 300.463 172.208C300.145 171.601 299.987 170.911 299.987 170.136ZM306.483 170.15C306.483 169.571 306.366 169.067 306.133 168.638C305.899 168.209 305.582 167.882 305.181 167.658C304.789 167.425 304.355 167.308 303.879 167.308C303.403 167.308 302.969 167.42 302.577 167.644C302.185 167.868 301.872 168.195 301.639 168.624C301.405 169.053 301.289 169.557 301.289 170.136C301.289 170.724 301.405 171.237 301.639 171.676C301.872 172.105 302.185 172.437 302.577 172.67C302.969 172.894 303.403 173.006 303.879 173.006C304.355 173.006 304.789 172.894 305.181 172.67C305.582 172.437 305.899 172.105 306.133 171.676C306.366 171.237 306.483 170.729 306.483 170.15ZM310.33 174.084C310.087 174.084 309.882 174 309.714 173.832C309.546 173.664 309.462 173.459 309.462 173.216C309.462 172.973 309.546 172.768 309.714 172.6C309.882 172.432 310.087 172.348 310.33 172.348C310.563 172.348 310.759 172.432 310.918 172.6C311.086 172.768 311.17 172.973 311.17 173.216C311.17 173.459 311.086 173.664 310.918 173.832C310.759 174 310.563 174.084 310.33 174.084Z" fill="black" fill-opacity="0.54"/>
<defs>
<clipPath id="clip0_4_2450">
<rect width="217" height="52" fill="white" transform="translate(39 32)"/>
</clipPath>
<clipPath id="clip1_4_2450">
<rect width="33" height="33" fill="white" transform="translate(437 41.5)"/>
</clipPath>
</defs>
</svg>
