<svg width="317" height="318" viewBox="0 0 317 318" fill="none" xmlns="http://www.w3.org/2000/svg">
<path d="M157.898 308.656C240.396 308.656 307.274 270.044 307.274 222.413C307.274 174.782 240.396 136.17 157.898 136.17C75.3992 136.17 8.52097 174.782 8.52097 222.413C8.52097 270.044 75.3992 308.656 157.898 308.656Z" fill="#F0F0F0"/>
<path d="M243.684 252.337C233.889 246.682 233.889 237.514 243.684 231.859C253.48 226.203 269.361 226.203 279.157 231.859C288.952 237.514 288.952 246.682 279.157 252.337C269.361 257.992 253.48 257.992 243.684 252.337Z" fill="#E0E0E0"/>
<path d="M44.4561 253.123L18.6903 238.25C17.2384 237.413 17.2384 236.05 18.6903 235.213L168.562 148.684C169.376 148.272 170.276 148.057 171.189 148.057C172.103 148.057 173.003 148.272 173.817 148.684L199.589 163.558C201.041 164.395 201.041 165.758 199.589 166.595L49.7183 253.123C48.9026 253.536 48.0013 253.751 47.0872 253.751C46.173 253.751 45.2717 253.536 44.4561 253.123Z" fill="#E0E0E0"/>
<path d="M137.071 226.609L159.223 213.803C161.505 212.484 162.646 210.759 162.646 209.029C162.646 207.298 162.646 205.947 162.646 205.947L139.67 192.988C139.028 192.573 138.494 192.012 138.11 191.351C137.727 190.69 137.505 189.947 137.464 189.184V161.865L98.7899 184.22V211.526C98.8344 212.289 99.0573 213.03 99.4405 213.691C99.8236 214.352 100.357 214.913 100.996 215.33L120.549 226.59C125.101 229.247 132.506 229.247 137.071 226.609Z" fill="#002F52"/>
<g opacity="0.6">
<path opacity="0.6" d="M137.071 226.609L159.223 213.803C161.505 212.484 162.646 210.759 162.646 209.029C162.646 207.298 162.646 205.947 162.646 205.947L139.67 192.988C139.028 192.573 138.494 192.012 138.11 191.351C137.727 190.69 137.505 189.947 137.464 189.184V161.865L98.7899 184.22V211.526C98.8344 212.289 99.0573 213.03 99.4405 213.691C99.8236 214.352 100.357 214.913 100.996 215.33L120.549 226.59C125.101 229.247 132.506 229.247 137.071 226.609Z" fill="black"/>
</g>
<path opacity="0.3" d="M108.065 216.364V219.432L100.977 215.343C100.338 214.926 99.8052 214.365 99.423 213.704C99.0408 213.043 98.8196 212.301 98.7772 211.539V184.22L106.144 179.966C106.296 181.836 106.461 183.77 106.62 185.672L101.44 188.652V209.986C101.481 210.749 101.702 211.492 102.086 212.153C102.469 212.814 103.004 213.375 103.646 213.79L108.065 216.364Z" fill="black"/>
<path d="M101.44 209.992C101.484 210.755 101.706 211.497 102.089 212.157C102.473 212.818 103.006 213.38 103.646 213.796L120.523 223.522C125.088 226.153 132.493 226.159 137.064 223.522L159.254 210.715C163.826 208.077 163.826 203.804 159.254 201.167L142.365 191.441C141.726 191.024 141.194 190.462 140.812 189.801C140.43 189.141 140.208 188.399 140.165 187.637V166.297L101.491 188.652L101.44 209.992Z" fill="#002F52"/>
<path opacity="0.3" d="M101.44 209.992C101.484 210.755 101.706 211.497 102.089 212.157C102.473 212.818 103.006 213.38 103.646 213.796L120.523 223.522C125.088 226.153 132.493 226.159 137.064 223.522L159.254 210.715C163.826 208.077 163.826 203.804 159.254 201.167L142.365 191.441C141.726 191.024 141.194 190.462 140.812 189.801C140.43 189.141 140.208 188.399 140.165 187.637V166.297L101.491 188.652L101.44 209.992Z" fill="black"/>
<path opacity="0.5" d="M146.834 194.047L142.339 191.454C141.7 191.036 141.169 190.475 140.786 189.814C140.404 189.153 140.183 188.412 140.139 187.65V166.297L101.465 188.652V209.992C101.509 210.755 101.731 211.497 102.115 212.157C102.498 212.818 103.031 213.38 103.672 213.796L108.11 216.332L146.834 194.047Z" fill="black"/>
<path d="M162.653 205.954V209.035C162.653 210.766 161.505 212.484 159.229 213.809L137.039 226.61C134.611 227.906 131.899 228.579 129.146 228.569V225.5C131.899 225.511 134.611 224.837 137.039 223.541L159.229 210.728C161.505 209.416 162.653 207.685 162.653 205.954Z" fill="#002F52"/>
<path opacity="0.5" d="M162.653 205.954V209.035C162.653 210.766 161.505 212.484 159.229 213.809L137.039 226.61C134.611 227.906 131.899 228.579 129.146 228.569V225.5C131.899 225.511 134.611 224.837 137.039 223.541L159.229 210.728C161.505 209.416 162.653 207.685 162.653 205.954Z" fill="black"/>
<path d="M39.308 236.513C40.1441 236.917 41.0633 237.118 41.9916 237.102C42.92 237.085 43.8314 236.851 44.6526 236.418L194.277 150.035C195.079 149.512 195.747 148.807 196.226 147.978C196.705 147.148 196.982 146.218 197.035 145.261V24.2178C197.006 23.2873 196.758 22.3768 196.31 21.5604C195.863 20.744 195.229 20.0448 194.46 19.5199C193.625 19.1156 192.707 18.9141 191.779 18.9317C190.852 18.9494 189.941 19.1856 189.122 19.6213L39.4982 106.029C38.6987 106.556 38.035 107.264 37.5612 108.096C37.0875 108.928 36.817 109.86 36.772 110.816V231.84C36.8003 232.763 37.0444 233.666 37.4848 234.478C37.9252 235.289 38.5496 235.986 39.308 236.513Z" fill="#002F52"/>
<path d="M44.6717 236.411L194.296 150.029C195.099 149.506 195.768 148.802 196.247 147.972C196.726 147.142 197.003 146.211 197.054 145.255V24.2176C197.054 22.4614 195.817 21.745 194.296 22.6262L44.6717 109.009C43.869 109.532 43.201 110.236 42.7218 111.066C42.2426 111.895 41.9658 112.826 41.9138 113.783V234.82C41.9138 236.576 43.1501 237.292 44.6717 236.411Z" fill="#002F52"/>
<path opacity="0.5" d="M44.6717 236.411L194.296 150.029C195.099 149.506 195.768 148.802 196.247 147.972C196.726 147.142 197.003 146.211 197.054 145.255V24.2176C197.054 22.4614 195.817 21.745 194.296 22.6262L44.6717 109.009C43.869 109.532 43.201 110.236 42.7218 111.066C42.2426 111.895 41.9658 112.826 41.9138 113.783V234.82C41.9138 236.576 43.1501 237.292 44.6717 236.411Z" fill="black"/>
<path d="M44.2659 239.556C43.4813 239.898 42.6317 240.066 41.7758 240.049C40.9199 240.031 40.0779 239.828 39.308 239.454C38.5479 238.926 37.9225 238.227 37.482 237.414C37.0415 236.6 36.7983 235.694 36.772 234.769V223.75L41.9391 226.742V237.761C41.9074 239.365 42.9281 240.095 44.2659 239.556Z" fill="#002F52"/>
<path opacity="0.5" d="M44.2659 239.556C43.4813 239.898 42.6317 240.066 41.7758 240.049C40.9199 240.031 40.0779 239.828 39.308 239.454C38.5479 238.926 37.9225 238.227 37.482 237.414C37.0415 236.6 36.7983 235.694 36.772 234.769V223.75L41.9391 226.742V237.761C41.9074 239.365 42.9281 240.095 44.2659 239.556Z" fill="black"/>
<path d="M41.9074 226.743V237.762C41.9074 239.518 43.1754 240.228 44.6653 239.353L194.289 152.971C195.088 152.45 195.754 151.749 196.233 150.924C196.712 150.1 196.991 149.174 197.047 148.222V137.152L41.9074 226.743Z" fill="#002F52"/>
<path opacity="0.3" d="M41.9138 226.718V237.762C41.9138 239.518 43.1818 240.228 44.6717 239.353L194.296 152.971C195.093 152.449 195.758 151.748 196.236 150.923C196.714 150.099 196.992 149.173 197.047 148.222V137.152L41.9138 226.718Z" fill="black"/>
<path d="M47.0808 212.89V115.501C47.1104 114.927 47.2751 114.369 47.5615 113.871C47.848 113.373 48.2481 112.949 48.7292 112.635L190.2 30.9318C191.113 30.4056 191.855 30.8304 191.855 31.8828V129.322C191.824 129.896 191.658 130.455 191.371 130.953C191.083 131.451 190.682 131.874 190.2 132.188L48.7356 213.872C47.8226 214.399 47.0808 213.968 47.0808 212.89Z" fill="#002F52"/>
<path d="M47.0808 212.89V115.501C47.1104 114.927 47.2751 114.369 47.5615 113.871C47.848 113.373 48.2481 112.949 48.7292 112.635L190.2 30.9318C191.113 30.4056 191.855 30.8304 191.855 31.8828V129.322C191.824 129.896 191.658 130.455 191.371 130.953C191.083 131.451 190.682 131.874 190.2 132.188L48.7356 213.872C47.8226 214.399 47.0808 213.968 47.0808 212.89Z" fill="#263238"/>
<path d="M119.477 185.457C118.724 185.947 118.097 186.608 117.648 187.385C117.198 188.163 116.939 189.036 116.891 189.933C116.891 191.581 118.051 192.254 119.477 191.429C120.231 190.939 120.859 190.277 121.308 189.498C121.758 188.719 122.017 187.845 122.064 186.947C122.064 185.299 120.904 184.633 119.477 185.457Z" fill="#002F52"/>
<path opacity="0.7" d="M42.7253 111.057C42.2339 111.883 41.9531 112.817 41.9074 113.777V226.743L36.772 223.75V110.816C36.8053 109.853 37.0847 108.914 37.5835 108.09L42.7253 111.057Z" fill="black"/>
<path opacity="0.3" d="M197.022 23.7614C196.825 22.3413 195.678 21.8594 194.289 22.6266L44.6653 109.009C43.854 109.516 43.1844 110.221 42.7189 111.057L37.5455 108.071C38.0141 107.235 38.6857 106.531 39.4982 106.023L189.122 19.6468C189.942 19.211 190.854 18.9747 191.782 18.9571C192.711 18.9395 193.631 19.141 194.467 19.5453C195.17 20.0242 195.762 20.6485 196.202 21.3758C196.643 22.1032 196.923 22.9167 197.022 23.7614Z" fill="black"/>
<path d="M205.093 38.6611C204.87 38.5495 204.622 38.5006 204.374 38.5196C204.126 38.5386 203.888 38.6248 203.685 38.7688L62.5061 120.327C61.949 120.695 61.4865 121.19 61.1561 121.77C60.8257 122.351 60.6365 123.001 60.6041 123.668V220.461C60.5843 220.787 60.6492 221.114 60.7924 221.408C60.9357 221.702 61.1525 221.955 61.4219 222.141C61.7326 222.312 63.3937 223.276 63.8882 223.542C64.0631 223.631 64.2586 223.672 64.4547 223.661C64.6507 223.65 64.8403 223.587 65.004 223.478L206.151 141.921C206.708 141.552 207.171 141.058 207.501 140.477C207.832 139.897 208.021 139.247 208.053 138.579V41.2858C208.082 41.04 208.041 40.7911 207.936 40.5671C207.83 40.3431 207.665 40.1529 207.457 40.0178C207.14 39.8086 205.448 38.8703 205.093 38.6611Z" fill="#002F52"/>
<path d="M64.9723 121.696L206.158 40.1697C207.223 39.5357 208.06 40.0556 208.06 41.2856V138.579C208.027 139.246 207.838 139.896 207.508 140.477C207.177 141.057 206.715 141.552 206.158 141.92L64.9723 223.478C63.9072 224.112 63.0703 223.091 63.0703 221.861V125.037C63.1038 124.37 63.2933 123.72 63.6237 123.14C63.954 122.56 64.4159 122.065 64.9723 121.696Z" fill="#FAFAFA"/>
<path d="M207.02 40.5373C207.394 40.5373 207.451 41.0065 207.451 41.2854V138.579C207.417 139.138 207.253 139.681 206.972 140.165C206.692 140.649 206.302 141.061 205.834 141.369L64.668 222.926C64.5732 222.988 64.4638 223.023 64.351 223.028C63.996 223.028 63.717 222.483 63.717 221.861V125.037C63.7476 124.478 63.9065 123.934 64.1814 123.447C64.4563 122.96 64.8397 122.543 65.302 122.228L206.475 40.7148C206.638 40.6094 206.826 40.5483 207.02 40.5373ZM207.02 39.9033C206.714 39.9163 206.417 40.008 206.158 40.1696L64.9723 121.696C64.4159 122.065 63.954 122.56 63.6237 123.14C63.2933 123.72 63.1038 124.37 63.0703 125.037V221.861C63.0703 222.838 63.6156 223.662 64.3383 223.662C64.5622 223.658 64.7809 223.594 64.9723 223.478L206.151 141.92C206.709 141.552 207.171 141.057 207.501 140.477C207.832 139.896 208.021 139.246 208.053 138.579V41.2854C208.053 40.4105 207.622 39.9033 206.988 39.9033H207.02Z" fill="#E0E0E0"/>
<path d="M61.3839 222.14C61.5931 222.248 63.0957 223.104 63.755 223.484C63.5183 223.288 63.3308 223.039 63.2075 222.757C63.0842 222.475 63.0285 222.168 63.045 221.861V131.358L60.5724 129.912V220.46C60.5519 220.786 60.6158 221.112 60.758 221.406C60.9001 221.701 61.1157 221.953 61.3839 222.14Z" fill="#F0F0F0"/>
<path d="M208.085 41.2666C208.085 40.0494 207.217 39.5548 206.183 40.1698L64.9723 121.696C64.4159 122.065 63.954 122.56 63.6237 123.14C63.2933 123.72 63.1038 124.37 63.0703 125.037V131.377L208.085 47.6066V41.2666Z" fill="#002F52"/>
<g opacity="0.4">
<path opacity="0.4" d="M206.158 40.1698L64.9723 121.69C64.4057 122.047 63.9389 122.542 63.6156 123.129L61.162 121.702C61.4848 121.136 61.9476 120.662 62.5061 120.326L203.685 38.7687C203.887 38.6236 204.125 38.5363 204.373 38.5162C204.621 38.4961 204.87 38.5439 205.093 38.6545C205.435 38.8701 207.039 39.7767 207.451 39.9986C207.238 39.9196 207.009 39.8938 206.783 39.9237C206.558 39.9535 206.343 40.038 206.158 40.1698Z" fill="white"/>
</g>
<path opacity="0.15" d="M60.5724 129.919V123.636C60.5984 122.951 60.8016 122.285 61.162 121.702L63.6219 123.122C63.2666 123.695 63.0677 124.351 63.045 125.024V131.364L60.5724 129.919Z" fill="black"/>
<path d="M178.312 114.252L93.7559 163.07C93.3447 163.337 93.0024 163.697 92.7567 164.121C92.511 164.546 92.3689 165.022 92.3421 165.511V189.755C92.3689 190.245 92.511 190.721 92.7567 191.145C93.0024 191.569 93.3447 191.929 93.7559 192.196L96.2222 193.616C96.6605 193.838 97.1448 193.954 97.636 193.954C98.1272 193.954 98.6115 193.838 99.0498 193.616L183.594 144.798C184.005 144.53 184.347 144.169 184.593 143.744C184.839 143.319 184.981 142.841 185.008 142.351V118.101C184.981 117.611 184.839 117.135 184.593 116.711C184.347 116.287 184.005 115.927 183.594 115.66L181.121 114.24C180.685 114.021 180.203 113.909 179.715 113.911C179.227 113.913 178.747 114.03 178.312 114.252Z" fill="#002F52"/>
<path opacity="0.5" d="M185.008 117.885C184.906 117.156 184.316 116.89 183.606 117.302L99.0498 166.12C98.6328 166.379 98.29 166.742 98.0545 167.173L92.7606 164.117C92.9978 163.693 93.3379 163.335 93.7496 163.077L178.313 114.259C178.75 114.037 179.233 113.921 179.723 113.921C180.213 113.921 180.697 114.037 181.134 114.259L183.606 115.679C183.983 115.926 184.303 116.251 184.545 116.631C184.787 117.012 184.944 117.439 185.008 117.885Z" fill="white"/>
<path d="M98.8089 193.738C98.3949 193.901 97.9511 193.975 97.5066 193.955C97.062 193.936 96.6265 193.823 96.2285 193.624L93.7559 192.203C93.3454 191.936 93.0036 191.575 92.758 191.151C92.5124 190.727 92.3699 190.252 92.3421 189.762V165.518C92.3612 165.023 92.5051 164.541 92.7605 164.117L98.0544 167.173C97.7972 167.592 97.653 168.07 97.636 168.562V192.812C97.636 193.617 98.1432 193.991 98.8089 193.738Z" fill="#263238"/>
<path d="M99.0498 166.12L183.606 117.302C184.386 116.852 185.02 117.213 185.02 118.113V142.364C184.993 142.854 184.851 143.331 184.606 143.756C184.36 144.182 184.018 144.543 183.606 144.811L99.0625 193.629C98.2827 194.079 97.6487 193.712 97.6487 192.811V168.567C97.6741 168.078 97.8142 167.602 98.0576 167.177C98.301 166.751 98.6408 166.39 99.0498 166.12Z" fill="#EB9B00"/>
<path d="M155.894 127.199L93.7623 163.077C93.3506 163.335 93.0105 163.693 92.7732 164.117L98.0671 167.173C98.3026 166.742 98.6455 166.38 99.0625 166.12L161.195 130.249L155.894 127.199Z" fill="#455A64"/>
<path d="M161.182 130.248L99.0498 166.12C98.6385 166.388 98.2962 166.749 98.0505 167.174C97.8049 167.6 97.6629 168.077 97.636 168.567V192.805C97.636 193.705 98.27 194.073 99.0498 193.623L161.182 157.751V130.248Z" fill="#37474F"/>
<path d="M113.378 163.166L145.44 144.659C146.765 143.892 147.842 144.437 147.842 145.876C147.783 146.685 147.534 147.468 147.116 148.162C146.697 148.856 146.121 149.441 145.433 149.871L113.378 168.383C112.053 169.15 110.969 168.605 110.969 167.166C111.029 166.357 111.278 165.573 111.697 164.879C112.115 164.184 112.691 163.597 113.378 163.166Z" fill="#EB9B00"/>
<path d="M119.946 169.297C119.952 169.29 119.96 169.285 119.968 169.281C119.976 169.277 119.985 169.275 119.994 169.275C120.003 169.275 120.012 169.277 120.02 169.281C120.028 169.285 120.036 169.29 120.042 169.297C120.07 169.34 120.083 169.391 120.08 169.443V173.05C120.08 173.399 120.05 173.747 119.991 174.09C119.938 174.404 119.849 174.71 119.725 175.003C119.611 175.271 119.462 175.523 119.281 175.751C119.102 175.963 118.888 176.141 118.647 176.277C118.458 176.4 118.238 176.466 118.013 176.467C117.927 176.461 117.843 176.436 117.767 176.396C117.69 176.356 117.623 176.3 117.569 176.233C117.43 176.046 117.338 175.829 117.303 175.599C117.242 175.292 117.214 174.98 117.22 174.667V171.053C117.22 170.99 117.233 170.927 117.258 170.869C117.274 170.817 117.308 170.772 117.353 170.742L117.753 170.508C117.766 170.496 117.783 170.489 117.8 170.489C117.818 170.489 117.835 170.496 117.848 170.508C117.877 170.55 117.891 170.602 117.886 170.654V174.217C117.881 174.413 117.9 174.609 117.943 174.8C117.961 174.922 118.013 175.037 118.095 175.13C118.124 175.164 118.16 175.191 118.2 175.208C118.241 175.226 118.285 175.234 118.33 175.231C118.438 175.224 118.543 175.189 118.634 175.13C118.747 175.062 118.849 174.979 118.938 174.882C119.037 174.768 119.119 174.64 119.179 174.502C119.251 174.339 119.304 174.169 119.338 173.995C119.375 173.786 119.392 173.573 119.389 173.361V169.791C119.391 169.728 119.406 169.665 119.433 169.608C119.448 169.555 119.482 169.51 119.528 169.481L119.946 169.297Z" fill="#FAFAFA"/>
<path d="M122.432 172.707C122.435 172.661 122.424 172.614 122.4 172.574C122.385 172.558 122.366 172.545 122.345 172.537C122.324 172.53 122.302 172.527 122.28 172.53C122.202 172.519 122.123 172.519 122.045 172.53L121.677 172.6C121.559 172.629 121.435 172.629 121.316 172.6C121.223 172.57 121.142 172.509 121.088 172.428C121.026 172.326 120.985 172.211 120.967 172.092C120.905 171.753 120.905 171.405 120.967 171.065C121.015 170.871 121.083 170.682 121.17 170.501C121.257 170.321 121.363 170.151 121.487 169.994C121.607 169.844 121.753 169.718 121.918 169.62C122.052 169.539 122.201 169.487 122.356 169.468C122.468 169.456 122.581 169.48 122.679 169.537C122.772 169.594 122.845 169.678 122.888 169.778C122.939 169.897 122.967 170.024 122.971 170.152C122.977 170.216 122.964 170.28 122.933 170.336C122.917 170.389 122.883 170.434 122.837 170.463L122.457 170.685C122.44 170.695 122.42 170.7 122.4 170.7C122.38 170.7 122.36 170.695 122.343 170.685L122.261 170.622C122.228 170.596 122.188 170.58 122.146 170.577C122.065 170.586 121.987 170.615 121.918 170.66C121.819 170.72 121.731 170.797 121.658 170.888C121.582 170.988 121.541 171.111 121.544 171.237C121.535 171.285 121.535 171.334 121.544 171.382C121.556 171.4 121.572 171.415 121.591 171.426C121.61 171.437 121.63 171.444 121.652 171.446C121.721 171.457 121.792 171.457 121.861 171.446L122.216 171.382C122.514 171.325 122.717 171.382 122.85 171.547C122.99 171.782 123.054 172.054 123.034 172.327C123.032 172.515 123.007 172.703 122.958 172.885C122.908 173.083 122.836 173.274 122.742 173.456C122.649 173.643 122.532 173.818 122.394 173.975C122.262 174.13 122.106 174.26 121.931 174.362C121.792 174.451 121.633 174.506 121.468 174.521C121.349 174.525 121.231 174.492 121.132 174.426C121.034 174.359 120.959 174.264 120.916 174.153C120.865 174.033 120.839 173.903 120.84 173.773C120.834 173.707 120.848 173.641 120.878 173.582C120.894 173.53 120.928 173.485 120.974 173.456L121.354 173.234C121.405 173.234 121.443 173.202 121.468 173.234L121.55 173.322C121.567 173.341 121.588 173.357 121.611 173.368C121.634 173.378 121.658 173.385 121.684 173.386C121.773 173.386 121.86 173.357 121.931 173.303C122.045 173.238 122.148 173.155 122.235 173.056C122.278 173.004 122.315 172.946 122.343 172.885C122.388 172.835 122.418 172.773 122.432 172.707Z" fill="#FAFAFA"/>
<path d="M123.725 170.99C123.724 170.66 123.752 170.332 123.808 170.007C123.86 169.702 123.943 169.402 124.055 169.113C124.148 168.854 124.276 168.609 124.435 168.384C124.568 168.191 124.741 168.029 124.942 167.908C125.089 167.81 125.269 167.771 125.443 167.801C125.598 167.837 125.734 167.929 125.824 168.061C125.943 168.233 126.027 168.427 126.071 168.631C126.132 168.897 126.162 169.17 126.16 169.443V169.836C126.162 169.902 126.146 169.968 126.115 170.026C126.1 170.078 126.066 170.123 126.02 170.153L124.372 171.11C124.368 171.222 124.383 171.333 124.416 171.44C124.441 171.512 124.485 171.575 124.543 171.624C124.595 171.665 124.661 171.685 124.727 171.681C124.803 171.672 124.877 171.646 124.942 171.605C125.038 171.553 125.124 171.484 125.196 171.402C125.261 171.329 125.316 171.248 125.361 171.161C125.388 171.111 125.418 171.062 125.45 171.015C125.477 170.983 125.509 170.955 125.545 170.933L125.938 170.704C125.951 170.694 125.968 170.688 125.985 170.688C126.003 170.688 126.019 170.694 126.033 170.704C126.05 170.724 126.062 170.748 126.068 170.773C126.075 170.798 126.076 170.825 126.071 170.85C126.064 170.974 126.038 171.096 125.995 171.212C125.94 171.387 125.868 171.557 125.779 171.719C125.68 171.904 125.561 172.079 125.424 172.239C125.288 172.402 125.125 172.541 124.942 172.651C124.793 172.749 124.613 172.792 124.435 172.771C124.279 172.734 124.143 172.639 124.055 172.505C123.93 172.313 123.846 172.097 123.808 171.871C123.75 171.581 123.722 171.286 123.725 170.99ZM124.942 168.967C124.845 169.02 124.76 169.093 124.695 169.183C124.625 169.272 124.567 169.37 124.524 169.474C124.48 169.579 124.443 169.687 124.416 169.798C124.394 169.898 124.379 170 124.372 170.102L125.488 169.468C125.481 169.381 125.468 169.294 125.45 169.208C125.44 169.132 125.409 169.059 125.361 168.999C125.342 168.972 125.317 168.948 125.289 168.931C125.261 168.914 125.229 168.902 125.196 168.898C125.106 168.89 125.016 168.915 124.942 168.967Z" fill="#FAFAFA"/>
<path d="M128.15 167.198C127.958 167.307 127.807 167.477 127.719 167.68C127.621 167.947 127.575 168.232 127.586 168.516V170.805C127.587 170.871 127.574 170.935 127.548 170.995C127.533 171.048 127.499 171.093 127.453 171.122L127.079 171.338C127.073 171.345 127.066 171.35 127.058 171.354C127.049 171.357 127.04 171.359 127.031 171.359C127.022 171.359 127.014 171.357 127.005 171.354C126.997 171.35 126.99 171.345 126.984 171.338C126.955 171.295 126.942 171.243 126.946 171.192V167.09C126.946 167.025 126.959 166.96 126.984 166.9C127.002 166.849 127.035 166.804 127.079 166.773L127.453 166.557C127.466 166.545 127.483 166.539 127.501 166.539C127.518 166.539 127.535 166.545 127.548 166.557C127.578 166.598 127.591 166.647 127.586 166.697V166.9C127.662 166.73 127.755 166.568 127.865 166.418C127.965 166.279 128.095 166.164 128.246 166.082L128.474 165.949C128.486 165.937 128.502 165.931 128.518 165.931C128.535 165.931 128.551 165.937 128.563 165.949C128.593 165.991 128.609 166.042 128.607 166.095V166.672C128.606 166.737 128.591 166.802 128.563 166.862C128.547 166.912 128.516 166.956 128.474 166.989L128.15 167.198Z" fill="#FAFAFA"/>
<path d="M132.88 166.894C132.886 166.887 132.893 166.882 132.902 166.878C132.91 166.874 132.919 166.872 132.928 166.872C132.937 166.872 132.945 166.874 132.954 166.878C132.962 166.882 132.969 166.887 132.975 166.894C133.004 166.937 133.017 166.988 133.013 167.04V167.674C133.013 167.739 133 167.803 132.975 167.864C132.953 167.911 132.921 167.952 132.88 167.984L130.712 169.252C130.699 169.264 130.682 169.271 130.664 169.271C130.647 169.271 130.63 169.264 130.617 169.252C130.588 169.212 130.575 169.162 130.579 169.113V163.407C130.579 163.341 130.592 163.277 130.617 163.217C130.634 163.167 130.668 163.125 130.712 163.096L131.111 162.862C131.124 162.849 131.141 162.843 131.159 162.843C131.176 162.843 131.193 162.849 131.206 162.862C131.235 162.902 131.248 162.951 131.244 163.001V167.826L132.88 166.894Z" fill="#FAFAFA"/>
<path d="M134.826 162.203C134.969 162.104 135.141 162.057 135.315 162.069C135.463 162.081 135.601 162.149 135.701 162.26C135.82 162.395 135.906 162.556 135.955 162.729C136.023 162.953 136.061 163.186 136.069 163.42C136.069 163.471 136.069 163.54 136.069 163.623V164.111C136.069 164.187 136.069 164.257 136.069 164.314C136.057 164.589 136.018 164.863 135.955 165.132C135.896 165.393 135.811 165.648 135.701 165.892C135.601 166.12 135.471 166.333 135.315 166.526C135.181 166.702 135.015 166.85 134.826 166.964C134.68 167.059 134.507 167.106 134.332 167.097C134.186 167.084 134.049 167.016 133.952 166.907C133.83 166.776 133.743 166.617 133.698 166.444C133.63 166.22 133.592 165.987 133.584 165.753C133.584 165.702 133.584 165.639 133.584 165.556V165.068C133.584 164.986 133.584 164.916 133.584 164.865C133.591 164.588 133.627 164.311 133.692 164.041C133.753 163.778 133.84 163.521 133.952 163.274C134.052 163.048 134.18 162.835 134.332 162.64C134.466 162.463 134.634 162.314 134.826 162.203ZM135.422 163.838C135.422 163.698 135.399 163.559 135.353 163.426C135.329 163.345 135.28 163.274 135.213 163.223C135.159 163.187 135.094 163.171 135.029 163.179C134.957 163.193 134.888 163.221 134.826 163.261C134.752 163.302 134.684 163.353 134.624 163.413C134.551 163.489 134.489 163.574 134.44 163.667C134.376 163.782 134.329 163.906 134.3 164.035C134.259 164.197 134.233 164.362 134.224 164.529C134.224 164.58 134.224 164.637 134.224 164.707V165.157C134.224 165.227 134.224 165.284 134.224 165.322C134.23 165.462 134.256 165.601 134.3 165.734C134.323 165.815 134.372 165.886 134.44 165.937C134.466 165.955 134.496 165.968 134.528 165.975C134.559 165.982 134.592 165.982 134.624 165.975C134.695 165.963 134.764 165.937 134.826 165.899C134.9 165.856 134.968 165.805 135.029 165.747C135.1 165.669 135.162 165.584 135.213 165.493C135.274 165.376 135.321 165.253 135.353 165.125C135.394 164.964 135.417 164.798 135.422 164.631C135.426 164.572 135.426 164.512 135.422 164.453V164.009C135.426 163.952 135.426 163.895 135.422 163.838Z" fill="#FAFAFA"/>
<path d="M138.009 165.911C138.09 165.862 138.163 165.8 138.225 165.727C138.301 165.638 138.367 165.54 138.421 165.436C138.484 165.308 138.533 165.174 138.567 165.036C138.606 164.881 138.625 164.721 138.624 164.561V164.237C138.624 164.301 138.561 164.377 138.516 164.466C138.473 164.558 138.422 164.647 138.364 164.732C138.298 164.821 138.226 164.906 138.149 164.986C138.069 165.069 137.977 165.14 137.876 165.195C137.811 165.239 137.737 165.27 137.66 165.285C137.583 165.301 137.503 165.3 137.426 165.284C137.285 165.239 137.164 165.148 137.083 165.024C136.98 164.86 136.905 164.68 136.862 164.491C136.808 164.252 136.778 164.007 136.773 163.762C136.773 163.68 136.773 163.578 136.773 163.458C136.773 163.337 136.773 163.236 136.773 163.147C136.781 162.868 136.81 162.591 136.862 162.316C136.914 162.047 136.988 161.782 137.083 161.524C137.173 161.3 137.288 161.088 137.426 160.89C137.543 160.715 137.696 160.568 137.876 160.459C137.96 160.408 138.052 160.372 138.149 160.351C138.22 160.338 138.293 160.338 138.364 160.351C138.42 160.367 138.472 160.395 138.516 160.433C138.557 160.464 138.593 160.501 138.624 160.541V160.338C138.624 160.273 138.637 160.209 138.662 160.148C138.68 160.099 138.713 160.056 138.757 160.028L139.131 159.806C139.144 159.794 139.161 159.787 139.179 159.787C139.197 159.787 139.214 159.794 139.226 159.806C139.257 159.848 139.273 159.899 139.271 159.952V164.073C139.288 164.69 139.173 165.304 138.935 165.873C138.748 166.321 138.424 166.698 138.009 166.951C137.868 167.039 137.706 167.089 137.54 167.097C137.408 167.105 137.278 167.072 137.166 167.002C137.059 166.922 136.972 166.817 136.912 166.697C136.85 166.553 136.816 166.398 136.811 166.241C136.805 166.175 136.818 166.109 136.849 166.051C136.864 165.998 136.898 165.953 136.944 165.924L137.28 165.734C137.288 165.725 137.297 165.719 137.307 165.714C137.318 165.71 137.329 165.708 137.34 165.708C137.352 165.708 137.363 165.71 137.373 165.714C137.383 165.719 137.393 165.725 137.4 165.734C137.432 165.767 137.459 165.803 137.483 165.842C137.522 165.909 137.585 165.96 137.66 165.981C137.737 166.038 137.851 165.975 138.009 165.911ZM137.413 162.836C137.413 163.005 137.413 163.17 137.413 163.331C137.395 163.584 137.467 163.836 137.616 164.041C137.672 164.09 137.744 164.116 137.819 164.116C137.893 164.116 137.965 164.09 138.022 164.041C138.206 163.921 138.349 163.749 138.434 163.546C138.549 163.282 138.614 162.998 138.624 162.71C138.624 162.614 138.624 162.5 138.624 162.367C138.624 162.234 138.624 162.12 138.624 162.038C138.637 161.81 138.57 161.586 138.434 161.404C138.378 161.352 138.304 161.323 138.228 161.323C138.152 161.323 138.078 161.352 138.022 161.404C137.841 161.523 137.7 161.693 137.616 161.892C137.486 162.19 137.417 162.511 137.413 162.836Z" fill="#FAFAFA"/>
<path d="M140.748 157.206C140.76 157.196 140.776 157.19 140.792 157.19C140.809 157.19 140.824 157.196 140.837 157.206C140.87 157.247 140.886 157.3 140.881 157.352V158.043C140.882 158.109 140.866 158.174 140.837 158.233C140.819 158.281 140.788 158.323 140.748 158.354L140.323 158.601C140.317 158.608 140.31 158.613 140.302 158.617C140.294 158.621 140.285 158.623 140.276 158.623C140.267 158.623 140.258 158.621 140.25 158.617C140.241 158.613 140.234 158.608 140.228 158.601C140.212 158.582 140.199 158.56 140.191 158.536C140.184 158.512 140.181 158.487 140.184 158.462V157.771C140.183 157.705 140.199 157.639 140.228 157.58C140.246 157.531 140.279 157.489 140.323 157.46L140.748 157.206ZM140.856 163.16C140.856 163.223 140.843 163.286 140.818 163.343C140.798 163.393 140.765 163.437 140.723 163.47L140.342 163.686C140.337 163.692 140.33 163.698 140.322 163.701C140.315 163.705 140.306 163.707 140.298 163.707C140.289 163.707 140.281 163.705 140.273 163.701C140.266 163.698 140.259 163.692 140.253 163.686C140.22 163.645 140.204 163.593 140.209 163.54V159.438C140.209 159.372 140.224 159.307 140.253 159.248C140.271 159.199 140.302 159.155 140.342 159.121L140.723 158.905C140.736 158.893 140.753 158.887 140.77 158.887C140.788 158.887 140.805 158.893 140.818 158.905C140.846 158.946 140.86 158.995 140.856 159.045V163.16Z" fill="#FAFAFA"/>
<path d="M144.191 161.226C144.19 161.291 144.177 161.356 144.153 161.416C144.135 161.465 144.101 161.508 144.057 161.536L143.677 161.758C143.665 161.77 143.649 161.776 143.633 161.776C143.616 161.776 143.6 161.77 143.588 161.758C143.555 161.717 143.539 161.665 143.544 161.612V159.381C143.563 159.117 143.515 158.853 143.404 158.614C143.316 158.455 143.176 158.43 142.98 158.544C142.784 158.676 142.638 158.87 142.568 159.095C142.462 159.395 142.41 159.71 142.415 160.027V162.265C142.415 162.331 142.402 162.395 142.377 162.456C142.362 162.508 142.328 162.553 142.282 162.582L141.908 162.798C141.902 162.805 141.895 162.81 141.887 162.814C141.879 162.818 141.87 162.819 141.861 162.819C141.852 162.819 141.843 162.818 141.835 162.814C141.826 162.81 141.819 162.805 141.813 162.798C141.784 162.758 141.77 162.708 141.775 162.659V158.557C141.774 158.491 141.787 158.426 141.813 158.366C141.829 158.314 141.862 158.269 141.908 158.24L142.282 158.024C142.288 158.017 142.296 158.012 142.304 158.008C142.312 158.004 142.321 158.003 142.33 158.003C142.339 158.003 142.348 158.004 142.356 158.008C142.364 158.012 142.371 158.017 142.377 158.024C142.406 158.067 142.419 158.118 142.415 158.17V158.366C142.499 158.173 142.601 157.988 142.72 157.815C142.824 157.655 142.965 157.522 143.132 157.428C143.276 157.323 143.456 157.277 143.633 157.301C143.703 157.319 143.768 157.351 143.825 157.396C143.882 157.441 143.929 157.497 143.962 157.561C144.054 157.733 144.115 157.92 144.14 158.113C144.174 158.365 144.191 158.619 144.191 158.874V161.226Z" fill="#FAFAFA"/>
<path d="M176.17 142.77L170.013 146.32L170.971 137.685C170.229 137.292 169.76 136.335 169.76 134.959C169.76 132.505 171.256 129.658 173.095 128.619C174.933 127.579 176.423 128.682 176.423 131.155C176.385 132.61 175.97 134.029 175.219 135.276L176.17 142.77Z" fill="#455A64"/>
<path d="M176.176 142.77L170.755 139.645L170.013 146.327L176.176 142.77Z" fill="#37474F"/>
<path d="M173.082 128.6C171.741 129.506 170.742 130.833 170.242 132.372L175.206 135.238C175.957 133.992 176.372 132.572 176.411 131.117C176.423 128.663 174.933 127.541 173.082 128.6Z" fill="#37474F"/>
<path d="M143.157 99.8482C141.046 98.6309 138.136 98.8021 134.915 100.66C128.486 104.375 123.275 113.397 123.275 120.821C123.275 124.549 124.594 127.161 126.711 128.366L130.813 130.749C132.918 131.967 135.828 131.789 139.055 129.932C145.484 126.223 150.695 117.194 150.695 109.77C150.695 106.061 149.389 103.43 147.285 102.245" fill="#002F52"/>
<path d="M139.049 103.05C132.62 106.765 127.409 115.793 127.409 123.211C127.409 130.629 132.62 133.647 139.049 129.931C145.478 126.216 150.695 117.194 150.689 109.77C150.683 102.346 145.471 99.3408 139.049 103.05Z" fill="#002F52"/>
<path d="M145.471 119.521V120.371C143.931 123.12 141.722 125.436 139.049 127.104C136.545 128.543 134.281 128.702 132.62 127.782V126.032C132.705 124.212 133.225 122.438 134.136 120.86C135.047 119.281 136.323 117.944 137.857 116.96L139.55 115.984C141.046 115.121 142.504 115.007 143.645 115.673C144.787 116.339 145.471 117.74 145.471 119.521Z" fill="#002F52"/>
<path opacity="0.4" d="M143.157 99.8482L147.278 102.245C145.173 101.021 142.263 101.192 139.036 103.05C134.826 105.484 131.137 110.195 129.095 115.242L124.968 112.852C127.016 107.78 130.674 103.094 134.909 100.66C138.142 98.8085 141.052 98.6309 143.157 99.8482Z" fill="white"/>
<path opacity="0.2" d="M130.667 130.655L126.718 128.366C124.6 127.161 123.281 124.562 123.281 120.821L127.409 123.218C127.434 126.832 128.651 129.406 130.667 130.655Z" fill="black"/>
<path opacity="0.1" d="M124.98 112.852L129.108 115.242C128.05 117.768 127.482 120.473 127.434 123.211L123.307 120.815C123.358 118.078 123.925 115.377 124.98 112.852Z" fill="black"/>
<path d="M137.578 115.584C137.185 115.589 136.797 115.488 136.456 115.293C136.044 115.018 135.714 114.638 135.501 114.191C135.288 113.745 135.2 113.249 135.245 112.757C135.299 111.602 135.628 110.476 136.206 109.475C136.784 108.473 137.594 107.625 138.567 107C138.958 106.688 139.434 106.501 139.933 106.464C140.432 106.427 140.93 106.541 141.363 106.792C141.796 107.042 142.143 107.418 142.359 107.869C142.575 108.32 142.65 108.826 142.574 109.32C142.519 110.475 142.189 111.6 141.611 112.602C141.033 113.603 140.224 114.452 139.252 115.077C138.749 115.391 138.171 115.566 137.578 115.584Z" fill="white"/>
<path d="M143.645 115.667C142.504 115.001 141.046 115.115 139.55 115.978L137.857 116.954C136.322 117.939 135.046 119.277 134.135 120.857C133.223 122.436 132.704 124.211 132.62 126.033V127.789C134.281 128.708 136.545 128.55 139.049 127.111C141.722 125.443 143.931 123.127 145.471 120.378V119.528C145.471 117.74 144.812 116.339 143.645 115.667Z" fill="white"/>
<path d="M239.094 51.2201L241.11 51.9935V47.5555C241.11 44.0305 243.919 43.1873 246.968 44.9498C250.024 46.7123 252.497 50.9918 252.497 54.5169V55.1509C252.922 55.021 253.371 54.9889 253.81 55.057C254.249 55.125 254.667 55.2915 255.033 55.5439C256.191 56.299 257.154 57.3166 257.845 58.5141C258.536 59.7115 258.934 61.0551 259.008 62.4355V62.7272L261.823 64.3502C262.585 64.8473 263.218 65.5167 263.673 66.3042C264.128 67.0917 264.391 67.9752 264.441 68.8833C264.441 70.5571 263.269 71.2354 261.823 70.3986L239.094 57.2684C238.332 56.7725 237.698 56.1032 237.244 55.3154C236.79 54.5275 236.529 53.6434 236.482 52.7353C236.482 51.0679 237.642 50.3895 239.094 51.2201Z" fill="#E6E6E6"/>
<path d="M266.096 47.7073L269.754 49.8185C269.734 49.6587 269.724 49.4978 269.723 49.3367V48.2779C269.723 46.3759 271.041 45.6278 272.677 46.5725C273.38 47.0028 273.981 47.5803 274.44 48.2652C274.706 45.8941 276.57 45.0128 278.827 46.3125C280.117 47.1518 281.191 48.2831 281.962 49.6148C282.733 50.9465 283.179 52.4411 283.265 53.9776V55.5626C283.281 56.1959 283.153 56.8246 282.891 57.4012L285.934 59.151C286.408 59.4656 286.802 59.887 287.084 60.3813C287.366 60.8757 287.528 61.4293 287.557 61.9977C287.557 63.0438 286.822 63.4686 285.915 62.9487L266.096 51.5367C265.617 51.2244 265.218 50.8031 264.933 50.3072C264.647 49.8114 264.483 49.255 264.454 48.6837C264.454 47.6122 265.19 47.1874 266.096 47.7073Z" fill="#E6E6E6"/>
<path d="M251.933 143.929C249.27 148.431 246.708 152.343 244.908 154.219C241.491 155.804 233.464 158.252 230.326 158.657C229.775 158.727 229.216 158.597 228.754 158.29C227.517 157.478 226.56 157.345 225.26 156.895C224.239 156.546 223.808 156.058 223.618 156.261C223.422 156.491 223.323 156.789 223.343 157.091C223.363 157.393 223.501 157.675 223.726 157.877C224.214 158.341 224.754 158.745 225.336 159.082C223.944 159.427 222.492 159.453 221.088 159.158C218.369 158.442 217.088 159.748 218.927 162.702C219.561 163.755 222.173 165.447 227.422 164.991C229.295 164.89 231.16 164.678 233.008 164.357C238.042 163.279 243.64 162.239 247.082 161.187C248.363 160.683 249.509 159.889 250.43 158.866C256.218 152.267 258.139 147.562 260.675 143.289L260.46 136.315C256.352 136.176 254.158 140.163 251.933 143.929Z" fill="#FFA8A7"/>
<path d="M261.164 136.176C259.972 136.008 258.758 136.169 257.652 136.642C256.545 137.115 255.589 137.881 254.887 138.857C252.072 142.465 247.089 151.125 247.089 151.125C247.089 151.125 248.718 155.468 253.118 156.197L260.187 146.649C260.187 146.649 263.535 140.018 261.164 136.176Z" fill="#455A64"/>
<path d="M276.449 233.52H271.84V241.736H276.449V233.52Z" fill="#FFA8A7"/>
<path d="M260.473 233.082L255.87 233.247L255.635 224.549L260.473 224.384V233.082Z" fill="#FFA8A7"/>
<path d="M277.096 162.392C277.096 166.969 276.424 203.849 276.424 203.849C276.525 205.168 277.692 207.602 277.457 212.668C277.109 219.547 276.646 237.628 276.646 237.628C275.855 238.033 274.982 238.253 274.093 238.27C273.204 238.288 272.323 238.103 271.517 237.73C271.517 237.73 267.776 212.37 266.952 205.58C266.229 199.626 264.378 179.922 264.378 179.922L261.886 203.215C262.415 205.714 262.606 208.273 262.457 210.823C262.241 213.993 260.758 230.401 260.758 230.401C259.962 230.87 259.069 231.153 258.147 231.226C257.226 231.3 256.299 231.163 255.439 230.826C255.439 230.826 252.814 206.1 252.763 203.196C252.7 199.899 254.297 162.354 254.297 162.354L277.096 162.392Z" fill="#37474F"/>
<path d="M271.84 239.365V238.68C271.396 238.877 270.376 242.947 268.543 244.684C267.092 246.066 265.113 247.658 264.606 249.198C264.099 250.739 267.364 251.684 268.727 251.436C270.3 251.145 273.038 249.985 273.723 248.9C274.408 247.816 274.731 246.244 275.289 245.458C275.847 244.672 277.134 243.797 277.432 242.884C277.525 242.03 277.436 241.165 277.172 240.348C276.957 239.498 276.728 238.566 276.449 238.649V239.169C275.799 239.702 274.982 239.989 274.142 239.98C273.47 240.037 271.834 239.898 271.84 239.365Z" fill="#263238"/>
<path d="M255.819 231.763C255.578 231.763 255.382 232.125 254.855 232.721C254.073 233.544 253.158 234.23 252.148 234.75C250.424 235.65 247.076 237.032 245.548 237.748C244.597 238.192 244.642 239.384 245.624 240.063C246.607 240.741 248.972 241.229 251.812 240.57C253.359 240.208 255.375 238.718 256.656 238.801C257.937 238.883 260.314 238.858 261.259 238.167C262.203 237.476 261.823 236.043 261.557 234.807C261.265 233.45 260.923 231.339 260.473 231.434V231.909C259.921 232.784 257.062 233.139 255.844 232.499L255.819 231.763Z" fill="#263238"/>
<path d="M264.378 179.922C261.98 179.137 259.788 177.826 257.962 176.086C257.962 176.086 259.23 178.501 262.882 180.752L262.096 201.554L264.378 179.922Z" fill="#263238"/>
<path d="M274.522 136.848C274.522 136.848 278.326 137.723 278.053 144.595L277.261 155.532V171.952C273.875 175.794 258.875 175.515 253.708 171.648C253.708 171.648 254.291 152.216 254.64 144.735C254.887 139.422 256.111 136.746 261.335 136.163L267.757 136.442L274.522 136.848Z" fill="#002F52"/>
<path d="M269.678 122.57C269.7 123.49 269.54 124.405 269.206 125.263C268.873 126.121 268.373 126.904 267.735 127.568C267.097 128.231 266.334 128.762 265.491 129.13C264.647 129.497 263.739 129.694 262.818 129.709C259.014 129.709 256.783 126.425 255.958 122.57C254.437 115.514 259.027 115.425 262.818 115.425C264.675 115.463 266.441 116.237 267.728 117.577C269.014 118.917 269.716 120.713 269.678 122.57Z" fill="#263238"/>
<path d="M273.178 125.455C273.178 125.455 272.125 130.603 271.701 131.453C271.434 131.964 270.979 132.352 270.433 132.537L270.509 128.917L273.178 125.455Z" fill="#263238"/>
<path d="M271.853 118.082C271.853 118.082 272.607 117.891 273.413 119.147C274.097 120.218 274.256 122.627 273.178 125.487L271.193 125.728L271.853 118.082Z" fill="#263238"/>
<path d="M272.582 119.127L275.017 119.171C275.033 119.014 275.017 118.855 274.969 118.704C274.922 118.553 274.843 118.414 274.739 118.295C274.635 118.176 274.507 118.079 274.364 118.012C274.221 117.945 274.065 117.908 273.907 117.903C273.574 117.908 273.255 118.036 273.01 118.261C272.766 118.487 272.613 118.796 272.582 119.127Z" fill="#263238"/>
<path d="M272.88 118.551L274.681 116.82C274.577 116.698 274.449 116.598 274.305 116.528C274.16 116.457 274.003 116.418 273.843 116.411C273.683 116.405 273.523 116.431 273.374 116.49C273.224 116.548 273.088 116.637 272.975 116.75C272.736 116.984 272.594 117.298 272.576 117.632C272.559 117.965 272.667 118.293 272.88 118.551Z" fill="#263238"/>
<path d="M270.598 125.696C270.997 125.943 271.561 125.151 272.056 124.612C272.55 124.073 274.085 123.578 274.883 125.328C275.682 127.078 274.319 128.809 273.178 129.379C271.13 130.394 270.483 128.917 270.483 128.917L270.312 137.07C267.434 141.508 260.904 141.368 263.256 136.854V134.375C262.288 134.536 261.306 134.587 260.327 134.528C258.729 134.274 257.727 132.962 257.239 131.161C256.466 128.27 256.168 125.937 256.827 120.25C257.55 114.024 264.511 113.954 268.239 116.446C271.967 118.937 270.598 125.696 270.598 125.696Z" fill="#FFA8A7"/>
<path d="M261.924 119.279C263.585 119.115 265.228 118.772 266.895 118.645C267.255 118.602 267.619 118.619 267.973 118.696C269.241 119.045 269.089 120.528 269.291 121.562C269.64 123.35 269.925 126.374 270.598 126.387C270.8 126.387 271.561 125.074 272.056 124.605C272.328 124.201 272.481 123.729 272.5 123.242C272.626 122.506 272.69 121.752 272.747 121.004C272.798 120.37 272.861 119.736 272.861 119.102C272.89 118.385 272.832 117.668 272.69 116.965C272.531 116.367 272.226 115.818 271.802 115.368L271.675 115.228C270.84 114.354 269.825 113.671 268.702 113.225C267.085 112.619 265.39 112.25 263.668 112.128C261.948 112.006 260.236 111.795 258.539 111.494C258.442 111.466 258.338 111.466 258.241 111.494C258.172 111.532 258.114 111.587 258.072 111.653C258.03 111.72 258.005 111.796 258 111.874C257.93 112.268 257.974 112.674 258.125 113.044C258.277 113.414 258.53 113.734 258.856 113.967C257.708 114.055 256.39 113.459 255.286 113.155C255.197 113.117 255.101 113.098 255.004 113.098C254.907 113.098 254.811 113.117 254.722 113.155C254.612 113.232 254.533 113.347 254.5 113.478C254.42 113.776 254.409 114.089 254.469 114.391C254.57 115.309 254.911 116.184 255.458 116.927C256.312 118.04 257.519 118.829 258.881 119.165C259.884 119.359 260.91 119.397 261.924 119.279Z" fill="#263238"/>
<path d="M263.262 134.375C263.262 134.375 266.825 133.626 268.068 132.935C268.808 132.53 269.409 131.912 269.792 131.16C269.605 131.915 269.271 132.626 268.81 133.252C267.903 134.47 263.262 135.357 263.262 135.357V134.375Z" fill="#F28F8F"/>
<path d="M264.118 124.764C264.111 124.959 264.182 125.15 264.315 125.293C264.448 125.437 264.632 125.522 264.828 125.531C264.983 125.543 265.139 125.509 265.274 125.432C265.41 125.355 265.519 125.238 265.587 125.098C265.655 124.958 265.679 124.801 265.657 124.647C265.634 124.492 265.565 124.349 265.459 124.234C265.353 124.12 265.215 124.04 265.063 124.006C264.911 123.971 264.753 123.983 264.608 124.04C264.463 124.098 264.338 124.197 264.251 124.326C264.164 124.455 264.117 124.608 264.118 124.764Z" fill="#263238"/>
<path d="M265.259 121.689L266.787 122.57C266.898 122.353 266.924 122.102 266.858 121.867C266.792 121.632 266.64 121.43 266.432 121.302C266.331 121.246 266.219 121.21 266.103 121.199C265.988 121.188 265.871 121.201 265.761 121.237C265.65 121.274 265.549 121.333 265.462 121.411C265.376 121.488 265.307 121.583 265.259 121.689Z" fill="#263238"/>
<path d="M263.579 129.905L261.95 130.539C261.983 130.651 262.038 130.755 262.113 130.844C262.187 130.934 262.279 131.007 262.383 131.059C262.487 131.112 262.601 131.142 262.717 131.148C262.834 131.155 262.95 131.138 263.059 131.097C263.281 131.002 263.458 130.825 263.555 130.604C263.651 130.383 263.66 130.133 263.579 129.905Z" fill="#F28F8F"/>
<path d="M257.562 122.342L258.957 121.226C258.895 121.128 258.812 121.045 258.716 120.982C258.619 120.918 258.51 120.876 258.396 120.857C258.281 120.839 258.165 120.845 258.053 120.874C257.941 120.904 257.836 120.957 257.746 121.029C257.56 121.187 257.438 121.408 257.404 121.65C257.37 121.892 257.427 122.138 257.562 122.342Z" fill="#263238"/>
<path d="M258.177 124.555C258.189 124.693 258.24 124.826 258.325 124.936C258.41 125.046 258.525 125.129 258.657 125.175C258.788 125.22 258.93 125.226 259.065 125.193C259.2 125.159 259.323 125.087 259.417 124.984C259.512 124.882 259.575 124.755 259.598 124.618C259.621 124.481 259.604 124.34 259.549 124.212C259.493 124.084 259.402 123.976 259.285 123.899C259.169 123.823 259.033 123.782 258.894 123.781C258.796 123.785 258.7 123.807 258.61 123.848C258.521 123.889 258.441 123.947 258.374 124.019C258.308 124.09 258.256 124.175 258.222 124.267C258.188 124.359 258.173 124.457 258.177 124.555Z" fill="#263238"/>
<path d="M262 123.958L261.918 128.466L259.357 127.882L262 123.958Z" fill="#F28F8F"/>
<path d="M201.175 161.713L205.15 159.418L206.722 157.51L202.753 159.805L201.175 161.713Z" fill="#002F52"/>
<path opacity="0.4" d="M201.175 161.713L205.15 159.418L206.722 157.51L202.753 159.805L201.175 161.713Z" fill="black"/>
<path d="M211.984 167.951L215.959 165.656L219.275 162.721L215.306 165.009L211.984 167.951Z" fill="#002F52"/>
<path opacity="0.4" d="M211.984 167.951L215.959 165.656L219.275 162.721L215.306 165.009L211.984 167.951Z" fill="black"/>
<path d="M245.751 175.87C246.691 177.13 247.26 178.627 247.393 180.194C246.457 178.932 245.889 177.435 245.751 175.87ZM254.988 175.99C253.651 166.892 248.763 157.896 242.942 154.529C240.147 152.913 237.56 152.856 235.487 154.067L231.746 156.222L231.537 156.349C231.37 156.441 231.209 156.542 231.055 156.653C230.748 156.865 230.459 157.102 230.193 157.363L230.066 157.484C229.952 157.598 229.831 157.731 229.724 157.858C229.616 157.985 229.451 158.181 229.324 158.352C229.055 158.707 228.811 159.08 228.595 159.468C228.481 159.665 228.373 159.874 228.272 160.102L195.602 141.247L191.633 143.536V146.072L191.969 146.262L192.286 146.446V146.953L191.652 147.327V148.798L196.451 158.942L201.194 161.687L202.772 159.785L206.957 162.29L209.359 166.404L212.01 167.932L215.325 164.99L219.396 167.343L220.765 172.991L227.606 176.948C227.944 178.385 228.368 179.802 228.874 181.189C228.918 181.329 228.975 181.474 229.032 181.633C231.302 187.592 234.91 192.696 238.98 195.048C239.468 195.338 239.979 195.586 240.508 195.79C240.788 195.901 241.073 195.997 241.364 196.075C241.617 196.143 241.871 196.2 242.125 196.247C242.925 196.393 243.746 196.393 244.546 196.247L244.876 196.164C245.034 196.132 245.189 196.088 245.339 196.031L245.694 195.892C245.82 195.846 245.941 195.789 246.055 195.72C246.173 195.67 246.287 195.613 246.398 195.549L246.563 195.448C246.592 195.438 246.62 195.423 246.645 195.403C247.552 194.883 249.783 193.59 250.392 193.248C253.41 191.498 255.363 187.073 255.363 180.815C255.357 179.2 255.232 177.587 254.988 175.99Z" fill="#002F52"/>
<path d="M244.591 183.548C243.019 182.641 241.751 179.953 241.751 177.544C241.751 175.135 243.019 173.911 244.591 174.811C246.163 175.712 247.425 178.406 247.425 180.822C247.425 183.237 246.157 184.454 244.591 183.548ZM251.013 178.279C249.682 169.188 244.794 160.185 238.967 156.825C236.266 155.265 233.768 155.151 231.74 156.222L231.53 156.349C231.364 156.441 231.203 156.543 231.049 156.654C230.741 156.865 230.453 157.103 230.186 157.364L230.06 157.484C229.945 157.598 229.825 157.731 229.717 157.858C229.609 157.985 229.445 158.182 229.318 158.353C229.049 158.707 228.805 159.08 228.589 159.469C228.475 159.665 228.367 159.874 228.265 160.103C227.674 161.328 227.248 162.626 226.997 163.964L191.626 143.536V146.072L191.963 146.262L192.28 146.446V146.953L191.646 147.327V148.798L196.445 158.942L201.187 161.688L202.766 159.786L206.95 162.29L209.353 166.405L212.003 167.932L215.319 164.991L219.389 167.343L220.759 172.992L227.606 176.948C227.944 178.386 228.368 179.802 228.874 181.189C228.918 181.329 228.975 181.475 229.032 181.633C231.302 187.593 234.91 192.696 238.98 195.049C239.468 195.338 239.979 195.586 240.508 195.79C240.788 195.902 241.073 195.997 241.364 196.076C241.617 196.143 241.871 196.2 242.125 196.247C242.925 196.393 243.746 196.393 244.546 196.247L244.876 196.164C245.034 196.133 245.189 196.088 245.339 196.031L245.694 195.892C245.82 195.847 245.941 195.789 246.055 195.721C246.173 195.67 246.287 195.613 246.398 195.549L246.563 195.448C246.592 195.438 246.62 195.423 246.645 195.404C249.536 193.578 251.394 189.216 251.394 183.11C251.383 181.493 251.256 179.878 251.013 178.279Z" fill="#002F52"/>
<path opacity="0.4" d="M247.425 180.816C247.425 183.231 246.157 184.455 244.591 183.548C243.025 182.642 241.751 179.96 241.751 177.544C241.751 175.129 243.019 173.905 244.591 174.812C245.044 175.087 245.438 175.449 245.751 175.877C245.887 177.443 246.456 178.939 247.393 180.201C247.416 180.405 247.427 180.61 247.425 180.816Z" fill="black"/>
<path opacity="0.4" d="M255.35 180.81C255.35 187.067 253.397 191.492 250.379 193.242C249.745 193.585 247.539 194.878 246.632 195.398C249.523 193.572 251.381 189.21 251.381 183.105C251.374 181.49 251.251 179.877 251.013 178.28C249.682 169.188 244.794 160.186 238.967 156.825C236.266 155.266 233.768 155.152 231.74 156.223L235.48 154.067C237.553 152.856 240.14 152.914 242.936 154.53C248.763 157.897 253.651 166.893 254.982 175.991C255.224 177.586 255.347 179.197 255.35 180.81Z" fill="white"/>
<path d="M251.381 183.091C251.381 189.197 249.523 193.558 246.632 195.384C247.539 194.865 249.771 193.571 250.379 193.229C253.397 191.479 255.35 187.054 255.35 180.796C255.35 180.568 255.35 180.333 255.35 180.099L251.381 182.394C251.375 182.641 251.381 182.869 251.381 183.091Z" fill="#002F52"/>
<path opacity="0.1" d="M251.381 183.091C251.381 189.197 249.523 193.558 246.632 195.384C247.539 194.865 249.771 193.571 250.379 193.229C253.397 191.479 255.35 187.054 255.35 180.796C255.35 180.568 255.35 180.333 255.35 180.099L251.381 182.394C251.375 182.641 251.381 182.869 251.381 183.091Z" fill="black"/>
<path opacity="0.15" d="M227.15 166.557V167.844L191.633 147.341L192.286 146.96V146.428L227.15 166.557Z" fill="black"/>
<path opacity="0.15" d="M227.15 167.089V167.843L191.633 147.34L192.286 146.959V146.953L227.15 167.089Z" fill="black"/>
<path opacity="0.15" d="M242.594 193.235C241.248 193.2 239.935 192.809 238.79 192.1C233.001 188.759 228.291 178.818 228.291 169.942C228.291 164.762 229.857 160.895 232.589 159.316C234.491 158.213 236.742 158.353 239.107 159.716C244.889 163.057 249.599 173.03 249.599 181.906C249.599 187.079 248.033 190.953 245.301 192.525C244.477 192.996 243.543 193.241 242.594 193.235ZM235.334 159.221C234.49 159.216 233.658 159.435 232.925 159.855C230.434 161.294 228.944 165.067 228.944 169.936C228.944 178.609 233.509 188.322 239.126 191.542C241.275 192.81 243.31 192.925 245.003 191.948C247.495 190.509 248.984 186.743 248.984 181.874C248.984 173.194 244.42 163.488 238.809 160.261C237.76 159.623 236.562 159.273 235.334 159.247V159.221Z" fill="black"/>
<path opacity="0.4" d="M228.24 160.09C227.649 161.315 227.223 162.613 226.972 163.951L191.601 143.523L195.57 141.234L228.24 160.09Z" fill="white"/>
<path d="M274.211 162.074C276.063 158.568 278.18 150.694 279.233 146.719C280.729 141.076 278.307 137.526 275.555 137.38C273.837 137.646 268.176 158.232 268.176 158.232C267.542 158.733 258.938 163.101 256.174 164.198C255.68 164.385 255.134 164.385 254.64 164.198C253.315 163.716 252.408 163.805 251.108 163.678C250.088 163.577 249.574 163.215 249.441 163.431C249.32 163.698 249.304 164.002 249.397 164.28C249.49 164.559 249.685 164.792 249.942 164.934C250.501 165.259 251.097 165.519 251.717 165.707C250.606 166.044 249.448 166.2 248.287 166.17C245.624 166.113 244.667 167.267 246.734 169.974C248.002 171.66 250.1 172.193 254.786 170.576C256.13 170.107 257.956 169.2 259.661 168.585C263.173 167.317 264.099 167.165 266.775 166.259C270.674 164.94 273.387 163.634 274.211 162.074Z" fill="#FFA8A7"/>
<path d="M274.522 136.848C276.139 137.07 277.692 137.431 278.649 138.75C279.607 140.068 280.374 141.92 279.436 146.96C278.717 150.505 277.755 153.996 276.557 157.408C276.557 157.408 272.791 159.019 268.791 154.936L271.542 144.297C271.542 144.297 271.986 137.38 274.522 136.848Z" fill="#455A64"/>
</svg>
